<?xml version="1.0" encoding="utf-8"?>
<!-- Generator: Adobe Illustrator 28.0.0, SVG Export Plug-In . SVG Version: 6.00 Build 0)  -->
<svg version="1.1" id="City" xmlns="http://www.w3.org/2000/svg" xmlns:xlink="http://www.w3.org/1999/xlink" x="0px" y="0px"
	 viewBox="0 0 791.4 669.2" style="enable-background:new 0 0 791.4 669.2;" xml:space="preserve">
<style type="text/css">
	.st0{fill:#1C2F3A;}
	.st1{fill:#FEE187;}
	.st2{fill:#939598;}
	.st3{fill:#557687;}
	.st4{fill:none;stroke:#314F60;stroke-width:2;stroke-linecap:round;stroke-linejoin:round;}
	.st5{fill:#718C9A;}
	.st6{fill:#314F60;}
	.st7{fill:#395F72;}
	.st8{fill:#25404D;}
	.st9{fill:#FEC215;}
	.st10{fill:#141F26;}
	.st11{fill:#FFFBF2;stroke:#FFFBF2;stroke-miterlimit:10;}
	.st12{fill:none;stroke:#B32524;stroke-width:3;stroke-linejoin:round;}
	.st13{fill:#FFEEBD;}
	.st14{fill:none;}
	.st15{fill:#B32524;stroke:#141F26;stroke-width:2;stroke-linejoin:round;}
	.st16{fill:#FFE69E;}
	.st17{fill:none;stroke:#F15A29;stroke-miterlimit:10;}
	.st18{fill:#FFEEBD;stroke:#25404D;stroke-width:3;stroke-miterlimit:10;}
	.st19{fill:none;stroke:#25404D;stroke-miterlimit:10;}
	.st20{fill:#B32524;}
	.st21{fill:#FFFBF2;}
	.st22{fill:#FFEEBD;stroke:#25404D;stroke-width:2.5;stroke-miterlimit:10;}
	.st23{fill:#FFE69E;stroke:#314F60;stroke-width:2;stroke-miterlimit:10;}
	.st24{fill:none;stroke:#314F60;stroke-miterlimit:10;}
	.st25{fill:none;stroke:#395F72;stroke-width:2;stroke-linecap:round;stroke-miterlimit:10;}
	.st26{fill:#808285;}
	.st27{fill:#6D6E71;}
	.st28{fill:#FFE69E;stroke:#25404D;stroke-width:1.5;stroke-miterlimit:10;}
</style>
<polygon class="st0" points="670,286.4 632.9,237.2 632.9,105.7 670,173 "/>
<polygon class="st1" points="443.2,289.1 437,280.9 437,265.3 443.2,274 "/>
<g>
	<polygon class="st1" points="444,225 437.9,215.2 437.9,199.7 444,209.8 	"/>
	<polygon class="st1" points="454.7,241.8 449,232.9 449,218.1 454.7,227.4 	"/>
	<polygon class="st1" points="463.5,256 458.3,247.6 458.3,233.4 463.5,242 	"/>
</g>
<g>
	<polygon class="st1" points="444,257.7 437.9,248.6 437.9,233.1 444,242.6 	"/>
	<polygon class="st1" points="454.7,273.3 449,265 449,250.2 454.7,258.8 	"/>
	<polygon class="st1" points="463.5,286.4 458.3,278.7 458.3,264.4 463.5,272.5 	"/>
</g>
<polygon class="st2" points="603.3,654 1.1,616.5 515.6,612.3 791.4,610.8 "/>
<polygon class="st3" points="460.6,125.7 432.6,90 432.6,41.5 460.6,80.6 "/>
<polygon class="st3" points="464.7,164.6 438,133.5 438,84.7 464.7,119.1 "/>
<polygon class="st3" points="468.2,208 443,181.1 443,130.8 468.2,160.9 "/>
<line class="st4" x1="428.8" y1="54.8" x2="428.8" y2="1"/>
<polygon class="st5" points="443,352 383.5,365.4 383.5,157.9 443,130.8 "/>
<polygon class="st5" points="438,134.6 387.6,158.9 387.6,111.8 438,84.8 "/>
<polygon class="st5" points="432.6,41.4 392.2,66.5 392.2,111.2 432.6,88.3 "/>
<polygon class="st6" points="511.7,431.9 483.9,420.3 483.9,162.9 511.7,191.6 "/>
<polygon class="st7" points="484,418.7 424.3,428.6 424.3,187.1 484,162.9 "/>
<polygon class="st8" points="519.3,302.5 633.2,272.2 633.2,105.9 519.3,151.8 "/>
<path class="st9" d="M670.1,191.9l-37.2-64.2c0,0,0,0,0-0.1V123c0-0.1,0.2,0,0.3,0.1l37.2,64.9c0,0,0,0,0,0.1v3.9
	C670.4,192.2,670.2,192.1,670.1,191.9z"/>
<polygon class="st3" points="710.8,613.6 502.4,610.9 502.4,275.9 710.8,213.9 "/>
<g>
	<polygon class="st10" points="698,267.2 511.8,314.9 511.8,281.2 698,227.7 	"/>
	<path class="st11" d="M521.8,286.5v0.6l-2.4,0.7v15.1L519,303v-15.1l-2.4,0.7V288L521.8,286.5L521.8,286.5z"/>
	<path class="st11" d="M523.5,301.7l-0.5,0.1v-15.7l0.5-0.1v8.1c0.5-1.5,1.3-2.4,2.5-2.7c0.8-0.2,1.5,0,2,0.7
		c0.5,0.7,0.8,1.6,0.8,2.8v5.5l-0.5,0.1v-5.5c0-1-0.2-1.8-0.7-2.4c-0.5-0.6-1-0.8-1.7-0.6s-1.2,0.7-1.7,1.5s-0.7,1.8-0.7,2.7
		L523.5,301.7L523.5,301.7z"/>
	<path class="st11" d="M533.8,299.3l-0.1,0c-0.9,0.2-1.7,0-2.4-0.9s-1-1.9-1-3.2s0.3-2.6,1-3.8s1.5-1.9,2.5-2.1s1.8,0.1,2.6,1
		l-4.5,7.8c0.6,0.6,1.2,0.8,1.8,0.6s1.1-0.5,1.5-1s0.8-1.1,1.1-1.9v1.1C535.6,298.2,534.8,299,533.8,299.3L533.8,299.3z
		 M533.7,289.9c-0.8,0.2-1.4,0.8-2,1.9s-0.9,2.1-0.9,3.2s0.2,2,0.8,2.8l4.2-7.2C535.1,289.9,534.4,289.7,533.7,289.9z"/>
	<path class="st11" d="M543.3,280.5l0.5-0.1c0.6-0.2,1.2,0,1.6,0.4c0.4,0.5,0.7,1.1,0.7,2c0,0.5-0.1,1.1-0.4,1.8s-0.5,1.1-0.8,1.3
		c0.8,0.1,1.4,0.5,1.9,1.2s0.8,1.8,0.8,3.2s-0.4,2.6-1.1,3.9c-0.7,1.2-1.6,1.9-2.6,2.2l-0.5,0.1L543.3,280.5L543.3,280.5z
		 M543.8,280.9v5l0.1,0c0.4-0.1,0.8-0.5,1.2-1.1c0.3-0.6,0.5-1.3,0.5-1.9s-0.2-1.2-0.5-1.6s-0.7-0.5-1.2-0.4L543.8,280.9z
		 M543.8,286.6v9.2l0.1,0c0.8-0.2,1.6-0.9,2.2-2c0.6-1.1,0.9-2.2,0.9-3.5s-0.3-2.3-0.9-3s-1.3-1-2.2-0.8L543.8,286.6L543.8,286.6z"
		/>
	<path class="st11" d="M552.3,294.4l-0.1,0c-0.9,0.2-1.8,0-2.5-0.9s-1-1.9-1-3.3s0.3-2.6,1-3.8s1.5-1.9,2.6-2.2s1.9,0.1,2.7,1
		l-4.7,7.9c0.7,0.6,1.3,0.8,1.9,0.6s1.1-0.5,1.6-1s0.9-1.1,1.2-1.9v1.1C554.2,293.3,553.4,294.1,552.3,294.4L552.3,294.4z
		 M552.2,284.8c-0.8,0.2-1.5,0.9-2.1,1.9s-0.9,2.1-0.9,3.3s0.3,2.1,0.8,2.8l4.3-7.4C553.7,284.8,553,284.6,552.2,284.8L552.2,284.8z
		"/>
	<path class="st11" d="M563.3,281.4v9.8l-0.5,0.1v-2.4c-0.3,0.9-0.7,1.7-1.3,2.3c-0.6,0.6-1.2,1-1.8,1.2c-1,0.3-1.8,0-2.5-0.8
		s-1-1.9-1-3.3s0.3-2.7,1-3.9s1.5-1.9,2.5-2.2c0.7-0.2,1.3-0.1,1.9,0.2s1,0.9,1.2,1.6v-2.5L563.3,281.4L563.3,281.4z M556.6,288.1
		c0,1.2,0.3,2.2,0.9,2.9s1.3,1,2.2,0.7s1.6-0.9,2.2-1.9s0.9-2.2,0.9-3.4s-0.3-2.2-0.9-2.9c-0.6-0.7-1.3-1-2.2-0.8s-1.6,0.9-2.2,2
		S556.6,286.9,556.6,288.1L556.6,288.1z"/>
	<path class="st11" d="M570.9,279.3l0.5-0.1v9.9l-0.5,0.1v-2c-0.5,1.6-1.4,2.6-2.7,2.9c-0.9,0.2-1.6,0-2.2-0.7s-0.9-1.6-0.9-2.8
		v-5.7l0.5-0.1v5.7c0,1,0.2,1.8,0.7,2.4c0.5,0.6,1.1,0.8,1.8,0.6s1.3-0.7,1.9-1.6c0.5-0.9,0.8-1.8,0.8-2.8V279.3L570.9,279.3z"/>
	<path class="st11" d="M575.7,287.4v0.6c-0.7,0.2-1.4,0-1.9-0.5c-0.5-0.6-0.8-1.4-0.8-2.5v-10.3l0.5-0.1v4l2.1-0.6v0.6l-2.1,0.6v5.7
		c0,0.9,0.2,1.6,0.6,2C574.6,287.4,575.1,287.6,575.7,287.4L575.7,287.4z"/>
	<path class="st11" d="M582.8,276.1l0.5-0.1v9.6c0,1.3-0.3,2.5-1,3.6s-1.5,1.8-2.4,2c-1.1,0.3-2-0.1-2.7-1.1l0-1.1
		c0.3,0.6,0.7,1.1,1.2,1.4s1,0.4,1.5,0.2c0.8-0.2,1.4-0.8,2-1.7s0.8-2,0.8-3.1v-1.7c-0.5,1.6-1.4,2.5-2.7,2.9
		c-0.9,0.2-1.6,0-2.2-0.7c-0.6-0.7-0.9-1.6-0.9-2.9v-5.8l0.5-0.1v5.8c0,1,0.3,1.8,0.8,2.4c0.5,0.6,1.2,0.8,1.9,0.6s1.3-0.7,1.9-1.6
		c0.5-0.9,0.8-1.9,0.8-2.9L582.8,276.1L582.8,276.1z"/>
	<path class="st11" d="M591.6,282.3c-0.7-0.9-1.1-2-1.1-3.4s0.4-2.7,1.1-4s1.7-2,2.7-2.3s2,0,2.7,0.8c0.8,0.8,1.1,2,1.1,3.4
		s-0.4,2.8-1.1,4s-1.6,2-2.7,2.3l-0.1,0C593.2,283.5,592.3,283.2,591.6,282.3L591.6,282.3z M597.6,277c0-1.3-0.3-2.3-1-3
		c-0.7-0.8-1.4-1-2.3-0.8s-1.7,0.9-2.3,2s-1,2.3-1,3.5s0.3,2.2,1,3s1.4,1,2.3,0.8s1.7-0.9,2.3-2S597.6,278.3,597.6,277L597.6,277z"
		/>
	<path class="st11" d="M602.6,266.5v0.6c-0.6,0.2-1.2,0.6-1.6,1.3s-0.7,1.5-0.7,2.5v5.9l2.3-0.6v0.6l-2.3,0.6v3.9l-0.5,0.1v-10.4
		c0-1.1,0.3-2.1,0.8-3C601.2,267.3,601.9,266.8,602.6,266.5z"/>
	<path class="st11" d="M616.3,277.4l-0.2,0c-1.1,0.3-2.2,0.2-3.2-0.4c-1-0.5-1.8-1.4-2.3-2.6c-0.6-1.2-0.8-2.6-0.8-4.1
		c0-2.4,0.6-4.6,1.9-6.7s2.8-3.4,4.6-3.9c1.2-0.3,2.3-0.2,3.4,0.3v0.8c-1-0.7-2.2-0.9-3.4-0.5c-1.6,0.5-3,1.6-4.2,3.6
		s-1.7,4-1.7,6.2s0.6,4,1.7,5.3s2.5,1.7,4.2,1.3c1.2-0.3,2.3-1.1,3.4-2.4v0.8C618.6,276.3,617.5,277.1,616.3,277.4L616.3,277.4z"/>
	<path class="st11" d="M626.1,258.2c-0.5-0.2-1-0.3-1.5-0.1s-1,0.5-1.4,1.1c-0.4,0.6-0.6,1.3-0.6,2.1v0.1c0,1,0.4,1.7,1.2,2.3
		c0.3,0.2,0.7,0.5,1.1,0.7c0.4,0.2,0.8,0.5,1.3,0.7s0.8,0.5,1.2,0.9s0.6,0.8,0.8,1.3c0.2,0.5,0.3,1.2,0.3,1.9v0.2
		c0,1.5-0.4,2.7-1.1,3.8c-0.7,1-1.6,1.7-2.7,2c-1.4,0.4-2.5-0.1-3.3-1.5v-1.2c0.3,0.8,0.7,1.4,1.3,1.8c0.6,0.4,1.3,0.5,2.1,0.2
		s1.6-0.8,2.2-1.7s0.9-2,0.9-3.2v-0.1c0-0.8-0.2-1.4-0.4-2c-0.3-0.6-0.7-1-1.1-1.3s-0.9-0.6-1.4-0.9s-1-0.6-1.4-0.8
		s-0.8-0.6-1.1-1.1c-0.3-0.5-0.4-1.1-0.4-1.8v-0.2c0-1.1,0.2-2,0.8-2.7s1.1-1.2,1.9-1.4c1-0.3,1.9,0,2.5,0.9v1.2
		C626.9,258.9,626.6,258.5,626.1,258.2L626.1,258.2z"/>
	<path class="st11" d="M634.8,255.8c-0.5-0.2-1-0.3-1.5-0.1s-1,0.5-1.4,1.1c-0.4,0.6-0.6,1.3-0.6,2.1v0.1c0,1,0.4,1.7,1.2,2.3
		c0.3,0.2,0.7,0.5,1.2,0.7c0.4,0.2,0.9,0.5,1.3,0.7s0.8,0.5,1.2,0.9s0.6,0.8,0.9,1.3s0.3,1.2,0.3,2v0.2c0,1.5-0.4,2.7-1.1,3.8
		s-1.7,1.7-2.7,2c-1.4,0.4-2.5-0.1-3.3-1.5v-1.2c0.3,0.8,0.7,1.4,1.3,1.8c0.6,0.4,1.3,0.5,2.2,0.2s1.6-0.8,2.2-1.7
		c0.6-0.9,1-2,1-3.2v-0.1c0-0.8-0.2-1.4-0.5-2s-0.7-1-1.1-1.3s-0.9-0.6-1.5-0.9s-1-0.6-1.5-0.9c-0.4-0.3-0.8-0.6-1.1-1.1
		c-0.3-0.5-0.4-1.1-0.4-1.8v-0.2c0-1.1,0.3-2,0.8-2.7c0.5-0.7,1.2-1.2,1.9-1.4c1-0.3,1.9,0,2.5,0.9v1.2
		C635.6,256.5,635.2,256.1,634.8,255.8L634.8,255.8z"/>
	<path class="st11" d="M645.7,251.9l0.6-0.2c2-0.6,3.5-0.1,4.8,1.2c1.2,1.4,1.8,3.3,1.8,5.7s-0.6,4.6-1.8,6.7
		c-1.2,2-2.8,3.3-4.8,3.8l-0.6,0.1L645.7,251.9L645.7,251.9z M646.4,252.4l-0.1,0v16.1l0.1,0c1.7-0.5,3.1-1.6,4.2-3.5
		c1.1-1.9,1.7-3.9,1.7-6.1s-0.5-4-1.7-5.2S648.1,251.9,646.4,252.4L646.4,252.4z"/>
	<path class="st11" d="M658.9,266.1l-0.2,0c-1.1,0.3-2.1,0-3-0.9s-1.2-2.1-1.2-3.6s0.4-2.9,1.2-4.2c0.8-1.3,1.9-2.1,3.1-2.5
		s2.3,0,3.2,1.1l-5.6,8.8c0.8,0.6,1.5,0.8,2.2,0.6s1.4-0.6,1.9-1.2s1-1.3,1.4-2.1v1.2C661.1,264.9,660.1,265.8,658.9,266.1
		L658.9,266.1z M658.7,255.7c-1,0.3-1.8,1-2.5,2.1s-1.1,2.4-1.1,3.6s0.3,2.3,0.9,3l5.2-8.2C660.5,255.6,659.6,255.4,658.7,255.7
		L658.7,255.7z"/>
	<path class="st11" d="M665.7,253.7c-0.3,0.1-0.6,0.3-0.8,0.6s-0.4,0.7-0.4,1.1s0.1,0.7,0.4,1s0.6,0.5,1,0.6
		c0.4,0.2,0.8,0.4,1.2,0.6s0.7,0.5,1,0.9c0.3,0.4,0.4,0.9,0.4,1.6c0,0.9-0.3,1.8-0.8,2.6c-0.5,0.8-1.2,1.3-2,1.5
		c-0.5,0.1-0.9,0.1-1.3-0.1c-0.4-0.2-0.7-0.5-0.9-0.9v-1.1c0.5,1.2,1.2,1.7,2.2,1.4c0.6-0.2,1.2-0.6,1.6-1.2s0.6-1.2,0.6-1.9
		s-0.1-1.1-0.4-1.5c-0.3-0.4-0.6-0.6-1-0.8c-0.4-0.2-0.8-0.4-1.2-0.6c-0.4-0.2-0.7-0.5-1-0.8s-0.4-0.8-0.4-1.4s0.2-1.1,0.5-1.6
		s0.8-0.8,1.3-0.9s1,0,1.4,0.4v1C666.7,253.8,666.2,253.6,665.7,253.7L665.7,253.7z"/>
	<path class="st11" d="M670.8,249.4c-0.3,0.1-0.5-0.1-0.5-0.5s0.2-0.7,0.5-0.8s0.5,0.1,0.5,0.5S671.2,249.3,670.8,249.4z
		 M671.1,251.9v10.7l-0.6,0.1V252L671.1,251.9L671.1,251.9z"/>
	<path class="st11" d="M681.5,249l0.6-0.2v9.8c0,1.9-0.4,3.4-1.2,4.7s-1.8,2.1-3.1,2.4c-0.7,0.2-1.4,0.1-2-0.1s-1.2-0.6-1.5-1.2
		v-1.1c0.3,0.7,0.8,1.2,1.5,1.5c0.7,0.3,1.4,0.4,2.1,0.2c1.1-0.3,2-1,2.7-2.1s1-2.5,1-4.2v-1.6c-0.3,1-0.9,1.8-1.6,2.5
		c-0.7,0.7-1.5,1.2-2.2,1.4c-1.2,0.3-2.2,0-3.1-0.8s-1.3-2.1-1.3-3.6s0.4-3,1.3-4.3c0.9-1.3,1.9-2.2,3.1-2.5
		c0.8-0.2,1.5-0.2,2.2,0.2s1.2,0.9,1.5,1.7L681.5,249L681.5,249z M673.9,256.5c0,1.4,0.4,2.4,1.1,3.2s1.7,1,2.7,0.8s1.9-1,2.7-2.2
		s1.1-2.4,1.1-3.8s-0.4-2.4-1.1-3.2s-1.6-1-2.7-0.7s-1.9,1-2.7,2.2S673.9,255.1,673.9,256.5z"/>
	<path class="st11" d="M685.1,258.9l-0.6,0.2v-10.8l0.6-0.2v2.2c0.6-1.8,1.7-2.9,3.2-3.4c1-0.3,1.9-0.1,2.7,0.7
		c0.7,0.7,1.1,1.8,1.1,3.1v6.3l-0.6,0.2v-6.3c0-1.1-0.3-2-0.9-2.6c-0.6-0.7-1.3-0.9-2.2-0.6s-1.6,0.9-2.3,1.9s-1,2.1-1,3.1
		L685.1,258.9L685.1,258.9z"/>
	<polygon class="st12" points="698,266.2 511.8,314.1 511.8,281.9 698,228.6 	"/>
</g>
<g>
	<polygon class="st13" points="528,421.3 513.4,423.8 513.4,400.3 528,397.6 	"/>
	<polygon class="st13" points="550.8,417.5 535.5,420 535.5,396 550.8,393.1 	"/>
	<polygon class="st13" points="575.9,413.1 560,415.8 560,391.1 575.9,388.1 	"/>
	<polygon class="st13" points="603.6,408.4 586.9,411.2 586.9,386.4 603.6,383.2 	"/>
	<polygon class="st13" points="633.2,403.3 615.7,406.3 615.7,380.5 633.2,377.1 	"/>
	<polygon class="st13" points="663.7,398.1 645.3,401.3 645.3,374.7 663.7,371.2 	"/>
	<polygon class="st13" points="696.4,392.5 677,395.7 677,368.6 696.4,364.9 	"/>
	<polygon class="st13" points="527.9,457.6 513.2,459.4 513.2,435.9 527.9,433.8 	"/>
	<polygon class="st13" points="550.7,454.7 535.4,456.6 535.4,432.5 550.7,430.3 	"/>
	<polygon class="st13" points="575.8,451.5 559.9,453.5 559.9,428.8 575.8,426.5 	"/>
	<polygon class="st13" points="603.6,448 586.8,450.1 586.8,425.2 603.6,422.8 	"/>
	<polygon class="st13" points="633.3,444.2 615.7,446.4 615.7,420.6 633.3,418 	"/>
	<polygon class="st13" points="663.8,440.5 645.4,442.7 645.4,416.2 663.8,413.5 	"/>
	<polygon class="st13" points="696.6,436.2 677.2,438.6 677.2,411.5 696.6,408.7 	"/>
	<polygon class="st13" points="528.1,346.9 513.5,350.2 513.5,326.8 528.1,323.1 	"/>
	<polygon class="st13" points="550.8,341.5 535.6,345.1 535.6,321.1 550.8,317.2 	"/>
	<polygon class="st13" points="575.9,335.6 560,339.3 560,314.7 575.9,310.6 	"/>
	<polygon class="st13" points="603.6,329.2 586.9,333.1 586.9,308.2 603.6,304 	"/>
	<polygon class="st13" points="633.2,322.2 615.7,326.3 615.7,300.5 633.2,296.1 	"/>
	<polygon class="st13" points="663.7,315.2 645.3,319.4 645.3,292.9 663.7,288.2 	"/>
	<polygon class="st13" points="696.3,307.4 676.9,311.9 676.9,284.8 696.3,279.9 	"/>
	<polygon class="st13" points="528,384 513.4,386.9 513.4,363.5 528,360.2 	"/>
	<polygon class="st13" points="550.8,379.4 535.5,382.5 535.5,358.5 550.8,355.1 	"/>
	<polygon class="st13" points="575.9,374.4 560,377.5 560,352.9 575.9,349.4 	"/>
	<polygon class="st13" points="603.6,368.8 586.9,372.1 586.9,347.3 603.6,343.6 	"/>
	<polygon class="st13" points="633.2,362.8 615.7,366.3 615.7,340.5 633.2,336.7 	"/>
	<polygon class="st13" points="663.7,356.7 645.3,360.4 645.3,333.9 663.7,329.8 	"/>
	<polygon class="st13" points="696.4,350.1 677,353.9 677,326.8 696.4,322.5 	"/>
</g>
<path class="st7" d="M670.4,178.9l-37.1-66.2c0,0,0-0.1,0-0.1v-7.6c0-0.2,0.2-0.3,0.3-0.1l37.1,67.4c0,0,0,0.1,0,0.1v6.4
	C670.7,178.9,670.5,179.1,670.4,178.9L670.4,178.9z"/>
<polygon class="st7" points="396.3,605 370.4,605.8 370.4,251 396.3,267.6 "/>
<polygon class="st3" points="370.5,432.3 317.9,441.2 317.9,270 370.5,251 "/>
<polygon class="st6" points="357.2,615.5 219.7,620.9 219.7,97.2 357.2,197.2 "/>
<polygon class="st0" points="451.1,426.5 430.6,419.6 430.6,324.7 451.1,334.9 "/>
<polygon class="st8" points="430.8,415 382.8,422.5 382.8,334.9 430.8,323.9 "/>
<polygon class="st3" points="219.7,621 73.1,616 73.1,188.5 219.7,97.1 "/>
<line class="st14" x1="216.5" y1="624.4" x2="659.3" y2="658.2"/>
<line class="st14" x1="212.6" y1="454.3" x2="628.1" y2="380.2"/>
<path class="st8" d="M219.8,97.9L71.9,190c-0.2,0.1-0.3-0.1-0.3-0.4V183l148.3-93.9L219.8,97.9L219.8,97.9z"/>
<path class="st0" d="M358.3,198.4L219.8,97.8v-8.8l138.9,102.6c0,0,0.1,0.1,0.1,0.1v6.3C358.7,198.5,358.5,198.6,358.3,198.4
	L358.3,198.4z"/>
<path class="st10" d="M233.9,334.3L233.9,334.3c-1.3,0.4-2.7-0.7-2.7-2.3v-63.4c0-0.9,0.5-1.7,1.3-2l0,0c1.3-0.5,2.8,0.6,2.8,2.2
	v63.4C235.2,333.2,234.7,334,233.9,334.3L233.9,334.3z"/>
<path class="st10" d="M232.8,271l-16.1,6.4c-0.8,0.3-1.7-0.3-1.7-1.1l0,0c0-0.5,0.3-1,0.8-1.1l16.1-6.5c0.8-0.3,1.7,0.3,1.7,1.1v0
	C233.6,270.4,233.3,270.8,232.8,271L232.8,271z"/>
<path class="st10" d="M232.8,330.6l-16.1,5.2c-0.8,0.3-1.7-0.4-1.7-1.3l0,0c0-0.5,0.3-0.9,0.8-1.1l16.1-5.3c0.8-0.3,1.7,0.4,1.7,1.3
	v0C233.6,330,233.3,330.4,232.8,330.6L232.8,330.6z"/>
<g>
	<polygon class="st15" points="241.1,322.3 226,327.3 226,277.5 241.1,271.6 	"/>
	<g>
		<path class="st9" d="M237,287.1c0.2-0.1,0.2,0,0.2,0.2c0,0.2-0.1,0.4-0.3,0.7c-0.4,0.5-0.8,0.9-1.1,1.1c-0.5,0.4-1.1,0.7-1.7,0.9
			s-1.1,0.3-1.7,0.2c-0.5-0.1-1-0.3-1.4-0.6c-0.8-0.7-1.2-1.9-1.2-3.5c0-0.8,0.1-1.5,0.3-2.3c0.2-0.7,0.5-1.4,0.9-2
			c0.8-1.3,1.9-2.2,3.2-2.7c0.7-0.3,1.4-0.4,1.9-0.3c0.6,0.1,0.9,0.3,0.9,0.5c0,0.1,0,0.2-0.1,0.3c0,0.1-0.1,0.1-0.2,0.2
			c-0.1,0-0.2,0-0.3-0.1c-0.1-0.1-0.2-0.2-0.4-0.2c-0.2,0-0.4-0.1-0.6-0.1c-0.4,0-0.8,0.1-1.1,0.2s-0.6,0.3-0.9,0.4v9.5
			c0.3,0,0.5-0.1,0.7-0.2s0.4-0.2,0.6-0.3s0.4-0.2,0.6-0.4c0.5-0.4,0.8-0.8,1.1-1.2c0.1-0.2,0.1-0.3,0.2-0.4
			C236.8,287.2,236.9,287.1,237,287.1L237,287.1z"/>
		<path class="st9" d="M231.1,305.1c-0.1,0-0.2-0.1-0.4-0.2c-0.1-0.1-0.1-0.2-0.1-0.3c0-0.2,0.1-0.4,0.2-0.4c0.1,0,0.2,0,0.3,0.1
			c0.1,0.1,0.3,0.2,0.4,0.2c0.2,0.1,0.3,0.1,0.5,0.1c0.4,0,0.7,0,1-0.1s0.6-0.2,0.8-0.4s0.3-0.2,0.4-0.4c0.2-0.3,0.4-0.6,0.4-0.9
			c0-0.3-0.1-0.5-0.3-0.8c-0.2-0.2-0.5-0.4-0.8-0.6l-1-0.6c-1-0.6-1.6-1.3-1.7-2.1c-0.1-0.3-0.1-0.6-0.1-0.9s0.1-0.7,0.2-1.1
			s0.3-0.7,0.5-1.1c0.5-0.7,1.2-1.3,2.1-1.6c0.5-0.2,0.9-0.2,1.2-0.2s0.6,0.1,0.7,0.2c0.1,0.1,0.2,0.2,0.2,0.3
			c0,0.2-0.1,0.4-0.2,0.4c-0.1,0-0.2,0-0.3-0.1c-0.1-0.1-0.2-0.1-0.3-0.2s-0.2-0.1-0.4-0.1c-0.3,0-0.6,0-1,0.1
			c-0.6,0.2-0.9,0.6-0.9,1c0,0.2,0,0.4,0.2,0.5c0.2,0.2,0.5,0.5,1.1,0.9c0.5,0.4,1,0.7,1.3,1c0.3,0.3,0.6,0.6,0.7,0.9
			c0.3,0.4,0.4,0.9,0.4,1.5s-0.1,1.1-0.2,1.5s-0.4,0.9-0.7,1.3c-0.6,0.8-1.3,1.4-2.2,1.7S231.7,305.4,231.1,305.1L231.1,305.1z"/>
		<path class="st9" d="M231.1,319.7c-0.1,0-0.2-0.1-0.4-0.2c-0.1-0.1-0.1-0.2-0.1-0.3c0-0.2,0.1-0.4,0.2-0.4c0.1,0,0.2,0,0.3,0.1
			c0.1,0.1,0.3,0.2,0.4,0.2c0.2,0.1,0.3,0.1,0.5,0.1c0.4,0,0.7,0,1-0.1s0.6-0.2,0.8-0.3s0.3-0.2,0.4-0.4c0.2-0.3,0.4-0.6,0.4-0.9
			c0-0.3-0.1-0.5-0.3-0.8c-0.2-0.2-0.5-0.4-0.8-0.6l-1-0.7c-1-0.6-1.6-1.3-1.7-2.1c-0.1-0.3-0.1-0.6-0.1-0.9s0.1-0.7,0.2-1.1
			s0.3-0.7,0.5-1.1c0.5-0.7,1.2-1.2,2.1-1.6c0.5-0.2,0.9-0.2,1.2-0.2c0.4,0,0.6,0.1,0.7,0.2c0.1,0.1,0.2,0.2,0.2,0.3
			c0,0.2-0.1,0.4-0.2,0.4c-0.1,0-0.2,0-0.3-0.1c-0.1-0.1-0.2-0.1-0.3-0.2s-0.2-0.1-0.4-0.1c-0.3,0-0.6,0-1,0.1
			c-0.6,0.2-0.9,0.5-0.9,1c0,0.2,0,0.4,0.2,0.5c0.2,0.2,0.5,0.5,1.1,0.9c0.5,0.4,1,0.7,1.3,1c0.3,0.3,0.6,0.6,0.7,0.9
			c0.3,0.4,0.4,1,0.4,1.5s-0.1,1.1-0.2,1.5s-0.4,0.9-0.7,1.3c-0.6,0.8-1.3,1.4-2.2,1.7S231.7,320,231.1,319.7L231.1,319.7z"/>
	</g>
</g>
<g>
	<polygon class="st16" points="254.8,328.4 247.2,325.3 247.2,313.6 254.8,316.8 	"/>
	<polygon class="st16" points="278.4,337.8 273.9,336 273.9,324.7 278.4,326.6 	"/>
	<polygon class="st16" points="272.5,335.5 268,333.6 268,322.3 272.5,324.2 	"/>
	<polygon class="st16" points="302.7,347.8 294.2,344.3 294.2,333.4 302.7,337 	"/>
	<polygon class="st16" points="319.8,354.7 315.9,353.1 315.9,342.6 319.8,344.3 	"/>
	<polygon class="st16" points="325.2,357 321.4,355.5 321.4,345 325.2,346.7 	"/>
	<polygon class="st16" points="341,363.5 337.3,362.1 337.3,351.9 341,353.5 	"/>
	<polygon class="st16" points="349.5,366.9 342.5,364.1 342.5,354.1 349.5,357 	"/>
	<polygon class="st16" points="243.8,435.1 235.9,433.2 235.9,421.3 243.8,423.3 	"/>
	<polygon class="st16" points="268.2,440.7 263.6,439.6 263.6,428.2 268.2,429.4 	"/>
	<polygon class="st16" points="262.1,439.3 257.4,438.2 257.4,426.7 262.1,427.9 	"/>
	<polygon class="st16" points="293.3,446.8 284.5,444.6 284.5,433.6 293.3,435.9 	"/>
	<polygon class="st16" points="310.9,451 306.8,450 306.8,439.3 310.9,440.4 	"/>
	<polygon class="st16" points="316.5,452.4 312.5,451.4 312.5,440.9 316.5,441.9 	"/>
	<polygon class="st16" points="332.7,456.4 329,455.5 329,445.2 332.7,446.1 	"/>
	<polygon class="st16" points="341.5,458.4 334.3,456.7 334.3,446.5 341.5,448.3 	"/>
	<polygon class="st16" points="236.8,573.2 228.7,573 228.7,560.9 236.8,561.3 	"/>
	<polygon class="st16" points="261.7,573.7 257,573.5 257,562 261.7,562.2 	"/>
	<polygon class="st16" points="255.5,573.6 246.8,573.3 246.8,561.6 255.5,562 	"/>
	<polygon class="st16" points="235.8,523.5 225.2,522.4 225.2,510.2 235.8,511.5 	"/>
	<polygon class="st16" points="256.8,525.7 252,525.2 252,513.5 256.8,514.1 	"/>
	<polygon class="st16" points="263.5,526.4 258.8,525.9 258.8,514.4 263.5,515 	"/>
	<polygon class="st16" points="282.7,528.5 278.2,528.1 278.2,516.9 282.7,517.4 	"/>
	<polygon class="st16" points="293,529.5 284.6,528.6 284.6,517.6 293,518.6 	"/>
	<polygon class="st16" points="238.8,195.1 233.7,192.1 233.7,180.1 238.8,183.3 	"/>
	<polygon class="st16" points="251,202.5 243.2,197.9 243.2,186 251,190.8 	"/>
	<polygon class="st16" points="266.2,211.4 261.6,208.6 261.6,197.1 266.2,199.9 	"/>
	<polygon class="st16" points="274.9,216.5 270.3,213.8 270.3,202.5 274.9,205.3 	"/>
	<polygon class="st16" points="299.5,231.3 290.8,226.1 290.8,215.2 299.5,220.5 	"/>
	<polygon class="st16" points="307.2,236 303.2,233.6 303.2,222.8 307.2,225.3 	"/>
	<polygon class="st16" points="322.2,245 318.3,242.7 318.3,232.2 322.2,234.6 	"/>
	<polygon class="st16" points="336.4,253.5 332.8,251.3 332.8,241.1 336.4,243.4 	"/>
	<polygon class="st16" points="346.7,259.7 339.7,255.5 339.7,245.4 346.7,249.7 	"/>
	<polygon class="st16" points="230.2,140.2 225.6,137 225.6,127 230.2,130.2 	"/>
	<polygon class="st16" points="235.9,144 231.3,140.9 231.3,131 235.9,134.2 	"/>
	<polygon class="st16" points="257.9,158.8 253.6,155.9 253.6,146.3 257.9,149.3 	"/>
	<polygon class="st16" points="264.7,163.4 260.5,160.6 260.5,151.1 264.7,154 	"/>
	<polygon class="st16" points="283.6,176.2 279.7,173.5 279.7,164.3 283.6,167 	"/>
	<polygon class="st16" points="292.1,181.8 289.4,179.9 289.4,170.9 292.1,172.8 	"/>
	<polygon class="st16" points="309.6,193.7 302.1,188.6 302.1,179.8 309.6,184.9 	"/>
	<polygon class="st16" points="317.8,199 310.5,194.1 310.5,185.4 317.8,190.4 	"/>
	<polygon class="st16" points="333.3,209.6 327.1,205.5 327.1,197 333.3,201.2 	"/>
	<polygon class="st16" points="349.5,220.7 346.4,218.5 346.4,210.3 349.5,212.5 	"/>
	<polygon class="st16" points="229.8,357.6 225.1,356 225.1,346 229.8,347.7 	"/>
	<polygon class="st16" points="235.5,359.6 230.9,358 230.9,348.1 235.5,349.8 	"/>
	<polygon class="st16" points="264.3,369.7 260.1,368.2 260.1,358.7 264.3,360.3 	"/>
	<polygon class="st16" points="283.2,376.4 279.3,375 279.3,365.8 283.2,367.2 	"/>
	<polygon class="st16" points="287.2,377.6 284.4,376.7 284.4,367.5 287.2,368.6 	"/>
	<polygon class="st16" points="309.3,385.5 301.8,382.9 301.8,374 309.3,376.7 	"/>
	<polygon class="st16" points="317.4,388.2 310.1,385.6 310.1,376.9 317.4,379.5 	"/>
	<polygon class="st16" points="332.9,393.8 326.7,391.6 326.7,383.1 332.9,385.4 	"/>
	<polygon class="st16" points="349.2,399.5 346.1,398.4 346.1,390.2 349.2,391.4 	"/>
	<polygon class="st16" points="340.9,289.4 337,287.4 337,279.5 340.9,281.6 	"/>
	<polygon class="st16" points="333.5,285.5 329.6,283.4 329.6,275.4 333.5,277.6 	"/>
	<polygon class="st16" points="313.4,274.6 309.2,272.3 309.2,264 313.4,266.4 	"/>
	<polygon class="st16" points="308.1,271.5 303.8,269.2 303.8,260.9 308.1,263.3 	"/>
	<polygon class="st16" points="292,263 287.4,260.5 287.4,251.9 292,254.5 	"/>
	<polygon class="st16" points="286.4,260 281.8,257.4 281.8,248.8 286.4,251.4 	"/>
	<polygon class="st16" points="271.9,252.1 267.1,249.5 267.1,240.6 271.9,243.3 	"/>
	<polygon class="st16" points="232.1,230.5 226.6,227.6 226.6,218.2 232.1,221.2 	"/>
	<polygon class="st16" points="241.8,235.8 234.3,231.7 234.3,222.4 241.8,226.6 	"/>
	<polygon class="st16" points="323.4,280 316.4,276.2 316.4,268 323.4,271.9 	"/>
	<polygon class="st16" points="348,330.7 343.5,328.6 343.5,319.5 348,321.8 	"/>
	<polygon class="st16" points="336.1,325 333.5,323.8 333.5,314.6 336.1,315.9 	"/>
	<polygon class="st16" points="306.4,311 302.9,309.3 302.9,299.9 306.4,301.6 	"/>
	<polygon class="st16" points="289.6,303 285.9,301.3 285.9,291.7 289.6,293.5 	"/>
	<polygon class="st16" points="274.1,295.5 267.9,292.5 267.9,282.6 274.1,285.7 	"/>
	<polygon class="st16" points="266.5,291.8 262.5,289.9 262.5,280 266.5,281.9 	"/>
	<polygon class="st16" points="254.6,286.2 250,284.1 250,273.9 254.6,276.1 	"/>
	<polygon class="st16" points="320.2,317.4 314.9,314.9 314.9,305.4 320.2,308 	"/>
	<polygon class="st16" points="352,420.3 349.1,419.4 349.1,427.3 352,428.2 	"/>
	<polygon class="st16" points="346.8,418.7 343.8,417.7 343.8,425.7 346.8,426.6 	"/>
	<polygon class="st16" points="336.4,415.6 333.3,414.6 333.3,422.7 336.4,423.7 	"/>
	<polygon class="st16" points="307.2,406.4 303.7,405.3 303.7,413.9 307.2,414.9 	"/>
	<polygon class="st16" points="261.1,391.9 252.3,389.1 252.3,398.4 261.1,401.1 	"/>
	<polygon class="st16" points="250.4,388.7 246.2,387.4 246.2,396.7 250.4,398 	"/>
	<polygon class="st16" points="232.2,382.9 227.8,381.5 227.8,391.1 232.2,392.4 	"/>
	<polygon class="st16" points="277.9,397.4 274,396.2 274,405.1 277.9,406.3 	"/>
	<polygon class="st16" points="300.3,404.3 296.8,403.1 296.8,411.8 300.3,412.9 	"/>
	<polygon class="st16" points="319.7,410.3 316.4,409.3 316.4,417.6 319.7,418.6 	"/>
	<polygon class="st16" points="326.5,412.5 320.5,410.6 320.5,418.9 326.5,420.7 	"/>
</g>
<line class="st17" x1="270.7" y1="499.3" x2="270.7" y2="499.3"/>
<polygon class="st3" points="603.7,627 284.3,618.1 284.3,440.3 603.7,384 "/>
<polyline class="st0" points="229.1,492.2 510.9,455.2 563.2,475.4 287,504.2 "/>
<path class="st18" d="M576.2,538.7c0,10-8.6,18.4-19,18.8c-10.2,0.4-18.4-7.1-18.4-16.8s8.2-18.1,18.4-18.8
	C567.6,521.2,576.2,528.7,576.2,538.7L576.2,538.7z"/>
<line class="st19" x1="557.2" y1="523" x2="557.2" y2="556.4"/>
<line class="st19" x1="539.9" y1="540.7" x2="575.2" y2="538.7"/>
<polygon class="st8" points="563.2,475.4 510.9,455.2 510.9,400.9 563.2,428.5 "/>
<g>
	<path class="st1" d="M230,492.8c-0.5,0-1-0.2-1.3-0.5c-0.4-0.4-0.7-0.9-0.7-1.5v-40.1c0-1,0.7-1.8,1.7-2l280.7-48.5
		c0.1,0,0.2,0,0.3,0c0.5,0,0.9,0.2,1.3,0.5c0.5,0.4,0.7,0.9,0.7,1.5v51.9c0,1-0.8,1.9-1.7,2l-280.7,36.8
		C230.1,492.8,230.1,492.8,230,492.8L230,492.8z"/>
	<path class="st20" d="M510.7,402.2v51.9L230,490.8v-40.1L510.7,402.2 M510.7,398.2c-0.2,0-0.5,0-0.7,0.1l-280.7,48.5
		c-1.9,0.3-3.3,2-3.3,3.9v40.1c0,1.1,0.5,2.2,1.4,3c0.7,0.6,1.7,1,2.6,1c0.2,0,0.4,0,0.5,0l280.7-36.8c2-0.3,3.5-2,3.5-4v-51.9
		c0-1.2-0.5-2.3-1.4-3.1C512.5,398.6,511.6,398.2,510.7,398.2L510.7,398.2L510.7,398.2z"/>
	<path class="st21" d="M234,487.3c-0.2,0-0.5-0.1-0.7-0.2c-0.2-0.2-0.3-0.5-0.3-0.8v-32.2c0-0.5,0.4-0.9,0.8-1L506.5,406
		c0.1,0,0.1,0,0.2,0c0.2,0,0.5,0.1,0.6,0.2c0.2,0.2,0.4,0.5,0.4,0.8v43.6c0,0.5-0.4,0.9-0.9,1l-272.7,35.7
		C234.1,487.3,234,487.3,234,487.3L234,487.3z"/>
	<path class="st20" d="M506.7,407v43.6L234,486.3v-32.2L506.7,407 M506.7,405c-0.1,0-0.2,0-0.3,0l-272.7,47.1c-1,0.2-1.7,1-1.7,2
		v32.2c0,0.6,0.2,1.1,0.7,1.5c0.4,0.3,0.8,0.5,1.3,0.5c0.1,0,0.2,0,0.3,0l272.7-35.7c1-0.1,1.7-1,1.7-2V407c0-0.6-0.3-1.1-0.7-1.5
		C507.6,405.1,507.1,405,506.7,405L506.7,405L506.7,405z"/>
	<path class="st20" d="M249.7,475.8c0.3,0,0.4,0.2,0.4,0.6c0,0.4-0.2,0.8-0.6,1.3c-0.8,0.8-1.4,1.4-2,1.7c-1,0.6-2,0.9-3.1,1.1
		s-2.1,0-3.1-0.4c-1-0.4-1.8-1.1-2.5-2c-1.5-1.9-2.2-4.5-2.2-7.8c0-1.6,0.2-3.1,0.6-4.5c0.4-1.4,1-2.6,1.7-3.7
		c1.5-2.3,3.5-3.6,5.8-4c1.3-0.2,2.5-0.1,3.5,0.4c1.1,0.5,1.6,1,1.6,1.5c0,0.2,0,0.4-0.1,0.5s-0.2,0.2-0.3,0.3
		c-0.2,0-0.4-0.1-0.6-0.3c-0.2-0.3-0.4-0.5-0.8-0.7c-0.3-0.2-0.7-0.3-1-0.5c-0.8-0.2-1.5-0.3-2.1-0.2s-1.1,0.2-1.5,0.4v19.7
		c0.5,0,0.9,0,1.3,0s0.8-0.1,1.2-0.3c0.4-0.1,0.8-0.3,1.2-0.5c0.9-0.5,1.5-1.1,1.9-1.9c0.2-0.3,0.3-0.5,0.4-0.6
		S249.5,475.8,249.7,475.8L249.7,475.8z"/>
	<path class="st20" d="M254.5,477.7c-0.2-0.2-0.5-0.4-0.7-0.6c-0.2-0.2-0.3-0.4-0.3-0.7c0-0.5,0.1-0.8,0.4-0.8
		c0.2,0,0.4,0.1,0.6,0.4c0.2,0.3,0.5,0.5,0.8,0.7c0.3,0.2,0.6,0.4,1,0.5c0.7,0.2,1.4,0.3,2,0.2s1.1-0.2,1.4-0.4s0.6-0.4,0.8-0.6
		c0.5-0.5,0.7-1.1,0.7-1.8c0-0.6-0.2-1.2-0.6-1.8c-0.4-0.5-0.9-1-1.5-1.7l-1.9-1.8c-1.9-1.8-3-3.5-3.3-5.1c-0.1-0.6-0.2-1.2-0.2-2
		s0.1-1.5,0.3-2.2c0.2-0.7,0.6-1.4,1-2c1-1.3,2.3-2.1,4-2.4c0.9-0.1,1.6-0.1,2.3,0.2c0.7,0.2,1.1,0.5,1.4,0.7
		c0.2,0.2,0.4,0.5,0.4,0.7c0,0.5-0.1,0.8-0.4,0.8c-0.2,0-0.3-0.1-0.5-0.3s-0.4-0.4-0.6-0.5c-0.2-0.1-0.5-0.2-0.8-0.3
		c-0.6-0.2-1.2-0.2-1.8-0.1c-1.1,0.2-1.6,0.8-1.6,1.8c0,0.4,0.1,0.8,0.3,1.1c0.4,0.6,1,1.4,2.1,2.4s1.9,1.9,2.5,2.7
		c0.6,0.8,1.1,1.5,1.4,2.2c0.5,1,0.8,2.2,0.8,3.4s-0.1,2.3-0.5,3.1c-0.3,0.9-0.7,1.7-1.3,2.4c-1.1,1.4-2.5,2.3-4.2,2.5
		S255.6,478.4,254.5,477.7L254.5,477.7z"/>
	<path class="st20" d="M269,475.6c-0.3-0.2-0.5-0.4-0.7-0.6c-0.2-0.2-0.3-0.4-0.3-0.7c0-0.5,0.1-0.8,0.5-0.8c0.2,0,0.4,0.1,0.7,0.4
		c0.2,0.3,0.5,0.5,0.8,0.7c0.3,0.2,0.6,0.4,1,0.5c0.8,0.2,1.4,0.3,2.1,0.2s1.1-0.2,1.5-0.4s0.6-0.4,0.9-0.6c0.5-0.5,0.8-1.1,0.8-1.8
		c0-0.6-0.2-1.2-0.6-1.8c-0.4-0.5-0.9-1.1-1.5-1.7l-1.9-1.8c-1.9-1.8-3.1-3.5-3.4-5.2c-0.1-0.6-0.2-1.2-0.2-2s0.1-1.5,0.4-2.2
		c0.2-0.8,0.6-1.4,1-2.1c1-1.3,2.4-2.1,4.1-2.4c0.9-0.1,1.7-0.1,2.4,0.1s1.2,0.5,1.5,0.7c0.3,0.2,0.4,0.5,0.4,0.7
		c0,0.5-0.1,0.8-0.4,0.8c-0.2,0-0.4-0.1-0.5-0.3s-0.4-0.4-0.6-0.5c-0.2-0.1-0.5-0.2-0.8-0.3c-0.6-0.2-1.3-0.2-1.9-0.1
		c-1.1,0.2-1.7,0.8-1.7,1.8c0,0.4,0.1,0.8,0.3,1.2c0.4,0.6,1.1,1.4,2.1,2.4s1.9,2,2.6,2.8c0.6,0.8,1.1,1.5,1.5,2.2
		c0.5,1.1,0.8,2.2,0.8,3.5s-0.2,2.3-0.5,3.2c-0.3,0.9-0.8,1.7-1.3,2.4c-1.2,1.5-2.6,2.3-4.4,2.6S270.1,476.4,269,475.6L269,475.6z"
		/>
	<path class="st20" d="M302.4,470.7c0.4-0.1,0.6,0.1,0.6,0.6c0,0.2-0.1,0.4-0.3,0.6c-0.2,0.2-0.5,0.3-1,0.4l-11.8,1.6l6.2-22.8
		l-3,0.5c-0.6,0.1-1,0.2-1.3,0.3c-0.3,0.1-0.5,0.2-0.6,0.2c-0.4,0.1-0.6-0.1-0.6-0.5c0-0.5,0.4-0.8,1.2-1l10.8-1.8l-6.2,23l4-0.6
		c0.6-0.1,1-0.2,1.3-0.3C302,470.8,302.2,470.7,302.4,470.7L302.4,470.7z"/>
	<path class="st20" d="M318.4,468.5c0.4-0.1,0.6,0.1,0.6,0.6c0,0.2-0.1,0.4-0.3,0.6c-0.2,0.2-0.5,0.3-1,0.4l-10.6,1.5V448
		c3.2-0.5,6.5-1.1,9.8-1.6l1-0.2c0.6-0.1,1,0.1,1,0.6c0,0.2,0,0.4-0.2,0.6c-0.1,0.2-0.2,0.3-0.4,0.3c-0.2,0-0.5,0-0.7,0
		c-0.4,0-0.9,0-1.5,0.1l-2.8,0.5v5.1l2.3-0.4l1.5-0.3c0.2,0,0.3,0,0.5,0.1s0.2,0.2,0.2,0.5c0,0.5-0.2,0.7-0.7,0.8l-0.5,0.1
		c-0.3,0-0.5,0-0.7,0.1l-2.6,0.4v14.9l2.8-0.4c0.6-0.1,1.1-0.2,1.3-0.3C317.9,468.6,318.2,468.5,318.4,468.5L318.4,468.5z"/>
	<path class="st20" d="M324.9,466.6l0,1.7c0,0.3-0.1,0.5-0.2,0.7s-0.3,0.3-0.4,0.3s-0.3,0-0.4-0.2c-0.1-0.1-0.2-0.3-0.2-0.5
		s0-0.3,0-0.5s0-0.3,0.1-0.5c0-0.3,0.1-1.1,0.1-2.5v-21l14.1,12.4v-10.2c0-0.8,0-1.3,0-1.7c0-0.5-0.1-0.9-0.1-1.1
		c0-0.6,0.2-0.9,0.6-1c0.1,0,0.3,0,0.4,0.1c0.1,0.1,0.2,0.3,0.2,0.6v0.6l0,2.5V468l-14.2-12.5V466.6z"/>
	<path class="st20" d="M370.7,461.4l0-1.2v-2.8c-1.3,3-3.3,5-5.9,6.1c-0.8,0.4-1.8,0.6-2.8,0.8s-2.2,0-3.3-0.4s-2.1-1.1-3-2
		c-1.9-2-2.8-4.9-2.8-8.7s1-6.8,3-9.6c2.1-2.9,4.7-4.6,7.8-5.2c1.6-0.3,3.1-0.1,4.4,0.4c0.8,0.3,1.4,0.6,1.7,1
		c0.3,0.3,0.5,0.6,0.5,0.8s-0.1,0.4-0.2,0.6c-0.1,0.2-0.3,0.3-0.5,0.3s-0.4-0.1-0.7-0.3c-0.7-0.7-1.4-1.1-1.9-1.3s-1-0.3-1.3-0.3
		c-0.3,0-0.6-0.1-0.9-0.1c-0.4,0-0.9,0-1.4,0.1s-1.1,0.2-1.5,0.4v22.8c0.1,0,0.2,0,0.3,0l0.3,0c2.8-0.4,5-2,6.8-4.9
		c0.6-1,1.1-2.1,1.5-3.5v-1.7l-0.1-1.6c0-0.6,0.2-1,0.6-1c0.2,0,0.4,0,0.5,0.2c0.1,0.2,0.2,0.4,0.2,0.6l-0.1,1.5v6.6l0.1,2.8
		c0,0.3-0.1,0.5-0.2,0.7c-0.1,0.2-0.3,0.3-0.5,0.3c-0.4,0.1-0.6-0.2-0.6-0.7C370.7,461.9,370.7,461.7,370.7,461.4L370.7,461.4z"/>
	<path class="st20" d="M382.7,457.8c-1.8,0.2-3,0.4-3.6,0.5l-0.4,1.3c-0.1,0.4-0.2,0.8-0.4,1.1c-0.2,0.8-0.5,1.2-0.9,1.2
		c-0.2,0-0.3,0-0.5-0.1c-0.1-0.1-0.2-0.3-0.2-0.4c0-0.3,0.1-0.6,0.3-0.9c0.3-0.5,0.6-1.2,0.9-2.1c-0.8,0-1.2-0.2-1.2-0.7
		s0.2-0.8,0.7-0.9c0.3,0,0.6,0,1,0l7.3-23l10.1,25.3l-7.8,1.1l-1.2-3L382.7,457.8L382.7,457.8z M379.5,456.8c0.9,0,1.8-0.1,2.5-0.2
		l4.3-0.6l-3.7-9.2L379.5,456.8L379.5,456.8z"/>
	<path class="st20" d="M411.3,448l1.3-0.1c1.8-0.3,3.4-1.3,4.7-3c1.3-1.7,1.9-3.7,1.9-6c0-3-1.1-5-3.3-6.1c-1.2-0.6-2.5-0.9-3.9-0.8
		c-0.6,0-1.1,0.1-1.6,0.2l-1,0.2c-0.2,0-0.4,0.1-0.6,0.1v24.9l-7.8,1.1v-26c2.4-0.4,4.3-0.7,5.8-1s2.5-0.4,2.9-0.5s0.9-0.1,1.2-0.1
		c0.4,0,0.7-0.1,1-0.1c0.5,0,1.1,0,1.9,0s1.7,0.3,2.5,0.6c0.8,0.4,1.5,0.9,2.1,1.6c1.3,1.4,1.9,3.3,1.9,5.6s-0.6,4.3-1.8,6.2
		c-1.2,1.9-2.9,3.3-4.9,4.1c1,3.4,2.2,5.4,3.7,5.9c0.5,0.1,0.9,0.2,1.4,0.1l1.2-0.5c0.4,0,0.6,0.2,0.6,0.6c0,0.7-0.6,1.1-2,1.3
		c-0.9,0.1-1.8-0.1-2.6-0.6c-1.2-0.7-2.2-2.2-3.1-4.6l-0.5-1.3c-0.1-0.2-0.1-0.3-0.2-0.4c-0.1,0-0.2,0-0.3,0s-0.3,0-0.4,0.1
		l-0.4,0.1c-0.4,0.1-0.7,0-0.8-0.2s-0.2-0.3-0.2-0.5C410.3,448.5,410.6,448.1,411.3,448L411.3,448z"/>
	<path class="st20" d="M426.7,428.2l6.7-1.1c3.2-0.5,5.5-0.6,7-0.4c1.7,0.3,3,0.9,4,1.7c0.9,0.8,1.7,1.7,2.2,2.6
		c1.1,1.9,1.6,4.2,1.6,6.9c0,4.2-1.3,7.8-3.9,10.7c-1.8,2.1-4,3.6-6.4,4.3c-1.4,0.4-3.3,0.8-5.7,1.1l-5.4,0.8V428.2z M434.9,452.2
		c0.2,0,0.3,0,0.5,0l0.4,0c3-0.4,5.5-1.9,7.6-4.3c2.2-2.6,3.4-5.8,3.4-9.6c0-2.4-0.5-4.5-1.5-6.2c-1.4-2.5-3.7-3.9-6.7-4
		c-1,0-2.2,0.1-3.6,0.3L434.9,452.2L434.9,452.2z"/>
	<path class="st20" d="M470.3,447.2c0.6-0.1,0.9,0.1,0.9,0.7c0,0.2-0.1,0.5-0.4,0.7c-0.3,0.2-0.7,0.4-1.3,0.5l-14.5,2v-27.5
		c4.5-0.7,9-1.5,13.5-2.2l1.4-0.3c0.9-0.1,1.3,0.1,1.3,0.6c0,0.2-0.1,0.4-0.2,0.7c-0.2,0.2-0.3,0.3-0.5,0.4c-0.3,0-0.6,0.1-1,0
		c-0.5,0-1.2,0-2,0.2l-3.8,0.6v6l3.2-0.5l2.1-0.4c0.3,0,0.5,0,0.7,0.1c0.2,0.1,0.3,0.3,0.3,0.5c0,0.5-0.3,0.9-1,1l-0.8,0.1
		c-0.4,0-0.7,0-1,0.1l-3.5,0.5v17.5l3.8-0.5c0.9-0.1,1.5-0.2,1.8-0.4C469.7,447.3,470.1,447.2,470.3,447.2L470.3,447.2z"/>
	<path class="st20" d="M479.3,444.8l0,2c0,0.3-0.1,0.6-0.2,0.8s-0.4,0.3-0.6,0.4s-0.4,0-0.6-0.2c-0.2-0.1-0.2-0.3-0.2-0.5
		s0-0.4,0-0.6c0-0.2,0.1-0.4,0.1-0.6c0.1-0.4,0.1-1.4,0.1-2.9v-24.7l19.6,14.2v-12.1c0-0.9,0-1.6-0.1-2c-0.1-0.6-0.1-1.1-0.1-1.3
		c0-0.7,0.3-1.1,0.8-1.1c0.2,0,0.4,0,0.6,0.1s0.3,0.4,0.3,0.7v0.7l-0.1,3V446l-19.7-14.3L479.3,444.8L479.3,444.8z"/>
</g>
<g>
	<path class="st9" d="M586.2,426.2c-0.5-0.4-1.4-0.4-2.6-0.1c-0.5,0.1-1,0.3-1.3,0.5v9.7c0.2,0,0.3-0.1,0.5-0.1
		c1.4-0.4,2.6-1,3.4-1.9c0.8-0.8,1.2-1.7,1.2-2.6c0-0.8-0.3-1.4-0.8-1.7c-0.5-0.3-1.3-0.4-2.2-0.1c-0.3,0.1-0.5,0.2-0.7,0.2
		c-0.4,0.2-0.7,0.3-0.8,0.3c-0.1,0-0.1,0-0.2-0.1s0-0.2,0.1-0.2s0.2-0.1,0.3-0.2c0.3-0.2,0.7-0.3,1.3-0.5s1-0.2,1.5-0.2
		s0.8,0.1,1.2,0.3c0.7,0.4,1.1,1.1,1.1,2.2c0,1.2-0.5,2.2-1.6,3.2c-1,0.9-2.2,1.5-3.6,1.9c-1.6,0.4-2.9,0.3-3.8-0.2
		c-1.1-0.6-1.6-1.8-1.6-3.5s0.6-3.3,1.8-4.6c1.1-1.3,2.5-2.1,4.3-2.6c1-0.3,2-0.4,2.7-0.2c0.6,0.1,0.9,0.3,0.9,0.6
		c0,0.2-0.1,0.3-0.3,0.3c-0.1,0-0.2,0-0.3,0L586.2,426.2L586.2,426.2z"/>
	<path class="st9" d="M579.3,448.8c0.9-0.6,1.9-1,2.8-1.2s1.7-0.3,2.4-0.3s1.2,0.2,1.7,0.4c0.9,0.5,1.4,1.3,1.4,2.3s-0.5,2.1-1.5,3
		c-1,1-2.4,1.7-4,2.1c-1.2,0.3-2.3,0.2-3.4-0.1c-0.4-0.1-0.7-0.3-0.8-0.5c0-0.1-0.1-0.1-0.1-0.2c0-0.2,0.1-0.4,0.3-0.4
		s0.4,0,0.5,0.2s0.3,0.3,0.5,0.4s0.5,0.2,0.8,0.2c0.7,0.1,1.4,0.1,2.2-0.1l0.3-0.1c0.1,0,0.2,0,0.2-0.1v-6.4c-0.2,0-0.5,0.1-0.8,0.2
		s-0.7,0.2-1.2,0.4s-0.8,0.4-1.1,0.6c-0.3,0.2-0.5,0.4-0.7,0.4s-0.2,0-0.3,0s-0.1-0.1-0.1-0.2l0.5-3.5c0,0,0-0.1,0-0.1v-0.1
		c0-0.3,0-0.4,0.1-0.5c0.1-0.1,0.2-0.1,0.4-0.2l1.3-0.2l1.8-0.4c1.5-0.4,2.6-0.7,3.2-0.9c0,0,0.1,0,0.2-0.1s0.2,0,0.2,0
		s0.1,0.1,0.1,0.2c0,0.2-0.3,0.4-1,0.6c-0.2,0-0.3,0.1-0.5,0.1l-5.1,1.2L579.3,448.8L579.3,448.8z"/>
	<path class="st9" d="M577.3,472.2l-0.4,0.1l-0.1,0c-0.2,0-0.3,0-0.4,0s-0.2-0.1-0.2-0.3s0-0.2,0-0.3s0.1-0.2,0.1-0.3
		s0.1-0.2,0.2-0.3l6-8.5l3.8-0.8v8c0.8-0.2,1.2-0.3,1.3-0.3c0.2-0.1,0.4-0.1,0.5-0.2s0.2,0,0.3,0s0.1,0.1,0.1,0.2
		c0,0.2-0.2,0.4-0.6,0.5c-0.2,0.1-0.6,0.1-1,0.2l-0.7,0.1v2.1l-4.7,1v-2.1C580.2,471.6,578.7,471.9,577.3,472.2L577.3,472.2z
		 M581.7,470.8V465l-4.5,6.5c-0.1,0.1-0.1,0.2-0.1,0.2s0.2,0,0.3,0L581.7,470.8L581.7,470.8z"/>
</g>
<polygon class="st22" points="423.3,620.6 371.7,619.2 371.7,532.8 423.3,529.4 "/>
<polygon class="st8" points="710.8,615.2 603.4,627 603.4,384.6 710.8,459.6 "/>
<polygon class="st22" points="357.3,618.9 312.1,617.7 312.1,536.6 357.3,533.8 "/>
<line class="st19" x1="334.3" y1="534.2" x2="334.3" y2="617.1"/>
<polygon class="st23" points="158,617.4 124,616.2 124,552.3 158,550.4 "/>
<line class="st24" x1="140.7" y1="550.6" x2="140.7" y2="615.9"/>
<line class="st19" x1="397" y1="530.4" x2="397" y2="619.2"/>
<polygon class="st22" points="497.2,622.7 437.9,621.1 437.9,528.6 497.2,524.8 "/>
<line class="st19" x1="466.5" y1="527.2" x2="466.5" y2="622.3"/>
<line class="st14" x1="757" y1="618.8" x2="787.8" y2="613.5"/>
<line class="st14" x1="707.9" y1="627.2" x2="781.6" y2="614.2"/>
<polygon class="st8" points="743.2,611.5 710.8,615.1 710.8,214.3 743.2,278 "/>
<path class="st5" d="M633.3,113.3l-114.5,45.4c-0.1,0-0.2,0-0.2-0.1v-7.3c0-0.1,0-0.1,0.1-0.1L633.2,105c0.1,0,0.2,0,0.2,0.1v8.1
	C633.4,113.3,633.4,113.3,633.3,113.3L633.3,113.3z"/>
<path class="st9" d="M632.8,128.1l-114.4,44c-0.1,0-0.2,0-0.2-0.1v-4.4c0,0,0-0.1,0.1-0.1l114.4-44.5c0.1,0,0.2,0,0.2,0.1
	L632.8,128.1C632.9,128,632.8,128.1,632.8,128.1L632.8,128.1z"/>
<polygon class="st16" points="200.4,320.5 206.8,318.3 206.8,306.6 200.4,308.9 "/>
<polygon class="st16" points="211.8,137.5 206.2,140.7 206.2,130.2 211.8,126.9 "/>
<polygon class="st16" points="197.4,146 187.3,151.8 187.3,141.6 197.4,135.6 "/>
<polygon class="st16" points="184.5,153.5 178.3,157 178.3,146.9 184.5,143.2 "/>
<polygon class="st16" points="160.7,167.2 154.9,170.6 154.9,160.9 160.7,157.4 "/>
<polygon class="st16" points="153.2,171.6 147.6,174.8 147.6,165.1 153.2,161.8 "/>
<polygon class="st16" points="140.9,178.7 131.4,184.1 131.4,174.9 140.9,169.3 "/>
<polygon class="st16" points="121.1,190 115.2,193.4 115.2,184.1 121.1,180.6 "/>
<polygon class="st16" points="102.6,200.9 93.1,206.4 93.1,197.2 102.6,191.6 "/>
<polygon class="st16" points="91.5,207 86.2,210.1 86.2,200.9 91.5,197.7 "/>
<polygon class="st16" points="213.2,187.3 206.8,190.6 206.8,178.1 213.2,174.7 "/>
<polygon class="st16" points="205,191.6 193,197.8 193,185.3 205,178.9 "/>
<polygon class="st16" points="177.6,205.7 171.1,209.1 171.1,197.1 177.6,193.6 "/>
<polygon class="st16" points="153.2,218.4 147.1,221.5 147.1,209.8 153.2,206.6 "/>
<polygon class="st16" points="145.1,222.5 139.3,225.5 139.3,214 145.1,210.9 "/>
<polygon class="st16" points="128.5,231.1 117.4,236.8 117.4,225.5 128.5,219.6 "/>
<polygon class="st16" points="115.6,237.7 104.7,243.3 104.7,232.2 115.6,226.4 "/>
<polygon class="st16" points="103,244.2 97,247.3 97,236.4 103,233.2 "/>
<polygon class="st16" points="85.2,253.4 78.9,256.6 78.9,246.1 85.2,242.7 "/>
<g>
	<polygon class="st16" points="199,232.4 204.1,230.1 204.1,221.8 199,224.3 	"/>
	<polygon class="st16" points="192.4,235.5 197.4,233.2 197.4,225 192.4,227.4 	"/>
	<polygon class="st16" points="171.9,245.1 179.7,241.4 179.7,233.3 171.9,237.1 	"/>
	<polygon class="st16" points="166.1,247.8 170.3,245.8 170.3,237.8 166.1,239.9 	"/>
	<polygon class="st16" points="145,257.5 154.1,253.4 154.1,245.5 145,249.8 	"/>
	<polygon class="st16" points="129.4,264.9 138.1,260.9 138.1,253.1 129.4,257.3 	"/>
	<polygon class="st16" points="113.5,272.2 117.9,270.2 117.9,262.6 113.5,264.8 	"/>
	<polygon class="st16" points="104.4,276.3 111.7,272.9 111.7,265.7 104.4,269.2 	"/>
</g>
<g>
	<polygon class="st16" points="214.6,271.9 206,275.4 206,264.1 214.6,260.5 	"/>
	<polygon class="st16" points="204.2,276.1 198.6,278.4 198.6,267.2 204.2,264.9 	"/>
	<polygon class="st16" points="169.4,290.4 163.8,292.7 163.8,282 169.4,279.7 	"/>
	<polygon class="st16" points="160.5,294 154.8,296.3 154.8,285.6 160.5,283.3 	"/>
	<polygon class="st16" points="140.4,302.1 128.1,307.1 128.1,296.8 140.4,291.6 	"/>
	<polygon class="st16" points="126,307.9 120.1,310.3 120.1,300.3 126,297.8 	"/>
	<polygon class="st16" points="103.1,317.3 96.7,319.9 96.7,310.1 103.1,307.4 	"/>
</g>
<polygon class="st16" points="184.6,326 197,321.6 197,310.2 184.6,314.8 "/>
<polygon class="st16" points="151.9,337.4 158.9,335 158.9,324 151.9,326.6 "/>
<polygon class="st16" points="141.6,341.3 148.9,338.8 148.9,327.6 141.6,330.3 "/>
<polygon class="st16" points="109.9,352.5 115.5,350.5 115.5,340.1 109.9,342.1 "/>
<polygon class="st16" points="80.5,363 92.8,358.6 92.8,348.4 80.5,353 "/>
<polygon class="st16" points="207,358.1 199.9,360.2 199.9,349.9 207,347.7 "/>
<polygon class="st16" points="188.2,363.6 176.5,367.1 176.5,356.9 188.2,353.2 "/>
<polygon class="st16" points="174.1,367.9 167.6,369.8 167.6,359.9 174.1,357.9 "/>
<polygon class="st16" points="142.7,377.3 136.2,379.3 136.2,369.7 142.7,367.7 "/>
<polygon class="st16" points="134.5,379.8 127.9,381.8 127.9,372.4 134.5,370.4 "/>
<polygon class="st16" points="107.3,388.2 101.3,390 101.3,380.7 107.3,378.8 "/>
<polygon class="st16" points="89.1,393.6 78.6,396.8 78.6,388 89.1,384.7 "/>
<polygon class="st16" points="198.6,394.7 192.7,396.2 192.7,386.5 198.6,385 "/>
<polygon class="st16" points="190.7,396.6 178,399.9 178,390.4 190.7,387 "/>
<polygon class="st16" points="149.3,407.2 143.9,408.6 143.9,399.9 149.3,398.5 "/>
<polygon class="st16" points="125,413.5 119.4,414.9 119.4,406.3 125,404.8 "/>
<polygon class="st16" points="96.2,421.3 84.6,424.3 84.6,415.5 96.2,412.3 "/>
<polygon class="st16" points="104.2,418.9 98.4,420.4 98.4,411.8 104.2,410.2 "/>
<g>
	<polygon class="st16" points="202,433.3 211.3,431.4 211.3,418.8 202,420.8 	"/>
	<polygon class="st16" points="188.2,436.4 179.8,438.1 179.8,425.8 188.2,423.9 	"/>
	<polygon class="st16" points="162.7,441.5 149.3,444.3 149.3,432.5 162.7,429.6 	"/>
	<polygon class="st16" points="146.8,444.8 138.4,446.5 138.4,435.1 146.8,433.2 	"/>
	<polygon class="st16" points="123.4,449.7 117.2,450.9 117.2,439.8 123.4,438.4 	"/>
	<polygon class="st16" points="95.4,455.5 88.6,456.9 88.6,446 95.4,444.5 	"/>
</g>
<g>
	<polygon class="st16" points="198,524.3 189.8,525 189.8,512.3 198,511.4 	"/>
	<polygon class="st16" points="186.6,525 170,526.5 170,514.5 186.6,512.7 	"/>
	<polygon class="st16" points="154.9,528.4 147.5,529.1 147.5,516.8 154.9,516 	"/>
	<polygon class="st16" points="122.8,531 115.9,531.7 115.9,520.3 122.8,519.6 	"/>
	<polygon class="st16" points="101,532.8 88.3,534 88.3,523.4 101,522.1 	"/>
</g>
<g>
	<polygon class="st16" points="203.4,478.6 195.1,479.8 195.1,466.8 203.4,465.5 	"/>
	<polygon class="st16" points="155.9,486 148.5,487.1 148.5,474.7 155.9,473.4 	"/>
	<polygon class="st16" points="145.7,487.4 131.7,489.5 131.7,477.6 145.7,475.3 	"/>
	<polygon class="st16" points="100.5,494.3 93.3,495.4 93.3,484.2 100.5,483 	"/>
	<polygon class="st16" points="88.7,496.1 81.2,497.2 81.2,486.1 88.7,484.9 	"/>
</g>
<line class="st25" x1="443.4" y1="131" x2="468.6" y2="160.9"/>
<line class="st25" x1="438" y1="85.5" x2="465.3" y2="119.5"/>
<line class="st25" x1="432.7" y1="41.7" x2="460.8" y2="80"/>
<line class="st25" x1="383.2" y1="157.8" x2="443.3" y2="131"/>
<line class="st25" x1="387.2" y1="112.6" x2="437.9" y2="85.4"/>
<line class="st25" x1="392" y1="67.7" x2="432.6" y2="41.7"/>
<polygon class="st26" points="1.4,623 603.4,664.3 603.4,654.2 1.3,616.5 "/>
<polygon class="st27" points="791.2,615.4 603.6,664 603.6,654 791.2,611 "/>
<g>
	<polygon class="st28" points="708.8,614.9 678,617.8 678,539.9 708.8,547 	"/>
	<line class="st19" x1="694.7" y1="543.8" x2="694.7" y2="616.1"/>
</g>
<g>
	<polygon class="st28" points="671.5,619.2 626.5,623.6 626.5,527.8 671.5,538.2 	"/>
	<line class="st19" x1="651.2" y1="533.6" x2="651.2" y2="620.5"/>
</g>
<g>
	<polygon class="st28" points="735.5,611.8 713.1,613.8 713.1,547.9 735.5,553.1 	"/>
	<line class="st19" x1="725.1" y1="550.8" x2="725.1" y2="612"/>
</g>
<g>
	<polygon class="st16" points="722.1,322 715.8,312.5 715.8,286.7 722.1,297.1 	"/>
	<polygon class="st16" points="731.6,336.2 725.9,327.7 725.9,303.3 731.6,312.6 	"/>
	<polygon class="st16" points="739.8,348.3 734.6,340.5 734.6,317.4 739.8,325.8 	"/>
	<polygon class="st16" points="722.1,362.4 715.8,354.3 715.8,328.6 722.1,337.6 	"/>
	<polygon class="st16" points="731.6,374.5 725.9,367.3 725.9,342.9 731.6,351 	"/>
	<polygon class="st16" points="739.8,384.8 734.6,378.2 734.6,355 739.8,362.3 	"/>
	<polygon class="st16" points="722.1,403.7 715.8,397.1 715.8,371.3 722.1,378.9 	"/>
	<polygon class="st16" points="731.6,413.7 725.9,407.7 725.9,383.4 731.6,390.1 	"/>
	<polygon class="st16" points="739.8,422 734.6,416.6 734.6,393.5 739.8,399.6 	"/>
	<polygon class="st16" points="722.1,443.4 715.8,438.1 715.8,412.4 722.1,418.5 	"/>
	<polygon class="st16" points="731.6,451.3 725.9,446.6 725.9,422.2 731.6,427.7 	"/>
	<polygon class="st16" points="739.8,457.9 734.6,453.6 734.6,430.4 739.8,435.4 	"/>
</g>
<polygon class="st16" points="633.9,482.2 616.2,474.8 616.2,433 633.9,443 "/>
<polygon class="st16" points="657,491.8 642.2,485.6 642.2,447.6 657,455.9 "/>
<polygon class="st16" points="676.6,501.1 663.2,495.6 663.2,458.1 676.6,465.7 "/>
<polygon class="st16" points="693.1,507.9 681.6,503.1 681.6,468.5 693.1,475 "/>
<polygon class="st16" points="707.7,513.8 697.8,509.8 697.8,477.7 707.7,483.3 "/>
<polygon class="st16" points="719.8,518.8 711.1,515.2 711.1,485.2 719.8,490.1 "/>
<polygon class="st16" points="730.4,523.2 722.8,520 722.8,491.8 730.4,496.2 "/>
<polygon class="st16" points="740.2,527.2 733.4,524.4 733.4,497.9 740.2,501.7 "/>
<g>
	<polygon class="st16" points="538.6,197.5 530.1,200.5 530.1,187 538.6,183.9 	"/>
	<polygon class="st16" points="554,191.9 545.2,195 545.2,181.3 554,178.1 	"/>
	<polygon class="st16" points="569.3,186.4 560.3,189.6 560.3,175.8 569.3,172.4 	"/>
	<polygon class="st16" points="585.5,180.5 576.3,183.8 576.3,169.7 585.5,166.4 	"/>
	<polygon class="st16" points="602.5,174.9 592.7,178.4 592.7,163.6 602.5,159.9 	"/>
	<polygon class="st16" points="620.5,168.5 610.3,172.2 610.3,157.1 620.5,153.3 	"/>
</g>
<g>
	<polygon class="st16" points="538.6,228.7 530.1,231.5 530.1,218 538.6,215.1 	"/>
	<polygon class="st16" points="554,223.5 545.2,226.4 545.2,212.7 554,209.7 	"/>
	<polygon class="st16" points="569.3,218.4 560.3,221.4 560.3,207.5 569.3,204.4 	"/>
	<polygon class="st16" points="585.5,212.9 576.3,216 576.3,201.9 585.5,198.7 	"/>
	<polygon class="st16" points="602.5,207.8 592.7,211 592.7,196.1 602.5,192.8 	"/>
	<polygon class="st16" points="620.5,201.8 610.3,205.2 610.3,190.1 620.5,186.6 	"/>
</g>
<g>
	<polygon class="st16" points="538.6,259.7 530.1,262.2 530.1,248.7 538.6,246.1 	"/>
	<polygon class="st16" points="554,255 545.2,257.6 545.2,243.9 554,241.2 	"/>
	<polygon class="st16" points="569.3,250.4 560.3,253.1 560.3,239.2 569.3,236.4 	"/>
	<polygon class="st16" points="585.5,245.4 576.3,248.1 576.3,234.1 585.5,231.2 	"/>
	<polygon class="st16" points="602.5,240.7 592.7,243.7 592.7,228.8 602.5,225.7 	"/>
	<polygon class="st16" points="620.5,235.3 610.3,238.4 610.3,223.3 620.5,220.1 	"/>
</g>
</svg>
