<?xml version="1.0" encoding="utf-8"?>
<!-- Generator: Adobe Illustrator 28.0.0, SVG Export Plug-In . SVG Version: 6.00 Build 0)  -->
<svg version="1.1" id="City" xmlns="http://www.w3.org/2000/svg" xmlns:xlink="http://www.w3.org/1999/xlink" x="0px" y="0px"
	 viewBox="0 0 844.4 672.3" style="enable-background:new 0 0 844.4 672.3;" xml:space="preserve">
<style type="text/css">
	.st0{fill:#1C2F3A;}
	.st1{fill:#FEE187;}
	.st2{fill:#939598;}
	.st3{fill:#557687;}
	.st4{fill:none;stroke:#314F60;stroke-width:2;stroke-linecap:round;stroke-linejoin:round;}
	.st5{fill:#718C9A;}
	.st6{fill:#314F60;}
	.st7{fill:#395F72;}
	.st8{fill:#25404D;}
	.st9{fill:#FEC215;}
	.st10{fill:#141F26;}
	.st11{fill:#FEC215;stroke:#FEC215;stroke-width:0.75;stroke-miterlimit:10;}
	.st12{fill:none;stroke:#B32524;stroke-width:3;stroke-linejoin:round;}
	.st13{fill:#FFEEBD;}
	.st14{fill:none;}
	.st15{fill:#B32524;stroke:#141F26;stroke-width:2;stroke-linejoin:round;}
	.st16{fill:#FFE69E;}
	.st17{fill:none;stroke:#F15A29;stroke-miterlimit:10;}
	.st18{fill:#FFEEBD;stroke:#25404D;stroke-width:3;stroke-miterlimit:10;}
	.st19{fill:none;stroke:#25404D;stroke-miterlimit:10;}
	.st20{fill:#B32524;}
	.st21{fill:#FFEFCD;}
	.st22{fill:#FFEEBD;stroke:#25404D;stroke-width:2.5;stroke-miterlimit:10;}
	.st23{fill:#FFE69E;stroke:#314F60;stroke-width:2;stroke-miterlimit:10;}
	.st24{fill:none;stroke:#314F60;stroke-miterlimit:10;}
	.st25{fill:none;stroke:#395F72;stroke-width:2;stroke-linecap:round;stroke-miterlimit:10;}
	.st26{fill:#808285;}
	.st27{fill:#6D6E71;}
	.st28{fill:#FFE69E;stroke:#25404D;stroke-width:1.5;stroke-miterlimit:10;}
</style>
<polygon class="st0" points="692,290.4 654.9,241.2 654.9,109.7 692,177 "/>
<polygon class="st1" points="667,252.1 660.8,243.8 660.8,228.3 667,236.9 "/>
<g>
	<polygon class="st1" points="667.8,187.9 661.6,178.2 661.6,162.7 667.8,172.8 	"/>
	<polygon class="st1" points="678.4,204.8 672.8,195.8 672.8,181 678.4,190.3 	"/>
	<polygon class="st1" points="687.3,218.9 682.1,210.6 682.1,196.3 687.3,205 	"/>
</g>
<g>
	<polygon class="st1" points="667.8,220.7 661.6,211.6 661.6,196.1 667.8,205.5 	"/>
	<polygon class="st1" points="678.4,236.3 672.8,228 672.8,213.2 678.4,221.8 	"/>
	<polygon class="st1" points="687.3,249.4 682.1,241.7 682.1,227.4 687.3,235.4 	"/>
</g>
<polygon class="st2" points="625.3,658 23.1,620.5 537.6,616.3 813.4,614.8 "/>
<polygon class="st3" points="482.6,129.7 454.6,94 454.6,45.5 482.6,84.6 "/>
<polygon class="st3" points="486.7,168.6 460,137.5 460,88.7 486.7,123.1 "/>
<polygon class="st3" points="490.2,212 465,185.1 465,134.8 490.2,164.9 "/>
<line class="st4" x1="450.8" y1="58.8" x2="450.8" y2="5"/>
<polygon class="st5" points="465,356 405.5,369.4 405.5,161.9 465,134.8 "/>
<polygon class="st5" points="460,138.6 409.6,162.9 409.6,115.8 460,88.8 "/>
<polygon class="st5" points="454.6,45.4 414.2,70.5 414.2,115.2 454.6,92.3 "/>
<polygon class="st6" points="533.7,435.9 505.9,424.3 505.9,166.9 533.7,195.6 "/>
<polygon class="st7" points="506,422.7 446.3,432.6 446.3,191.1 506,166.9 "/>
<polygon class="st8" points="541.3,306.5 655.2,276.2 655.2,109.9 541.3,155.8 "/>
<path class="st9" d="M692.1,195.9l-37.2-64.2c0,0,0,0,0-0.1V127c0-0.1,0.2,0,0.3,0.1l37.2,64.9c0,0,0,0,0,0.1v3.9
	C692.4,196.2,692.2,196.1,692.1,195.9z"/>
<polygon class="st3" points="732.8,617.6 524.4,614.9 524.4,279.9 732.8,217.9 "/>
<g>
	<polygon class="st10" points="720,271.2 533.8,318.9 533.8,285.2 720,231.7 	"/>
	<g id="Perspective_Text">
		<path class="st11" d="M543.8,290.5v0.6l-2.4,0.7v15.1L541,307v-15.1l-2.4,0.7V292L543.8,290.5L543.8,290.5z"/>
		<path class="st11" d="M545.5,305.7l-0.5,0.1v-15.7l0.5-0.1v8.1c0.5-1.5,1.3-2.4,2.5-2.7c0.8-0.2,1.5,0,2,0.7
			c0.5,0.7,0.8,1.6,0.8,2.8v5.5l-0.5,0.1v-5.5c0-1-0.2-1.8-0.7-2.4c-0.5-0.6-1-0.8-1.7-0.6s-1.2,0.7-1.7,1.5s-0.7,1.8-0.7,2.7
			L545.5,305.7L545.5,305.7z"/>
		<path class="st11" d="M555.8,303.3l-0.1,0c-0.9,0.2-1.7,0-2.4-0.9s-1-1.9-1-3.2s0.3-2.6,1-3.8s1.5-1.9,2.5-2.1s1.8,0.1,2.6,1
			l-4.5,7.8c0.6,0.6,1.2,0.8,1.8,0.6s1.1-0.5,1.5-1s0.8-1.1,1.1-1.9v1.1C557.6,302.2,556.8,303,555.8,303.3L555.8,303.3z
			 M555.7,293.9c-0.8,0.2-1.4,0.8-2,1.9s-0.9,2.1-0.9,3.2s0.2,2,0.8,2.8l4.2-7.2C557.1,293.9,556.4,293.7,555.7,293.9z"/>
		<path class="st11" d="M565.3,284.5l0.5-0.1c0.6-0.2,1.2,0,1.6,0.4c0.4,0.5,0.7,1.1,0.7,2c0,0.5-0.1,1.1-0.4,1.8s-0.5,1.1-0.8,1.3
			c0.8,0.1,1.4,0.5,1.9,1.2s0.8,1.8,0.8,3.2s-0.4,2.6-1.1,3.9c-0.7,1.2-1.6,1.9-2.6,2.2l-0.5,0.1L565.3,284.5L565.3,284.5z
			 M565.8,284.9v5l0.1,0c0.4-0.1,0.8-0.5,1.2-1.1c0.3-0.6,0.5-1.3,0.5-1.9s-0.2-1.2-0.5-1.6s-0.7-0.5-1.2-0.4L565.8,284.9z
			 M565.8,290.6v9.2l0.1,0c0.8-0.2,1.6-0.9,2.2-2c0.6-1.1,0.9-2.2,0.9-3.5s-0.3-2.3-0.9-3s-1.3-1-2.2-0.8L565.8,290.6L565.8,290.6z"
			/>
		<path class="st11" d="M574.3,298.4l-0.1,0c-0.9,0.2-1.8,0-2.5-0.9s-1-1.9-1-3.3s0.3-2.6,1-3.8s1.5-1.9,2.6-2.2s1.9,0.1,2.7,1
			l-4.7,7.9c0.7,0.6,1.3,0.8,1.9,0.6s1.1-0.5,1.6-1s0.9-1.1,1.2-1.9v1.1C576.2,297.3,575.4,298.1,574.3,298.4L574.3,298.4z
			 M574.2,288.8c-0.8,0.2-1.5,0.9-2.1,1.9s-0.9,2.1-0.9,3.3s0.3,2.1,0.8,2.8l4.3-7.4C575.7,288.8,575,288.6,574.2,288.8L574.2,288.8
			z"/>
		<path class="st11" d="M585.3,285.4v9.8l-0.5,0.1v-2.4c-0.3,0.9-0.7,1.7-1.3,2.3c-0.6,0.6-1.2,1-1.8,1.2c-1,0.3-1.8,0-2.5-0.8
			s-1-1.9-1-3.3s0.3-2.7,1-3.9s1.5-1.9,2.5-2.2c0.7-0.2,1.3-0.1,1.9,0.2s1,0.9,1.2,1.6v-2.5L585.3,285.4L585.3,285.4z M578.6,292.1
			c0,1.2,0.3,2.2,0.9,2.9s1.3,1,2.2,0.7s1.6-0.9,2.2-1.9s0.9-2.2,0.9-3.4s-0.3-2.2-0.9-2.9c-0.6-0.7-1.3-1-2.2-0.8s-1.6,0.9-2.2,2
			S578.6,290.9,578.6,292.1L578.6,292.1z"/>
		<path class="st11" d="M592.9,283.3l0.5-0.1v9.9l-0.5,0.1v-2c-0.5,1.6-1.4,2.6-2.7,2.9c-0.9,0.2-1.6,0-2.2-0.7s-0.9-1.6-0.9-2.8
			v-5.7l0.5-0.1v5.7c0,1,0.2,1.8,0.7,2.4c0.5,0.6,1.1,0.8,1.8,0.6s1.3-0.7,1.9-1.6c0.5-0.9,0.8-1.8,0.8-2.8V283.3L592.9,283.3z"/>
		<path class="st11" d="M597.7,291.4v0.6c-0.7,0.2-1.4,0-1.9-0.5c-0.5-0.6-0.8-1.4-0.8-2.5v-10.3l0.5-0.1v4l2.1-0.6v0.6l-2.1,0.6
			v5.7c0,0.9,0.2,1.6,0.6,2C596.6,291.4,597.1,291.6,597.7,291.4L597.7,291.4z"/>
		<path class="st11" d="M604.8,280.1l0.5-0.1v9.6c0,1.3-0.3,2.5-1,3.6s-1.5,1.8-2.4,2c-1.1,0.3-2-0.1-2.7-1.1l0-1.1
			c0.3,0.6,0.7,1.1,1.2,1.4s1,0.4,1.5,0.2c0.8-0.2,1.4-0.8,2-1.7s0.8-2,0.8-3.1v-1.7c-0.5,1.6-1.4,2.5-2.7,2.9
			c-0.9,0.2-1.6,0-2.2-0.7c-0.6-0.7-0.9-1.6-0.9-2.9v-5.8l0.5-0.1v5.8c0,1,0.3,1.8,0.8,2.4c0.5,0.6,1.2,0.8,1.9,0.6s1.3-0.7,1.9-1.6
			c0.5-0.9,0.8-1.9,0.8-2.9L604.8,280.1L604.8,280.1z"/>
		<path class="st11" d="M613.6,286.3c-0.7-0.9-1.1-2-1.1-3.4s0.4-2.7,1.1-4s1.7-2,2.7-2.3s2,0,2.7,0.8c0.8,0.8,1.1,2,1.1,3.4
			s-0.4,2.8-1.1,4s-1.6,2-2.7,2.3l-0.1,0C615.2,287.5,614.3,287.2,613.6,286.3L613.6,286.3z M619.6,281c0-1.3-0.3-2.3-1-3
			c-0.7-0.8-1.4-1-2.3-0.8s-1.7,0.9-2.3,2s-1,2.3-1,3.5s0.3,2.2,1,3s1.4,1,2.3,0.8s1.7-0.9,2.3-2S619.6,282.3,619.6,281L619.6,281z"
			/>
		<path class="st11" d="M624.6,270.5v0.6c-0.6,0.2-1.2,0.6-1.6,1.3s-0.7,1.5-0.7,2.5v5.9l2.3-0.6v0.6l-2.3,0.6v3.9l-0.5,0.1v-10.4
			c0-1.1,0.3-2.1,0.8-3C623.2,271.3,623.9,270.8,624.6,270.5z"/>
		<path class="st11" d="M638.3,281.4l-0.2,0c-1.1,0.3-2.2,0.2-3.2-0.4c-1-0.5-1.8-1.4-2.3-2.6c-0.6-1.2-0.8-2.6-0.8-4.1
			c0-2.4,0.6-4.6,1.9-6.7s2.8-3.4,4.6-3.9c1.2-0.3,2.3-0.2,3.4,0.3v0.8c-1-0.7-2.2-0.9-3.4-0.5c-1.6,0.5-3,1.6-4.2,3.6
			s-1.7,4-1.7,6.2s0.6,4,1.7,5.3s2.5,1.7,4.2,1.3c1.2-0.3,2.3-1.1,3.4-2.4v0.8C640.6,280.3,639.5,281.1,638.3,281.4L638.3,281.4z"/>
		<path class="st11" d="M648.1,262.2c-0.5-0.2-1-0.3-1.5-0.1s-1,0.5-1.4,1.1c-0.4,0.6-0.6,1.3-0.6,2.1v0.1c0,1,0.4,1.7,1.2,2.3
			c0.3,0.2,0.7,0.5,1.1,0.7c0.4,0.2,0.8,0.5,1.3,0.7s0.8,0.5,1.2,0.9s0.6,0.8,0.8,1.3c0.2,0.5,0.3,1.2,0.3,1.9v0.2
			c0,1.5-0.4,2.7-1.1,3.8c-0.7,1-1.6,1.7-2.7,2c-1.4,0.4-2.5-0.1-3.3-1.5v-1.2c0.3,0.8,0.7,1.4,1.3,1.8c0.6,0.4,1.3,0.5,2.1,0.2
			s1.6-0.8,2.2-1.7s0.9-2,0.9-3.2v-0.1c0-0.8-0.2-1.4-0.4-2c-0.3-0.6-0.7-1-1.1-1.3s-0.9-0.6-1.4-0.9s-1-0.6-1.4-0.8
			s-0.8-0.6-1.1-1.1c-0.3-0.5-0.4-1.1-0.4-1.8v-0.2c0-1.1,0.2-2,0.8-2.7s1.1-1.2,1.9-1.4c1-0.3,1.9,0,2.5,0.9v1.2
			C648.9,262.9,648.6,262.5,648.1,262.2L648.1,262.2z"/>
		<path class="st11" d="M656.8,259.8c-0.5-0.2-1-0.3-1.5-0.1s-1,0.5-1.4,1.1c-0.4,0.6-0.6,1.3-0.6,2.1v0.1c0,1,0.4,1.7,1.2,2.3
			c0.3,0.2,0.7,0.5,1.2,0.7c0.4,0.2,0.9,0.5,1.3,0.7s0.8,0.5,1.2,0.9s0.6,0.8,0.9,1.3s0.3,1.2,0.3,2v0.2c0,1.5-0.4,2.7-1.1,3.8
			s-1.7,1.7-2.7,2c-1.4,0.4-2.5-0.1-3.3-1.5v-1.2c0.3,0.8,0.7,1.4,1.3,1.8c0.6,0.4,1.3,0.5,2.2,0.2s1.6-0.8,2.2-1.7
			c0.6-0.9,1-2,1-3.2v-0.1c0-0.8-0.2-1.4-0.5-2s-0.7-1-1.1-1.3s-0.9-0.6-1.5-0.9s-1-0.6-1.5-0.9c-0.4-0.3-0.8-0.6-1.1-1.1
			c-0.3-0.5-0.4-1.1-0.4-1.8v-0.2c0-1.1,0.3-2,0.8-2.7c0.5-0.7,1.2-1.2,1.9-1.4c1-0.3,1.9,0,2.5,0.9v1.2
			C657.6,260.5,657.2,260.1,656.8,259.8L656.8,259.8z"/>
		<path class="st11" d="M667.7,255.9l0.6-0.2c2-0.6,3.5-0.1,4.8,1.2c1.2,1.4,1.8,3.3,1.8,5.7s-0.6,4.6-1.8,6.7
			c-1.2,2-2.8,3.3-4.8,3.8l-0.6,0.1L667.7,255.9L667.7,255.9z M668.4,256.4l-0.1,0v16.1l0.1,0c1.7-0.5,3.1-1.6,4.2-3.5
			c1.1-1.9,1.7-3.9,1.7-6.1s-0.5-4-1.7-5.2S670.1,255.9,668.4,256.4L668.4,256.4z"/>
		<path class="st11" d="M680.9,270.1l-0.2,0c-1.1,0.3-2.1,0-3-0.9s-1.2-2.1-1.2-3.6s0.4-2.9,1.2-4.2c0.8-1.3,1.9-2.1,3.1-2.5
			c1.2-0.3,2.3,0,3.2,1.1l-5.6,8.8c0.8,0.6,1.5,0.8,2.2,0.6s1.4-0.6,1.9-1.2s1-1.3,1.4-2.1v1.2C683.1,268.9,682.1,269.8,680.9,270.1
			L680.9,270.1z M680.7,259.7c-1,0.3-1.8,1-2.5,2.1s-1.1,2.4-1.1,3.6s0.3,2.3,0.9,3l5.2-8.2C682.5,259.6,681.6,259.4,680.7,259.7
			L680.7,259.7z"/>
		<path class="st11" d="M687.7,257.7c-0.3,0.1-0.6,0.3-0.8,0.6c-0.2,0.3-0.4,0.7-0.4,1.1c0,0.4,0.1,0.7,0.4,1s0.6,0.5,1,0.6
			c0.4,0.2,0.8,0.4,1.2,0.6s0.7,0.5,1,0.9c0.3,0.4,0.4,0.9,0.4,1.6c0,0.9-0.3,1.8-0.8,2.6c-0.5,0.8-1.2,1.3-2,1.5
			c-0.5,0.1-0.9,0.1-1.3-0.1c-0.4-0.2-0.7-0.5-0.9-0.9v-1.1c0.5,1.2,1.2,1.7,2.2,1.4c0.6-0.2,1.2-0.6,1.6-1.2s0.6-1.2,0.6-1.9
			s-0.1-1.1-0.4-1.5c-0.3-0.4-0.6-0.6-1-0.8c-0.4-0.2-0.8-0.4-1.2-0.6c-0.4-0.2-0.7-0.5-1-0.8s-0.4-0.8-0.4-1.4
			c0-0.6,0.2-1.1,0.5-1.6c0.3-0.5,0.8-0.8,1.3-0.9c0.5-0.1,1,0,1.4,0.5v1C688.7,257.8,688.2,257.6,687.7,257.7L687.7,257.7z"/>
		<path class="st11" d="M692.8,253.4c-0.3,0.1-0.5-0.1-0.5-0.5s0.2-0.7,0.5-0.8s0.5,0.1,0.5,0.5S693.2,253.3,692.8,253.4z
			 M693.1,255.9v10.7l-0.6,0.1V256L693.1,255.9L693.1,255.9z"/>
		<path class="st11" d="M703.5,253l0.6-0.2v9.8c0,1.9-0.4,3.4-1.2,4.7s-1.8,2.1-3.1,2.4c-0.7,0.2-1.4,0.1-2-0.1s-1.2-0.6-1.5-1.2
			v-1.1c0.3,0.7,0.8,1.2,1.5,1.5c0.7,0.3,1.4,0.4,2.1,0.2c1.1-0.3,2-1,2.7-2.1s1-2.5,1-4.2v-1.6c-0.3,1-0.9,1.8-1.6,2.5
			c-0.7,0.7-1.5,1.2-2.2,1.4c-1.2,0.3-2.2,0-3.1-0.8s-1.3-2.1-1.3-3.6s0.4-3,1.3-4.3c0.9-1.3,1.9-2.2,3.1-2.5
			c0.8-0.2,1.5-0.2,2.2,0.2s1.2,0.9,1.5,1.7L703.5,253L703.5,253z M695.9,260.5c0,1.4,0.4,2.4,1.1,3.2s1.7,1,2.7,0.8s1.9-1,2.7-2.2
			s1.1-2.5,1.1-3.8s-0.4-2.4-1.1-3.2s-1.6-1-2.7-0.7s-1.9,1-2.7,2.2C696.2,257.9,695.9,259.1,695.9,260.5z"/>
		<path class="st11" d="M707.1,262.9l-0.6,0.2v-10.8l0.6-0.2v2.2c0.6-1.8,1.7-2.9,3.2-3.4c1-0.3,1.9-0.1,2.7,0.7
			c0.7,0.7,1.1,1.8,1.1,3.1v6.3l-0.6,0.2v-6.3c0-1.1-0.3-2-0.9-2.6c-0.6-0.7-1.3-0.9-2.2-0.6s-1.6,0.9-2.3,1.9s-1,2.1-1,3.1
			L707.1,262.9L707.1,262.9z"/>
	</g>
	<polygon class="st12" points="720,270.2 533.8,318.1 533.8,285.9 720,232.6 	"/>
</g>
<g>
	<polygon class="st13" points="550,425.3 535.4,427.8 535.4,404.3 550,401.6 	"/>
	<polygon class="st13" points="572.8,421.5 557.5,424 557.5,400 572.8,397.1 	"/>
	<polygon class="st13" points="597.9,417.1 582,419.8 582,395.1 597.9,392.1 	"/>
	<polygon class="st13" points="625.6,412.4 608.9,415.2 608.9,390.4 625.6,387.2 	"/>
	<polygon class="st13" points="655.2,407.3 637.7,410.3 637.7,384.5 655.2,381.1 	"/>
	<polygon class="st13" points="685.7,402.1 667.3,405.3 667.3,378.7 685.7,375.2 	"/>
	<polygon class="st13" points="718.4,396.5 699,399.7 699,372.6 718.4,368.9 	"/>
	<polygon class="st13" points="549.9,461.6 535.2,463.4 535.2,439.9 549.9,437.8 	"/>
	<polygon class="st13" points="572.7,458.7 557.4,460.6 557.4,436.5 572.7,434.3 	"/>
	<polygon class="st13" points="597.8,455.5 581.9,457.5 581.9,432.8 597.8,430.5 	"/>
	<polygon class="st13" points="625.6,452 608.8,454.1 608.8,429.2 625.6,426.8 	"/>
	<polygon class="st13" points="655.3,448.2 637.7,450.4 637.7,424.6 655.3,422 	"/>
	<polygon class="st13" points="685.8,444.5 667.4,446.7 667.4,420.2 685.8,417.5 	"/>
	<polygon class="st13" points="718.6,440.2 699.2,442.6 699.2,415.5 718.6,412.7 	"/>
	<polygon class="st13" points="550.1,350.9 535.5,354.2 535.5,330.8 550.1,327.1 	"/>
	<polygon class="st13" points="572.8,345.5 557.6,349.1 557.6,325.1 572.8,321.2 	"/>
	<polygon class="st13" points="597.9,339.6 582,343.3 582,318.7 597.9,314.6 	"/>
	<polygon class="st13" points="625.6,333.2 608.9,337.1 608.9,312.2 625.6,308 	"/>
	<polygon class="st13" points="655.2,326.2 637.7,330.3 637.7,304.5 655.2,300.1 	"/>
	<polygon class="st13" points="685.7,319.2 667.3,323.4 667.3,296.9 685.7,292.2 	"/>
	<polygon class="st13" points="718.3,311.4 698.9,315.9 698.9,288.8 718.3,283.9 	"/>
	<polygon class="st13" points="550,388 535.4,390.9 535.4,367.5 550,364.2 	"/>
	<polygon class="st13" points="572.8,383.4 557.5,386.5 557.5,362.5 572.8,359.1 	"/>
	<polygon class="st13" points="597.9,378.4 582,381.5 582,356.9 597.9,353.4 	"/>
	<polygon class="st13" points="625.6,372.8 608.9,376.1 608.9,351.3 625.6,347.6 	"/>
	<polygon class="st13" points="655.2,366.8 637.7,370.3 637.7,344.5 655.2,340.7 	"/>
	<polygon class="st13" points="685.7,360.7 667.3,364.4 667.3,337.9 685.7,333.8 	"/>
	<polygon class="st13" points="718.4,354.1 699,357.9 699,330.8 718.4,326.5 	"/>
</g>
<path class="st7" d="M692.4,182.9l-37.1-66.2c0,0,0-0.1,0-0.1v-7.6c0-0.2,0.2-0.3,0.3-0.1l37.1,67.4c0,0,0,0.1,0,0.1v6.4
	C692.7,182.9,692.5,183.1,692.4,182.9L692.4,182.9z"/>
<polygon class="st7" points="418.3,609 392.4,609.8 392.4,255 418.3,271.6 "/>
<polygon class="st3" points="392.5,436.3 339.9,445.2 339.9,274 392.5,255 "/>
<polygon class="st6" points="379.2,619.5 241.7,624.9 241.7,101.2 379.2,201.2 "/>
<polygon class="st0" points="473.1,430.5 452.6,423.6 452.6,328.7 473.1,338.9 "/>
<polygon class="st8" points="452.8,419 404.8,426.5 404.8,338.9 452.8,327.9 "/>
<polygon class="st3" points="241.7,625 95.1,620 95.1,192.5 241.7,101.1 "/>
<line class="st14" x1="238.5" y1="628.4" x2="681.3" y2="662.2"/>
<line class="st14" x1="234.6" y1="458.3" x2="650.1" y2="384.2"/>
<path class="st8" d="M241.8,101.9L93.9,194c-0.2,0.1-0.3-0.1-0.3-0.4V187l148.3-93.9L241.8,101.9L241.8,101.9z"/>
<path class="st0" d="M380.3,202.4L241.8,101.8v-8.8l138.9,102.6c0,0,0.1,0.1,0.1,0.1v6.3C380.7,202.5,380.5,202.6,380.3,202.4
	L380.3,202.4z"/>
<path class="st10" d="M255.9,338.3L255.9,338.3c-1.3,0.4-2.7-0.7-2.7-2.3v-63.4c0-0.9,0.5-1.7,1.3-2l0,0c1.3-0.5,2.8,0.6,2.8,2.2
	v63.4C257.2,337.2,256.7,338,255.9,338.3L255.9,338.3z"/>
<path class="st10" d="M254.8,275l-16.1,6.4c-0.8,0.3-1.7-0.3-1.7-1.1l0,0c0-0.5,0.3-1,0.8-1.1l16.1-6.5c0.8-0.3,1.7,0.3,1.7,1.1v0
	C255.6,274.4,255.3,274.8,254.8,275L254.8,275z"/>
<path class="st10" d="M254.8,334.6l-16.1,5.2c-0.8,0.3-1.7-0.4-1.7-1.3l0,0c0-0.5,0.3-0.9,0.8-1.1l16.1-5.3c0.8-0.3,1.7,0.4,1.7,1.3
	v0C255.6,334,255.3,334.4,254.8,334.6L254.8,334.6z"/>
<g>
	<polygon class="st15" points="263.1,326.3 248,331.3 248,281.5 263.1,275.6 	"/>
	<g id="Perspective_Text-2">
		<path class="st9" d="M259,291.1c0.2-0.1,0.2,0,0.2,0.2c0,0.2-0.1,0.4-0.3,0.7c-0.4,0.5-0.8,0.9-1.1,1.1c-0.5,0.4-1.1,0.7-1.7,0.9
			s-1.1,0.3-1.7,0.2c-0.5-0.1-1-0.3-1.4-0.6c-0.8-0.7-1.2-1.9-1.2-3.5c0-0.8,0.1-1.5,0.3-2.3c0.2-0.7,0.5-1.4,0.9-2
			c0.8-1.3,1.9-2.2,3.2-2.7c0.7-0.3,1.4-0.4,1.9-0.3c0.6,0.1,0.9,0.3,0.9,0.5c0,0.1,0,0.2-0.1,0.3c0,0.1-0.1,0.1-0.2,0.2
			c-0.1,0-0.2,0-0.3-0.1c-0.1-0.1-0.2-0.2-0.4-0.2c-0.2,0-0.4-0.1-0.6-0.1c-0.4,0-0.8,0.1-1.1,0.2s-0.6,0.3-0.9,0.4v9.5
			c0.3,0,0.5-0.1,0.7-0.2s0.4-0.2,0.6-0.3s0.4-0.2,0.6-0.4c0.5-0.4,0.8-0.8,1.1-1.2c0.1-0.2,0.1-0.3,0.2-0.4
			C258.8,291.2,258.9,291.1,259,291.1L259,291.1z"/>
		<path class="st9" d="M253.1,309.1c-0.1,0-0.2-0.1-0.4-0.2c-0.1-0.1-0.1-0.2-0.1-0.3c0-0.2,0.1-0.4,0.2-0.4c0.1,0,0.2,0,0.3,0.1
			c0.1,0.1,0.3,0.2,0.4,0.2c0.2,0.1,0.3,0.1,0.5,0.1c0.4,0,0.7,0,1-0.1s0.6-0.2,0.8-0.4s0.3-0.2,0.4-0.4c0.2-0.3,0.4-0.6,0.4-0.9
			c0-0.3-0.1-0.5-0.3-0.8c-0.2-0.2-0.5-0.4-0.8-0.6l-1-0.6c-1-0.6-1.6-1.3-1.7-2.1c-0.1-0.3-0.1-0.6-0.1-0.9s0.1-0.7,0.2-1.1
			s0.3-0.7,0.5-1.1c0.5-0.7,1.2-1.3,2.1-1.6c0.5-0.2,0.9-0.2,1.2-0.2s0.6,0.1,0.7,0.2c0.1,0.1,0.2,0.2,0.2,0.3
			c0,0.2-0.1,0.4-0.2,0.4c-0.1,0-0.2,0-0.3-0.1c-0.1-0.1-0.2-0.1-0.3-0.2s-0.2-0.1-0.4-0.1c-0.3,0-0.6,0-1,0.1
			c-0.6,0.2-0.9,0.6-0.9,1c0,0.2,0,0.4,0.2,0.5c0.2,0.2,0.5,0.5,1.1,0.9c0.5,0.4,1,0.7,1.3,1c0.3,0.3,0.6,0.6,0.7,0.9
			c0.3,0.4,0.4,0.9,0.4,1.5s-0.1,1.1-0.2,1.5s-0.4,0.9-0.7,1.3c-0.6,0.8-1.3,1.4-2.2,1.7S253.7,309.4,253.1,309.1L253.1,309.1z"/>
		<path class="st9" d="M253.1,323.7c-0.1,0-0.2-0.1-0.4-0.2c-0.1-0.1-0.1-0.2-0.1-0.3c0-0.2,0.1-0.4,0.2-0.4c0.1,0,0.2,0,0.3,0.1
			c0.1,0.1,0.3,0.2,0.4,0.2c0.2,0.1,0.3,0.1,0.5,0.1c0.4,0,0.7,0,1-0.1s0.6-0.2,0.8-0.3s0.3-0.2,0.4-0.4c0.2-0.3,0.4-0.6,0.4-0.9
			c0-0.3-0.1-0.5-0.3-0.8c-0.2-0.2-0.5-0.4-0.8-0.6l-1-0.7c-1-0.6-1.6-1.3-1.7-2.1c-0.1-0.3-0.1-0.6-0.1-0.9s0.1-0.7,0.2-1.1
			s0.3-0.7,0.5-1.1c0.5-0.7,1.2-1.2,2.1-1.6c0.5-0.2,0.9-0.2,1.2-0.2c0.4,0,0.6,0.1,0.7,0.2c0.1,0.1,0.2,0.2,0.2,0.3
			c0,0.2-0.1,0.4-0.2,0.4c-0.1,0-0.2,0-0.3-0.1c-0.1-0.1-0.2-0.1-0.3-0.2s-0.2-0.1-0.4-0.1c-0.3,0-0.6,0-1,0.1
			c-0.6,0.2-0.9,0.5-0.9,1c0,0.2,0,0.4,0.2,0.5c0.2,0.2,0.5,0.5,1.1,0.9c0.5,0.4,1,0.7,1.3,1c0.3,0.3,0.6,0.6,0.7,0.9
			c0.3,0.4,0.4,1,0.4,1.5s-0.1,1.1-0.2,1.5s-0.4,0.9-0.7,1.3c-0.6,0.8-1.3,1.4-2.2,1.7S253.7,324,253.1,323.7L253.1,323.7z"/>
	</g>
</g>
<g>
	<polygon class="st16" points="276.8,332.4 269.2,329.3 269.2,317.6 276.8,320.8 	"/>
	<polygon class="st16" points="300.4,341.8 295.9,340 295.9,328.7 300.4,330.6 	"/>
	<polygon class="st16" points="294.5,339.5 290,337.6 290,326.3 294.5,328.2 	"/>
	<polygon class="st16" points="324.7,351.8 316.2,348.3 316.2,337.4 324.7,341 	"/>
	<polygon class="st16" points="341.8,358.7 337.9,357.1 337.9,346.6 341.8,348.3 	"/>
	<polygon class="st16" points="347.2,361 343.4,359.5 343.4,349 347.2,350.7 	"/>
	<polygon class="st16" points="363,367.5 359.3,366.1 359.3,355.9 363,357.5 	"/>
	<polygon class="st16" points="371.5,370.9 364.5,368.1 364.5,358.1 371.5,361 	"/>
	<polygon class="st16" points="265.8,439.1 257.9,437.2 257.9,425.3 265.8,427.3 	"/>
	<polygon class="st16" points="290.2,444.7 285.6,443.6 285.6,432.2 290.2,433.4 	"/>
	<polygon class="st16" points="284.1,443.3 279.4,442.2 279.4,430.7 284.1,431.9 	"/>
	<polygon class="st16" points="315.3,450.8 306.5,448.6 306.5,437.6 315.3,439.9 	"/>
	<polygon class="st16" points="332.9,455 328.8,454 328.8,443.3 332.9,444.4 	"/>
	<polygon class="st16" points="338.5,456.4 334.5,455.4 334.5,444.9 338.5,445.9 	"/>
	<polygon class="st16" points="354.7,460.4 351,459.5 351,449.2 354.7,450.1 	"/>
	<polygon class="st16" points="363.5,462.4 356.3,460.7 356.3,450.5 363.5,452.3 	"/>
	<polygon class="st16" points="258.8,577.2 250.7,577 250.7,564.9 258.8,565.3 	"/>
	<polygon class="st16" points="283.7,577.7 279,577.5 279,566 283.7,566.2 	"/>
	<polygon class="st16" points="277.5,577.6 268.8,577.3 268.8,565.6 277.5,566 	"/>
	<polygon class="st16" points="257.8,527.5 247.2,526.4 247.2,514.2 257.8,515.5 	"/>
	<polygon class="st16" points="278.8,529.7 274,529.2 274,517.5 278.8,518.1 	"/>
	<polygon class="st16" points="285.5,530.4 280.8,529.9 280.8,518.4 285.5,519 	"/>
	<polygon class="st16" points="304.7,532.5 300.2,532.1 300.2,520.9 304.7,521.4 	"/>
	<polygon class="st16" points="315,533.5 306.6,532.6 306.6,521.6 315,522.6 	"/>
	<polygon class="st16" points="260.8,199.1 255.7,196.1 255.7,184.1 260.8,187.3 	"/>
	<polygon class="st16" points="273,206.5 265.2,201.9 265.2,190 273,194.8 	"/>
	<polygon class="st16" points="288.2,215.4 283.6,212.6 283.6,201.1 288.2,203.9 	"/>
	<polygon class="st16" points="296.9,220.5 292.3,217.8 292.3,206.5 296.9,209.3 	"/>
	<polygon class="st16" points="321.5,235.3 312.8,230.1 312.8,219.2 321.5,224.5 	"/>
	<polygon class="st16" points="329.2,240 325.2,237.6 325.2,226.8 329.2,229.3 	"/>
	<polygon class="st16" points="344.2,249 340.3,246.7 340.3,236.2 344.2,238.6 	"/>
	<polygon class="st16" points="358.4,257.5 354.8,255.3 354.8,245.1 358.4,247.4 	"/>
	<polygon class="st16" points="368.7,263.7 361.7,259.5 361.7,249.4 368.7,253.7 	"/>
	<polygon class="st16" points="252.2,144.2 247.6,141 247.6,131 252.2,134.2 	"/>
	<polygon class="st16" points="257.9,148 253.3,144.9 253.3,135 257.9,138.2 	"/>
	<polygon class="st16" points="279.9,162.8 275.6,159.9 275.6,150.3 279.9,153.3 	"/>
	<polygon class="st16" points="286.7,167.4 282.5,164.6 282.5,155.1 286.7,158 	"/>
	<polygon class="st16" points="305.6,180.2 301.7,177.5 301.7,168.3 305.6,171 	"/>
	<polygon class="st16" points="314.1,185.8 311.4,183.9 311.4,174.9 314.1,176.8 	"/>
	<polygon class="st16" points="331.6,197.7 324.1,192.6 324.1,183.8 331.6,188.9 	"/>
	<polygon class="st16" points="339.8,203 332.5,198.1 332.5,189.4 339.8,194.4 	"/>
	<polygon class="st16" points="355.3,213.6 349.1,209.5 349.1,201 355.3,205.2 	"/>
	<polygon class="st16" points="371.5,224.7 368.4,222.5 368.4,214.3 371.5,216.5 	"/>
	<polygon class="st16" points="251.8,361.6 247.1,360 247.1,350 251.8,351.7 	"/>
	<polygon class="st16" points="257.5,363.6 252.9,362 252.9,352.1 257.5,353.8 	"/>
	<polygon class="st16" points="286.3,373.7 282.1,372.2 282.1,362.7 286.3,364.3 	"/>
	<polygon class="st16" points="305.2,380.4 301.3,379 301.3,369.8 305.2,371.2 	"/>
	<polygon class="st16" points="309.2,381.6 306.4,380.7 306.4,371.5 309.2,372.6 	"/>
	<polygon class="st16" points="331.3,389.5 323.8,386.9 323.8,378 331.3,380.7 	"/>
	<polygon class="st16" points="339.4,392.2 332.1,389.6 332.1,380.9 339.4,383.5 	"/>
	<polygon class="st16" points="354.9,397.8 348.7,395.6 348.7,387.1 354.9,389.4 	"/>
	<polygon class="st16" points="371.2,403.5 368.1,402.4 368.1,394.2 371.2,395.4 	"/>
	<polygon class="st16" points="362.9,293.4 359,291.4 359,283.5 362.9,285.6 	"/>
	<polygon class="st16" points="355.5,289.5 351.6,287.4 351.6,279.4 355.5,281.6 	"/>
	<polygon class="st16" points="335.4,278.6 331.2,276.3 331.2,268 335.4,270.4 	"/>
	<polygon class="st16" points="330.1,275.5 325.8,273.2 325.8,264.9 330.1,267.3 	"/>
	<polygon class="st16" points="314,267 309.4,264.5 309.4,255.9 314,258.5 	"/>
	<polygon class="st16" points="308.4,264 303.8,261.4 303.8,252.8 308.4,255.4 	"/>
	<polygon class="st16" points="293.9,256.1 289.1,253.5 289.1,244.6 293.9,247.3 	"/>
	<polygon class="st16" points="254.1,234.5 248.6,231.6 248.6,222.2 254.1,225.2 	"/>
	<polygon class="st16" points="263.8,239.8 256.3,235.7 256.3,226.4 263.8,230.6 	"/>
	<polygon class="st16" points="345.4,284 338.4,280.2 338.4,272 345.4,275.9 	"/>
	<polygon class="st16" points="370,334.7 365.5,332.6 365.5,323.5 370,325.8 	"/>
	<polygon class="st16" points="358.1,329 355.5,327.8 355.5,318.6 358.1,319.9 	"/>
	<polygon class="st16" points="328.4,315 324.9,313.3 324.9,303.9 328.4,305.6 	"/>
	<polygon class="st16" points="311.6,307 307.9,305.3 307.9,295.7 311.6,297.5 	"/>
	<polygon class="st16" points="296.1,299.5 289.9,296.5 289.9,286.6 296.1,289.7 	"/>
	<polygon class="st16" points="288.5,295.8 284.5,293.9 284.5,284 288.5,285.9 	"/>
	<polygon class="st16" points="276.6,290.2 272,288.1 272,277.9 276.6,280.1 	"/>
	<polygon class="st16" points="342.2,321.4 336.9,318.9 336.9,309.4 342.2,312 	"/>
	<polygon class="st16" points="374,424.3 371.1,423.4 371.1,431.3 374,432.2 	"/>
	<polygon class="st16" points="368.8,422.7 365.8,421.7 365.8,429.7 368.8,430.6 	"/>
	<polygon class="st16" points="358.4,419.6 355.3,418.6 355.3,426.7 358.4,427.7 	"/>
	<polygon class="st16" points="329.2,410.4 325.7,409.3 325.7,417.9 329.2,418.9 	"/>
	<polygon class="st16" points="283.1,395.9 274.3,393.1 274.3,402.4 283.1,405.1 	"/>
	<polygon class="st16" points="272.4,392.7 268.2,391.4 268.2,400.7 272.4,402 	"/>
	<polygon class="st16" points="254.2,386.9 249.8,385.5 249.8,395.1 254.2,396.4 	"/>
	<polygon class="st16" points="299.9,401.4 296,400.2 296,409.1 299.9,410.3 	"/>
	<polygon class="st16" points="322.3,408.3 318.8,407.1 318.8,415.8 322.3,416.9 	"/>
	<polygon class="st16" points="341.7,414.3 338.4,413.3 338.4,421.6 341.7,422.6 	"/>
	<polygon class="st16" points="348.5,416.5 342.5,414.6 342.5,422.9 348.5,424.7 	"/>
</g>
<line class="st17" x1="292.7" y1="503.3" x2="292.7" y2="503.3"/>
<polygon class="st3" points="625.7,631 306.3,622.1 306.3,444.3 625.7,388 "/>
<polyline class="st0" points="251.1,496.2 532.9,459.2 585.2,479.4 309,508.2 "/>
<path class="st18" d="M598.2,542.7c0,10-8.6,18.4-19,18.8c-10.2,0.4-18.4-7.1-18.4-16.8s8.2-18.1,18.4-18.8
	C589.6,525.2,598.2,532.7,598.2,542.7L598.2,542.7z"/>
<line class="st19" x1="579.2" y1="527" x2="579.2" y2="560.4"/>
<line class="st19" x1="561.9" y1="544.7" x2="597.2" y2="542.7"/>
<polygon class="st8" points="585.2,479.4 532.9,459.2 532.9,404.9 585.2,432.5 "/>
<g>
	<path class="st1" d="M252,496.8c-0.5,0-1-0.2-1.3-0.5c-0.4-0.4-0.7-0.9-0.7-1.5v-40.1c0-1,0.7-1.8,1.7-2l280.7-48.5
		c0.1,0,0.2,0,0.3,0c0.5,0,0.9,0.2,1.3,0.5c0.5,0.4,0.7,0.9,0.7,1.5v51.9c0,1-0.8,1.9-1.7,2l-280.7,36.8
		C252.1,496.8,252.1,496.8,252,496.8L252,496.8z"/>
	<path class="st20" d="M532.7,406.2v51.9L252,494.8v-40.1L532.7,406.2 M532.7,402.2c-0.2,0-0.5,0-0.7,0.1l-280.7,48.5
		c-1.9,0.3-3.3,2-3.3,3.9v40.1c0,1.1,0.5,2.2,1.4,3c0.7,0.6,1.7,1,2.6,1c0.2,0,0.4,0,0.5,0l280.7-36.8c2-0.3,3.5-2,3.5-4v-51.9
		c0-1.2-0.5-2.3-1.4-3.1C534.5,402.6,533.6,402.2,532.7,402.2L532.7,402.2L532.7,402.2z"/>
	<path class="st21" d="M256,491.3c-0.2,0-0.5-0.1-0.7-0.2c-0.2-0.2-0.3-0.5-0.3-0.8v-32.2c0-0.5,0.4-0.9,0.8-1L528.5,410
		c0.1,0,0.1,0,0.2,0c0.2,0,0.5,0.1,0.6,0.2c0.2,0.2,0.4,0.5,0.4,0.8v43.6c0,0.5-0.4,0.9-0.9,1l-272.7,35.7
		C256.1,491.3,256,491.3,256,491.3L256,491.3z"/>
	<path class="st20" d="M528.7,411v43.6L256,490.3v-32.2L528.7,411 M528.7,409c-0.1,0-0.2,0-0.3,0l-272.7,47.1c-1,0.2-1.7,1-1.7,2
		v32.2c0,0.6,0.2,1.1,0.7,1.5c0.4,0.3,0.8,0.5,1.3,0.5c0.1,0,0.2,0,0.3,0l272.7-35.7c1-0.1,1.7-1,1.7-2V411c0-0.6-0.3-1.1-0.7-1.5
		C529.6,409.1,529.1,409,528.7,409L528.7,409L528.7,409z"/>
	<path class="st20" d="M271.7,479.8c0.3,0,0.4,0.2,0.4,0.6c0,0.4-0.2,0.8-0.6,1.3c-0.8,0.8-1.4,1.4-2,1.7c-1,0.6-2,0.9-3.1,1.1
		s-2.1,0-3.1-0.4c-1-0.4-1.8-1.1-2.5-2c-1.5-1.9-2.2-4.5-2.2-7.8c0-1.6,0.2-3.1,0.6-4.5c0.4-1.4,1-2.6,1.7-3.7
		c1.5-2.3,3.5-3.6,5.8-4c1.3-0.2,2.5-0.1,3.5,0.4c1.1,0.5,1.6,1,1.6,1.5c0,0.2,0,0.4-0.1,0.5s-0.2,0.2-0.3,0.3
		c-0.2,0-0.4-0.1-0.6-0.3c-0.2-0.3-0.4-0.5-0.8-0.7c-0.3-0.2-0.7-0.3-1-0.5c-0.8-0.2-1.5-0.3-2.1-0.2s-1.1,0.2-1.5,0.4v19.7
		c0.5,0,0.9,0,1.3,0s0.8-0.1,1.2-0.3c0.4-0.1,0.8-0.3,1.2-0.5c0.9-0.5,1.5-1.1,1.9-1.9c0.2-0.3,0.3-0.5,0.4-0.6
		S271.5,479.8,271.7,479.8L271.7,479.8z"/>
	<path class="st20" d="M276.5,481.7c-0.2-0.2-0.5-0.4-0.7-0.6c-0.2-0.2-0.3-0.4-0.3-0.7c0-0.5,0.1-0.8,0.4-0.8
		c0.2,0,0.4,0.1,0.6,0.4c0.2,0.3,0.5,0.5,0.8,0.7c0.3,0.2,0.6,0.4,1,0.5c0.7,0.2,1.4,0.3,2,0.2s1.1-0.2,1.4-0.4s0.6-0.4,0.8-0.6
		c0.5-0.5,0.7-1.1,0.7-1.8c0-0.6-0.2-1.2-0.6-1.8c-0.4-0.5-0.9-1-1.5-1.7l-1.9-1.8c-1.9-1.8-3-3.5-3.3-5.1c-0.1-0.6-0.2-1.2-0.2-2
		s0.1-1.5,0.3-2.2c0.2-0.7,0.6-1.4,1-2c1-1.3,2.3-2.1,4-2.4c0.9-0.1,1.6-0.1,2.3,0.2c0.7,0.2,1.1,0.5,1.4,0.7
		c0.2,0.2,0.4,0.5,0.4,0.7c0,0.5-0.1,0.8-0.4,0.8c-0.2,0-0.3-0.1-0.5-0.3s-0.4-0.4-0.6-0.5c-0.2-0.1-0.5-0.2-0.8-0.3
		c-0.6-0.2-1.2-0.2-1.8-0.1c-1.1,0.2-1.6,0.8-1.6,1.8c0,0.4,0.1,0.8,0.3,1.1c0.4,0.6,1,1.4,2.1,2.4s1.9,1.9,2.5,2.7
		c0.6,0.8,1.1,1.5,1.4,2.2c0.5,1,0.8,2.2,0.8,3.4s-0.1,2.3-0.5,3.1c-0.3,0.9-0.7,1.7-1.3,2.4c-1.1,1.4-2.5,2.3-4.2,2.5
		S277.6,482.4,276.5,481.7L276.5,481.7z"/>
	<path class="st20" d="M291,479.6c-0.3-0.2-0.5-0.4-0.7-0.6c-0.2-0.2-0.3-0.4-0.3-0.7c0-0.5,0.1-0.8,0.5-0.8c0.2,0,0.4,0.1,0.7,0.4
		c0.2,0.3,0.5,0.5,0.8,0.7c0.3,0.2,0.6,0.4,1,0.5c0.8,0.2,1.4,0.3,2.1,0.2s1.1-0.2,1.5-0.4s0.6-0.4,0.9-0.6c0.5-0.5,0.8-1.1,0.8-1.8
		c0-0.6-0.2-1.2-0.6-1.8c-0.4-0.5-0.9-1.1-1.5-1.7l-1.9-1.8c-1.9-1.8-3.1-3.5-3.4-5.2c-0.1-0.6-0.2-1.2-0.2-2s0.1-1.5,0.4-2.2
		c0.2-0.8,0.6-1.4,1-2.1c1-1.3,2.4-2.1,4.1-2.4c0.9-0.1,1.7-0.1,2.4,0.1s1.2,0.5,1.5,0.7c0.3,0.2,0.4,0.5,0.4,0.7
		c0,0.5-0.1,0.8-0.4,0.8c-0.2,0-0.4-0.1-0.5-0.3s-0.4-0.4-0.6-0.5c-0.2-0.1-0.5-0.2-0.8-0.3c-0.6-0.2-1.3-0.2-1.9-0.1
		c-1.1,0.2-1.7,0.8-1.7,1.8c0,0.4,0.1,0.8,0.3,1.2c0.4,0.6,1.1,1.4,2.1,2.4s1.9,2,2.6,2.8c0.6,0.8,1.1,1.5,1.5,2.2
		c0.5,1.1,0.8,2.2,0.8,3.5s-0.2,2.3-0.5,3.2c-0.3,0.9-0.8,1.7-1.3,2.4c-1.2,1.5-2.6,2.3-4.4,2.6S292.1,480.4,291,479.6L291,479.6z"
		/>
	<path class="st20" d="M324.4,474.7c0.4-0.1,0.6,0.1,0.6,0.6c0,0.2-0.1,0.4-0.3,0.6c-0.2,0.2-0.5,0.3-1,0.4l-11.8,1.6l6.2-22.8
		l-3,0.5c-0.6,0.1-1,0.2-1.3,0.3c-0.3,0.1-0.5,0.2-0.6,0.2c-0.4,0.1-0.6-0.1-0.6-0.5c0-0.5,0.4-0.8,1.2-1l10.8-1.8l-6.2,23l4-0.6
		c0.6-0.1,1-0.2,1.3-0.3C324,474.8,324.2,474.7,324.4,474.7L324.4,474.7z"/>
	<path class="st20" d="M340.4,472.5c0.4-0.1,0.6,0.1,0.6,0.6c0,0.2-0.1,0.4-0.3,0.6c-0.2,0.2-0.5,0.3-1,0.4l-10.6,1.5V452l9.8-1.6
		l1-0.2c0.6-0.1,1,0.1,1,0.6c0,0.2,0,0.4-0.2,0.6c-0.1,0.2-0.2,0.3-0.4,0.3c-0.2,0-0.5,0-0.7,0c-0.4,0-0.9,0-1.5,0.1l-2.8,0.5v5.1
		l2.3-0.4l1.5-0.3c0.2,0,0.3,0,0.5,0.1s0.2,0.2,0.2,0.5c0,0.5-0.2,0.7-0.7,0.8l-0.5,0.1c-0.3,0-0.5,0-0.7,0.1l-2.6,0.4v14.9l2.8-0.4
		c0.6-0.1,1.1-0.2,1.3-0.3C339.9,472.6,340.2,472.5,340.4,472.5L340.4,472.5z"/>
	<path class="st20" d="M346.9,470.6l0,1.7c0,0.3-0.1,0.5-0.2,0.7s-0.3,0.3-0.4,0.3s-0.3,0-0.4-0.2c-0.1-0.1-0.2-0.3-0.2-0.5
		s0-0.3,0-0.5s0-0.3,0.1-0.5c0-0.3,0.1-1.1,0.1-2.5v-21l14.1,12.4v-10.2c0-0.8,0-1.3,0-1.7c0-0.5-0.1-0.9-0.1-1.1
		c0-0.6,0.2-0.9,0.6-1c0.1,0,0.3,0,0.4,0.1c0.1,0.1,0.2,0.3,0.2,0.6v0.6l0,2.5V472l-14.2-12.5V470.6z"/>
	<path class="st20" d="M392.7,465.4l0-1.2v-2.8c-1.3,3-3.3,5-5.9,6.1c-0.8,0.4-1.8,0.6-2.8,0.8s-2.2,0-3.3-0.4s-2.1-1.1-3-2
		c-1.9-2-2.8-4.9-2.8-8.7s1-6.8,3-9.6c2.1-2.9,4.7-4.6,7.8-5.2c1.6-0.3,3.1-0.1,4.4,0.4c0.8,0.3,1.4,0.6,1.7,1
		c0.3,0.3,0.5,0.6,0.5,0.8s-0.1,0.4-0.2,0.6c-0.1,0.2-0.3,0.3-0.5,0.3s-0.4-0.1-0.7-0.3c-0.7-0.7-1.4-1.1-1.9-1.3s-1-0.3-1.3-0.3
		c-0.3,0-0.6-0.1-0.9-0.1c-0.4,0-0.9,0-1.4,0.1s-1.1,0.2-1.5,0.4v22.8c0.1,0,0.2,0,0.3,0l0.3,0c2.8-0.4,5-2,6.8-4.9
		c0.6-1,1.1-2.1,1.5-3.5v-1.7l-0.1-1.6c0-0.6,0.2-1,0.6-1c0.2,0,0.4,0,0.5,0.2c0.1,0.2,0.2,0.4,0.2,0.6l-0.1,1.5v6.6l0.1,2.8
		c0,0.3-0.1,0.5-0.2,0.7c-0.1,0.2-0.3,0.3-0.5,0.3c-0.4,0.1-0.6-0.2-0.6-0.7C392.7,465.9,392.7,465.7,392.7,465.4L392.7,465.4z"/>
	<path class="st20" d="M404.7,461.8c-1.8,0.2-3,0.4-3.6,0.5l-0.4,1.3c-0.1,0.4-0.2,0.8-0.4,1.1c-0.2,0.8-0.5,1.2-0.9,1.2
		c-0.2,0-0.3,0-0.5-0.1c-0.1-0.1-0.2-0.3-0.2-0.4c0-0.3,0.1-0.6,0.3-0.9c0.3-0.5,0.6-1.2,0.9-2.1c-0.8,0-1.2-0.2-1.2-0.7
		s0.2-0.8,0.7-0.9c0.3,0,0.6,0,1,0l7.3-23l10.1,25.3l-7.8,1.1l-1.2-3L404.7,461.8L404.7,461.8z M401.5,460.8c0.9,0,1.8-0.1,2.5-0.2
		l4.3-0.6l-3.7-9.2L401.5,460.8L401.5,460.8z"/>
	<path class="st20" d="M433.3,452l1.3-0.1c1.8-0.3,3.4-1.3,4.7-3c1.3-1.7,1.9-3.7,1.9-6c0-3-1.1-5-3.3-6.1c-1.2-0.6-2.5-0.9-3.9-0.8
		c-0.6,0-1.1,0.1-1.6,0.2l-1,0.2c-0.2,0-0.4,0.1-0.6,0.1v24.9l-7.8,1.1v-26l5.8-1c1.5-0.2,2.5-0.4,2.9-0.5s0.9-0.1,1.2-0.1
		c0.4,0,0.7-0.1,1-0.1c0.5,0,1.1,0,1.9,0s1.7,0.3,2.5,0.6c0.8,0.4,1.5,0.9,2.1,1.6c1.3,1.4,1.9,3.3,1.9,5.6s-0.6,4.3-1.8,6.2
		c-1.2,1.9-2.9,3.3-4.9,4.1c1,3.4,2.2,5.4,3.7,5.9c0.5,0.1,0.9,0.2,1.4,0.1l1.2-0.5c0.4,0,0.6,0.2,0.6,0.6c0,0.7-0.6,1.1-2,1.3
		c-0.9,0.1-1.8-0.1-2.6-0.6c-1.2-0.7-2.2-2.2-3.1-4.6l-0.5-1.3c-0.1-0.2-0.1-0.3-0.2-0.4c-0.1,0-0.2,0-0.3,0s-0.3,0-0.4,0.1
		l-0.4,0.1c-0.4,0.1-0.7,0-0.8-0.2s-0.2-0.3-0.2-0.5C432.3,452.5,432.6,452.1,433.3,452L433.3,452z"/>
	<path class="st20" d="M448.7,432.2l6.7-1.1c3.2-0.5,5.5-0.6,7-0.4c1.7,0.3,3,0.9,4,1.7c0.9,0.8,1.7,1.7,2.2,2.6
		c1.1,1.9,1.6,4.2,1.6,6.9c0,4.2-1.3,7.8-3.9,10.7c-1.8,2.1-4,3.6-6.4,4.3c-1.4,0.4-3.3,0.8-5.7,1.1l-5.4,0.8V432.2z M456.9,456.2
		c0.2,0,0.3,0,0.5,0l0.4,0c3-0.4,5.5-1.9,7.6-4.3c2.2-2.6,3.4-5.8,3.4-9.6c0-2.4-0.5-4.5-1.5-6.2c-1.4-2.5-3.7-3.9-6.7-4
		c-1,0-2.2,0.1-3.6,0.3L456.9,456.2L456.9,456.2z"/>
	<path class="st20" d="M492.3,451.2c0.6-0.1,0.9,0.1,0.9,0.7c0,0.2-0.1,0.5-0.4,0.7c-0.3,0.2-0.7,0.4-1.3,0.5l-14.5,2v-27.5
		c4.5-0.7,9-1.5,13.5-2.2l1.4-0.3c0.9-0.1,1.3,0.1,1.3,0.6c0,0.2-0.1,0.4-0.2,0.7c-0.2,0.2-0.3,0.3-0.5,0.4c-0.3,0-0.6,0.1-1,0
		c-0.5,0-1.2,0-2,0.2l-3.8,0.6v6l3.2-0.5l2.1-0.4c0.3,0,0.5,0,0.7,0.1c0.2,0.1,0.3,0.3,0.3,0.5c0,0.5-0.3,0.9-1,1l-0.8,0.1
		c-0.4,0-0.7,0-1,0.1l-3.5,0.5v17.5l3.8-0.5c0.9-0.1,1.5-0.2,1.8-0.4C491.7,451.3,492.1,451.2,492.3,451.2L492.3,451.2z"/>
	<path class="st20" d="M501.3,448.8l0,2c0,0.3-0.1,0.6-0.2,0.8s-0.4,0.3-0.6,0.4s-0.4,0-0.6-0.2c-0.2-0.1-0.2-0.3-0.2-0.5
		s0-0.4,0-0.6c0-0.2,0.1-0.4,0.1-0.6c0.1-0.4,0.1-1.4,0.1-2.9v-24.7l19.6,14.2v-12.1c0-0.9,0-1.6-0.1-2c-0.1-0.6-0.1-1.1-0.1-1.3
		c0-0.7,0.3-1.1,0.8-1.1c0.2,0,0.4,0,0.6,0.1s0.3,0.4,0.3,0.7v0.7l-0.1,3V450l-19.7-14.3L501.3,448.8L501.3,448.8z"/>
</g>
<g>
	<path class="st9" d="M608.2,430.2c-0.5-0.4-1.4-0.4-2.6-0.1c-0.5,0.1-1,0.3-1.3,0.5v9.7c0.2,0,0.3-0.1,0.5-0.1
		c1.4-0.4,2.6-1,3.4-1.9c0.8-0.8,1.2-1.7,1.2-2.6c0-0.8-0.3-1.4-0.8-1.7c-0.5-0.3-1.3-0.4-2.2-0.1c-0.3,0.1-0.5,0.2-0.7,0.2
		c-0.4,0.2-0.7,0.3-0.8,0.3c-0.1,0-0.1,0-0.2-0.1s0-0.2,0.1-0.2s0.2-0.1,0.3-0.2c0.3-0.2,0.7-0.3,1.3-0.5s1-0.2,1.5-0.2
		s0.8,0.1,1.2,0.3c0.7,0.4,1.1,1.1,1.1,2.2c0,1.2-0.5,2.2-1.6,3.2c-1,0.9-2.2,1.5-3.6,1.9c-1.6,0.4-2.9,0.3-3.8-0.2
		c-1.1-0.6-1.6-1.8-1.6-3.5s0.6-3.3,1.8-4.6c1.1-1.3,2.5-2.1,4.3-2.6c1-0.3,2-0.4,2.7-0.2c0.6,0.1,0.9,0.3,0.9,0.6
		c0,0.2-0.1,0.3-0.3,0.3c-0.1,0-0.2,0-0.3,0L608.2,430.2L608.2,430.2z"/>
	<path class="st9" d="M601.3,452.8c0.9-0.6,1.9-1,2.8-1.2s1.7-0.3,2.4-0.3s1.2,0.2,1.7,0.4c0.9,0.5,1.4,1.3,1.4,2.3s-0.5,2.1-1.5,3
		c-1,1-2.4,1.7-4,2.1c-1.2,0.3-2.3,0.2-3.4-0.1c-0.4-0.1-0.7-0.3-0.8-0.5c0-0.1-0.1-0.1-0.1-0.2c0-0.2,0.1-0.4,0.3-0.4
		s0.4,0,0.5,0.2s0.3,0.3,0.5,0.4s0.5,0.2,0.8,0.2c0.7,0.1,1.4,0.1,2.2-0.1l0.3-0.1c0.1,0,0.2,0,0.2-0.1v-6.4c-0.2,0-0.5,0.1-0.8,0.2
		s-0.7,0.2-1.2,0.4s-0.8,0.4-1.1,0.6c-0.3,0.2-0.5,0.4-0.7,0.4s-0.2,0-0.3,0s-0.1-0.1-0.1-0.2l0.5-3.5c0,0,0-0.1,0-0.1v-0.1
		c0-0.3,0-0.4,0.1-0.5c0.1-0.1,0.2-0.1,0.4-0.2l1.3-0.2l1.8-0.4c1.5-0.4,2.6-0.7,3.2-0.9c0,0,0.1,0,0.2-0.1s0.2,0,0.2,0
		s0.1,0.1,0.1,0.2c0,0.2-0.3,0.4-1,0.6c-0.2,0-0.3,0.1-0.5,0.1l-5.1,1.2L601.3,452.8L601.3,452.8z"/>
	<path class="st9" d="M599.3,476.2l-0.4,0.1l-0.1,0c-0.2,0-0.3,0-0.4,0s-0.2-0.1-0.2-0.3s0-0.2,0-0.3s0.1-0.2,0.1-0.3
		s0.1-0.2,0.2-0.3l6-8.5l3.8-0.8v8c0.8-0.2,1.2-0.3,1.3-0.3c0.2-0.1,0.4-0.1,0.5-0.2s0.2,0,0.3,0s0.1,0.1,0.1,0.2
		c0,0.2-0.2,0.4-0.6,0.5c-0.2,0.1-0.6,0.1-1,0.2l-0.7,0.1v2.1l-4.7,1v-2.1C602.2,475.6,600.7,475.9,599.3,476.2L599.3,476.2z
		 M603.7,474.8V469l-4.5,6.5c-0.1,0.1-0.1,0.2-0.1,0.2s0.2,0,0.3,0L603.7,474.8L603.7,474.8z"/>
</g>
<polygon class="st22" points="445.3,624.6 393.7,623.2 393.7,536.8 445.3,533.4 "/>
<polygon class="st8" points="732.8,619.2 625.4,631 625.4,388.6 732.8,463.6 "/>
<polygon class="st22" points="379.3,622.9 334.1,621.7 334.1,540.6 379.3,537.8 "/>
<line class="st19" x1="356.3" y1="538.2" x2="356.3" y2="621.1"/>
<polygon class="st23" points="180,621.4 146,620.2 146,556.3 180,554.4 "/>
<line class="st24" x1="162.7" y1="554.6" x2="162.7" y2="619.9"/>
<line class="st19" x1="419" y1="534.4" x2="419" y2="623.2"/>
<polygon class="st22" points="519.2,626.7 459.9,625.1 459.9,532.6 519.2,528.8 "/>
<line class="st19" x1="488.5" y1="531.2" x2="488.5" y2="626.3"/>
<line class="st14" x1="779" y1="622.8" x2="809.8" y2="617.5"/>
<line class="st14" x1="729.9" y1="631.2" x2="803.6" y2="618.2"/>
<polygon class="st8" points="765.2,615.5 732.8,619.1 732.8,218.3 765.2,282 "/>
<path class="st5" d="M655.3,117.3l-114.5,45.4c-0.1,0-0.2,0-0.2-0.1v-7.3c0-0.1,0-0.1,0.1-0.1L655.2,109c0.1,0,0.2,0,0.2,0.1v8.1
	C655.4,117.3,655.4,117.3,655.3,117.3L655.3,117.3z"/>
<path class="st9" d="M654.8,132.1l-114.4,44c-0.1,0-0.2,0-0.2-0.1v-4.4c0,0,0-0.1,0.1-0.1l114.4-44.5c0.1,0,0.2,0,0.2,0.1
	L654.8,132.1C654.9,132,654.8,132.1,654.8,132.1L654.8,132.1z"/>
<polygon class="st16" points="222.4,324.5 228.8,322.3 228.8,310.6 222.4,312.9 "/>
<polygon class="st16" points="233.8,141.5 228.2,144.7 228.2,134.2 233.8,130.9 "/>
<polygon class="st16" points="219.4,150 209.3,155.8 209.3,145.6 219.4,139.6 "/>
<polygon class="st16" points="206.5,157.5 200.3,161 200.3,150.9 206.5,147.2 "/>
<polygon class="st16" points="182.7,171.2 176.9,174.6 176.9,164.9 182.7,161.4 "/>
<polygon class="st16" points="175.2,175.6 169.6,178.8 169.6,169.1 175.2,165.8 "/>
<polygon class="st16" points="162.9,182.7 153.4,188.1 153.4,178.9 162.9,173.3 "/>
<polygon class="st16" points="143.1,194 137.2,197.4 137.2,188.1 143.1,184.6 "/>
<polygon class="st16" points="124.6,204.9 115.1,210.4 115.1,201.2 124.6,195.6 "/>
<polygon class="st16" points="113.5,211 108.2,214.1 108.2,204.9 113.5,201.7 "/>
<polygon class="st16" points="235.2,191.3 228.8,194.6 228.8,182.1 235.2,178.7 "/>
<polygon class="st16" points="227,195.6 215,201.8 215,189.3 227,182.9 "/>
<polygon class="st16" points="199.6,209.7 193.1,213.1 193.1,201.1 199.6,197.6 "/>
<polygon class="st16" points="175.2,222.4 169.1,225.5 169.1,213.8 175.2,210.6 "/>
<polygon class="st16" points="167.1,226.5 161.3,229.5 161.3,218 167.1,214.9 "/>
<polygon class="st16" points="150.5,235.1 139.4,240.8 139.4,229.5 150.5,223.6 "/>
<polygon class="st16" points="137.6,241.7 126.7,247.3 126.7,236.2 137.6,230.4 "/>
<polygon class="st16" points="125,248.2 119,251.3 119,240.4 125,237.2 "/>
<polygon class="st16" points="107.2,257.4 100.9,260.6 100.9,250.1 107.2,246.7 "/>
<g>
	<polygon class="st16" points="221,236.4 226.1,234.1 226.1,225.8 221,228.3 	"/>
	<polygon class="st16" points="214.4,239.5 219.4,237.2 219.4,229 214.4,231.4 	"/>
	<polygon class="st16" points="193.9,249.1 201.7,245.4 201.7,237.3 193.9,241.1 	"/>
	<polygon class="st16" points="188.1,251.8 192.3,249.8 192.3,241.8 188.1,243.9 	"/>
	<polygon class="st16" points="167,261.5 176.1,257.4 176.1,249.5 167,253.8 	"/>
	<polygon class="st16" points="151.4,268.9 160.1,264.9 160.1,257.1 151.4,261.3 	"/>
	<polygon class="st16" points="135.5,276.2 139.9,274.2 139.9,266.6 135.5,268.8 	"/>
	<polygon class="st16" points="126.4,280.3 133.7,276.9 133.7,269.7 126.4,273.2 	"/>
</g>
<g>
	<polygon class="st16" points="236.6,275.9 228,279.4 228,268.1 236.6,264.5 	"/>
	<polygon class="st16" points="226.2,280.1 220.6,282.4 220.6,271.2 226.2,268.9 	"/>
	<polygon class="st16" points="191.4,294.4 185.8,296.7 185.8,286 191.4,283.7 	"/>
	<polygon class="st16" points="182.5,298 176.8,300.3 176.8,289.6 182.5,287.3 	"/>
	<polygon class="st16" points="162.4,306.1 150.1,311.1 150.1,300.8 162.4,295.6 	"/>
	<polygon class="st16" points="148,311.9 142.1,314.3 142.1,304.3 148,301.8 	"/>
	<polygon class="st16" points="125.1,321.3 118.7,323.9 118.7,314.1 125.1,311.4 	"/>
</g>
<polygon class="st16" points="206.6,330 219,325.6 219,314.2 206.6,318.8 "/>
<polygon class="st16" points="173.9,341.4 180.9,339 180.9,328 173.9,330.6 "/>
<polygon class="st16" points="163.6,345.3 170.9,342.8 170.9,331.6 163.6,334.3 "/>
<polygon class="st16" points="131.9,356.5 137.5,354.5 137.5,344.1 131.9,346.1 "/>
<polygon class="st16" points="102.5,367 114.8,362.6 114.8,352.4 102.5,357 "/>
<polygon class="st16" points="229,362.1 221.9,364.2 221.9,353.9 229,351.7 "/>
<polygon class="st16" points="210.2,367.6 198.5,371.1 198.5,360.9 210.2,357.2 "/>
<polygon class="st16" points="196.1,371.9 189.6,373.8 189.6,363.9 196.1,361.9 "/>
<polygon class="st16" points="164.7,381.3 158.2,383.3 158.2,373.7 164.7,371.7 "/>
<polygon class="st16" points="156.5,383.8 149.9,385.8 149.9,376.4 156.5,374.4 "/>
<polygon class="st16" points="129.3,392.2 123.3,394 123.3,384.7 129.3,382.8 "/>
<polygon class="st16" points="111.1,397.6 100.6,400.8 100.6,392 111.1,388.7 "/>
<polygon class="st16" points="220.6,398.7 214.7,400.2 214.7,390.5 220.6,389 "/>
<polygon class="st16" points="212.7,400.6 200,403.9 200,394.4 212.7,391 "/>
<polygon class="st16" points="171.3,411.2 165.9,412.6 165.9,403.9 171.3,402.5 "/>
<polygon class="st16" points="147,417.5 141.4,418.9 141.4,410.3 147,408.8 "/>
<polygon class="st16" points="118.2,425.3 106.6,428.3 106.6,419.5 118.2,416.3 "/>
<polygon class="st16" points="126.2,422.9 120.4,424.4 120.4,415.8 126.2,414.2 "/>
<g>
	<polygon class="st16" points="224,437.3 233.3,435.4 233.3,422.8 224,424.8 	"/>
	<polygon class="st16" points="210.2,440.4 201.8,442.1 201.8,429.8 210.2,427.9 	"/>
	<polygon class="st16" points="184.7,445.5 171.3,448.3 171.3,436.5 184.7,433.6 	"/>
	<polygon class="st16" points="168.8,448.8 160.4,450.5 160.4,439.1 168.8,437.2 	"/>
	<polygon class="st16" points="145.4,453.7 139.2,454.9 139.2,443.8 145.4,442.4 	"/>
	<polygon class="st16" points="117.4,459.5 110.6,460.9 110.6,450 117.4,448.5 	"/>
</g>
<g>
	<polygon class="st16" points="220,528.3 211.8,529 211.8,516.3 220,515.4 	"/>
	<polygon class="st16" points="208.6,529 192,530.5 192,518.5 208.6,516.7 	"/>
	<polygon class="st16" points="176.9,532.4 169.5,533.1 169.5,520.8 176.9,520 	"/>
	<polygon class="st16" points="144.8,535 137.9,535.7 137.9,524.3 144.8,523.6 	"/>
	<polygon class="st16" points="123,536.8 110.3,538 110.3,527.4 123,526.1 	"/>
</g>
<g>
	<polygon class="st16" points="225.4,482.6 217.1,483.8 217.1,470.8 225.4,469.5 	"/>
	<polygon class="st16" points="177.9,490 170.5,491.1 170.5,478.7 177.9,477.4 	"/>
	<polygon class="st16" points="167.7,491.4 153.7,493.5 153.7,481.6 167.7,479.3 	"/>
	<polygon class="st16" points="122.5,498.3 115.3,499.4 115.3,488.2 122.5,487 	"/>
	<polygon class="st16" points="110.7,500.1 103.2,501.2 103.2,490.1 110.7,488.9 	"/>
</g>
<line class="st25" x1="465.4" y1="135" x2="490.6" y2="164.9"/>
<line class="st25" x1="460" y1="89.5" x2="487.3" y2="123.5"/>
<line class="st25" x1="454.7" y1="45.7" x2="482.8" y2="84"/>
<line class="st25" x1="405.2" y1="161.8" x2="465.3" y2="135"/>
<line class="st25" x1="409.2" y1="116.6" x2="459.9" y2="89.4"/>
<line class="st25" x1="414" y1="71.7" x2="454.6" y2="45.7"/>
<polygon class="st26" points="23.4,627 625.4,668.3 625.4,658.2 23.3,620.5 "/>
<polygon class="st27" points="813.2,619.4 625.6,668 625.6,658 813.2,615 "/>
<g>
	<polygon class="st28" points="730.8,618.9 700,621.8 700,543.9 730.8,551 	"/>
	<line class="st19" x1="716.7" y1="547.8" x2="716.7" y2="620.1"/>
</g>
<g>
	<polygon class="st28" points="693.5,623.2 648.5,627.6 648.5,531.8 693.5,542.2 	"/>
	<line class="st19" x1="673.2" y1="537.6" x2="673.2" y2="624.5"/>
</g>
<g>
	<polygon class="st28" points="757.5,615.8 735.1,617.8 735.1,551.9 757.5,557.1 	"/>
	<line class="st19" x1="747.1" y1="554.8" x2="747.1" y2="616"/>
</g>
<polygon class="st1" points="744.1,326 737.8,316.5 737.8,290.7 744.1,301.1 "/>
<polygon class="st1" points="753.6,340.2 747.9,331.7 747.9,307.3 753.6,316.6 "/>
<polygon class="st1" points="761.8,352.3 756.6,344.5 756.6,321.4 761.8,329.8 "/>
<polygon class="st1" points="744.1,366.4 737.8,358.3 737.8,332.6 744.1,341.6 "/>
<polygon class="st1" points="753.6,378.5 747.9,371.3 747.9,346.9 753.6,355 "/>
<polygon class="st1" points="761.8,388.8 756.6,382.2 756.6,359 761.8,366.3 "/>
<polygon class="st1" points="744.1,407.7 737.8,401.1 737.8,375.3 744.1,382.9 "/>
<polygon class="st1" points="753.6,417.7 747.9,411.7 747.9,387.4 753.6,394.1 "/>
<polygon class="st1" points="761.8,426 756.6,420.6 756.6,397.5 761.8,403.6 "/>
<polygon class="st1" points="744.1,447.4 737.8,442.1 737.8,416.4 744.1,422.5 "/>
<polygon class="st1" points="753.6,455.3 747.9,450.6 747.9,426.2 753.6,431.7 "/>
<polygon class="st1" points="761.8,461.9 756.6,457.6 756.6,434.4 761.8,439.4 "/>
<polygon class="st16" points="655.9,486.2 638.2,478.8 638.2,437 655.9,447 "/>
<polygon class="st16" points="679,495.8 664.2,489.6 664.2,451.6 679,459.9 "/>
<polygon class="st16" points="698.6,505.1 685.2,499.6 685.2,462.1 698.6,469.7 "/>
<polygon class="st16" points="715.1,511.9 703.6,507.1 703.6,472.5 715.1,479 "/>
<polygon class="st16" points="729.7,517.8 719.8,513.8 719.8,481.7 729.7,487.3 "/>
<polygon class="st16" points="741.8,522.8 733.1,519.2 733.1,489.2 741.8,494.1 "/>
<polygon class="st16" points="752.4,527.2 744.8,524 744.8,495.8 752.4,500.2 "/>
<polygon class="st16" points="762.2,531.2 755.4,528.4 755.4,501.9 762.2,505.7 "/>
<g>
	<polygon class="st16" points="560.6,201.5 552.1,204.5 552.1,191 560.6,187.9 	"/>
	<polygon class="st16" points="576,195.9 567.2,199 567.2,185.3 576,182.1 	"/>
	<polygon class="st16" points="591.3,190.4 582.3,193.6 582.3,179.8 591.3,176.4 	"/>
	<polygon class="st16" points="607.5,184.5 598.3,187.8 598.3,173.7 607.5,170.4 	"/>
	<polygon class="st16" points="624.5,178.9 614.7,182.4 614.7,167.6 624.5,163.9 	"/>
	<polygon class="st16" points="642.5,172.5 632.3,176.2 632.3,161.1 642.5,157.3 	"/>
</g>
<g>
	<polygon class="st16" points="560.6,232.7 552.1,235.5 552.1,222 560.6,219.1 	"/>
	<polygon class="st16" points="576,227.5 567.2,230.4 567.2,216.7 576,213.7 	"/>
	<polygon class="st16" points="591.3,222.4 582.3,225.4 582.3,211.5 591.3,208.4 	"/>
	<polygon class="st16" points="607.5,216.9 598.3,220 598.3,205.9 607.5,202.7 	"/>
	<polygon class="st16" points="624.5,211.8 614.7,215 614.7,200.1 624.5,196.8 	"/>
	<polygon class="st16" points="642.5,205.8 632.3,209.2 632.3,194.1 642.5,190.6 	"/>
</g>
<g>
	<polygon class="st16" points="560.6,263.7 552.1,266.2 552.1,252.7 560.6,250.1 	"/>
	<polygon class="st16" points="576,259 567.2,261.6 567.2,247.9 576,245.2 	"/>
	<polygon class="st16" points="591.3,254.4 582.3,257 582.3,243.2 591.3,240.4 	"/>
	<polygon class="st16" points="607.5,249.4 598.3,252.1 598.3,238.1 607.5,235.2 	"/>
	<polygon class="st16" points="624.5,244.7 614.7,247.7 614.7,232.8 624.5,229.7 	"/>
	<polygon class="st16" points="642.5,239.3 632.3,242.4 632.3,227.3 642.5,224.1 	"/>
</g>
</svg>
