<?xml version="1.0" encoding="UTF-8"?><svg id="City" xmlns="http://www.w3.org/2000/svg" xmlns:xlink="http://www.w3.org/1999/xlink" viewBox="0 0 804.19 670.14"><defs><filter id="drop-shadow-1" filterUnits="userSpaceOnUse"><feOffset dx="0" dy="0"/><feGaussianBlur result="blur" stdDeviation="4"/><feFlood flood-color="#fee69d" flood-opacity=".8"/><feComposite in2="blur" operator="in"/><feComposite in="SourceGraphic"/></filter><filter id="drop-shadow-2" filterUnits="userSpaceOnUse"><feOffset dx="0" dy="0"/><feGaussianBlur result="blur-2" stdDeviation="4"/><feFlood flood-color="#fee69d" flood-opacity=".8"/><feComposite in2="blur-2" operator="in"/><feComposite in="SourceGraphic"/></filter><filter id="drop-shadow-3" filterUnits="userSpaceOnUse"><feOffset dx="0" dy="0"/><feGaussianBlur result="blur-3" stdDeviation="4"/><feFlood flood-color="#fee69d" flood-opacity=".8"/><feComposite in2="blur-3" operator="in"/><feComposite in="SourceGraphic"/></filter><filter id="drop-shadow-4" filterUnits="userSpaceOnUse"><feOffset dx="0" dy="3"/><feGaussianBlur result="blur-4" stdDeviation="3"/><feFlood flood-color="#071d26" flood-opacity=".65"/><feComposite in2="blur-4" operator="in"/><feComposite in="SourceGraphic"/></filter><filter id="drop-shadow-5" filterUnits="userSpaceOnUse"><feOffset dx="0" dy="2"/><feGaussianBlur result="blur-5" stdDeviation="5"/><feFlood flood-color="#071d26" flood-opacity=".25"/><feComposite in2="blur-5" operator="in"/><feComposite in="SourceGraphic"/></filter><filter id="drop-shadow-6" filterUnits="userSpaceOnUse"><feOffset dx="0" dy="0"/><feGaussianBlur result="blur-6" stdDeviation="6"/><feFlood flood-color="#fde492" flood-opacity=".6"/><feComposite in2="blur-6" operator="in"/><feComposite in="SourceGraphic"/></filter><filter id="drop-shadow-7" filterUnits="userSpaceOnUse"><feOffset dx="0" dy="3"/><feGaussianBlur result="blur-7" stdDeviation="3"/><feFlood flood-color="#071d26" flood-opacity=".65"/><feComposite in2="blur-7" operator="in"/><feComposite in="SourceGraphic"/></filter><filter id="drop-shadow-8" filterUnits="userSpaceOnUse"><feOffset dx="0" dy="4"/><feGaussianBlur result="blur-8" stdDeviation="6"/><feFlood flood-color="#071d26" flood-opacity=".25"/><feComposite in2="blur-8" operator="in"/><feComposite in="SourceGraphic"/></filter><filter id="drop-shadow-9" filterUnits="userSpaceOnUse"><feOffset dx="0" dy="4"/><feGaussianBlur result="blur-9" stdDeviation="6"/><feFlood flood-color="#071d26" flood-opacity=".25"/><feComposite in2="blur-9" operator="in"/><feComposite in="SourceGraphic"/></filter><filter id="drop-shadow-10" filterUnits="userSpaceOnUse"><feOffset dx="0" dy="0"/><feGaussianBlur result="blur-10" stdDeviation="7"/><feFlood flood-color="#ffd45a" flood-opacity="1"/><feComposite in2="blur-10" operator="in"/><feComposite in="SourceGraphic"/></filter><filter id="drop-shadow-11" filterUnits="userSpaceOnUse"><feOffset dx=".5" dy=".5"/><feGaussianBlur result="blur-11" stdDeviation=".5"/><feFlood flood-color="#000" flood-opacity=".6"/><feComposite in2="blur-11" operator="in"/><feComposite in="SourceGraphic"/></filter><filter id="drop-shadow-12" filterUnits="userSpaceOnUse"><feOffset dx="0" dy="0"/><feGaussianBlur result="blur-12" stdDeviation="4"/><feFlood flood-color="#fee69d" flood-opacity="1"/><feComposite in2="blur-12" operator="in"/><feComposite in="SourceGraphic"/></filter><filter id="drop-shadow-13" filterUnits="userSpaceOnUse"><feOffset dx="0" dy="12"/><feGaussianBlur result="blur-13" stdDeviation="12"/><feFlood flood-color="#071d26" flood-opacity=".35"/><feComposite in2="blur-13" operator="in"/><feComposite in="SourceGraphic"/></filter><filter id="drop-shadow-14" filterUnits="userSpaceOnUse"><feOffset dx="0" dy="0"/><feGaussianBlur result="blur-14" stdDeviation="15"/><feFlood flood-color="#fde186" flood-opacity=".6"/><feComposite in2="blur-14" operator="in"/><feComposite in="SourceGraphic"/></filter><filter id="drop-shadow-15" filterUnits="userSpaceOnUse"><feOffset dx="1" dy="1"/><feGaussianBlur result="blur-15" stdDeviation="15"/><feFlood flood-color="#fde186" flood-opacity=".5"/><feComposite in2="blur-15" operator="in"/><feComposite in="SourceGraphic"/></filter><filter id="drop-shadow-16" filterUnits="userSpaceOnUse"><feOffset dx="1" dy="1"/><feGaussianBlur result="blur-16" stdDeviation="1"/><feFlood flood-color="#000" flood-opacity=".8"/><feComposite in2="blur-16" operator="in"/><feComposite in="SourceGraphic"/></filter><filter id="drop-shadow-17" filterUnits="userSpaceOnUse"><feOffset dx="0" dy="0"/><feGaussianBlur result="blur-17" stdDeviation="15"/><feFlood flood-color="#fde186" flood-opacity=".6"/><feComposite in2="blur-17" operator="in"/><feComposite in="SourceGraphic"/></filter><filter id="drop-shadow-18" filterUnits="userSpaceOnUse"><feOffset dx="0" dy="0"/><feGaussianBlur result="blur-18" stdDeviation="15"/><feFlood flood-color="#fde186" flood-opacity=".6"/><feComposite in2="blur-18" operator="in"/><feComposite in="SourceGraphic"/></filter><filter id="drop-shadow-19" filterUnits="userSpaceOnUse"><feOffset dx="0" dy="0"/><feGaussianBlur result="blur-19" stdDeviation="10"/><feFlood flood-color="#fde186" flood-opacity=".5"/><feComposite in2="blur-19" operator="in"/><feComposite in="SourceGraphic"/></filter><filter id="drop-shadow-20" filterUnits="userSpaceOnUse"><feOffset dx="0" dy="0"/><feGaussianBlur result="blur-20" stdDeviation="15"/><feFlood flood-color="#fde186" flood-opacity=".6"/><feComposite in2="blur-20" operator="in"/><feComposite in="SourceGraphic"/></filter><filter id="drop-shadow-21" filterUnits="userSpaceOnUse"><feOffset dx="0" dy="3"/><feGaussianBlur result="blur-21" stdDeviation="3"/><feFlood flood-color="#071d26" flood-opacity=".65"/><feComposite in2="blur-21" operator="in"/><feComposite in="SourceGraphic"/></filter><filter id="drop-shadow-22" filterUnits="userSpaceOnUse"><feOffset dx="0" dy="3"/><feGaussianBlur result="blur-22" stdDeviation="3"/><feFlood flood-color="#071d26" flood-opacity=".65"/><feComposite in2="blur-22" operator="in"/><feComposite in="SourceGraphic"/></filter><filter id="drop-shadow-23" filterUnits="userSpaceOnUse"><feOffset dx="0" dy="0"/><feGaussianBlur result="blur-23" stdDeviation="4"/><feFlood flood-color="#fee592" flood-opacity="1"/><feComposite in2="blur-23" operator="in"/><feComposite in="SourceGraphic"/></filter><filter id="drop-shadow-24" filterUnits="userSpaceOnUse"><feOffset dx="0" dy="0"/><feGaussianBlur result="blur-24" stdDeviation="4"/><feFlood flood-color="#fee592" flood-opacity="1"/><feComposite in2="blur-24" operator="in"/><feComposite in="SourceGraphic"/></filter><filter id="drop-shadow-25" filterUnits="userSpaceOnUse"><feOffset dx="0" dy="0"/><feGaussianBlur result="blur-25" stdDeviation="4"/><feFlood flood-color="#fee592" flood-opacity="1"/><feComposite in2="blur-25" operator="in"/><feComposite in="SourceGraphic"/></filter><filter id="drop-shadow-26" filterUnits="userSpaceOnUse"><feOffset dx="0" dy="0"/><feGaussianBlur result="blur-26" stdDeviation="4"/><feFlood flood-color="#fee592" flood-opacity="1"/><feComposite in2="blur-26" operator="in"/><feComposite in="SourceGraphic"/></filter><filter id="drop-shadow-27" filterUnits="userSpaceOnUse"><feOffset dx="0" dy="0"/><feGaussianBlur result="blur-27" stdDeviation="4"/><feFlood flood-color="#fee592" flood-opacity="1"/><feComposite in2="blur-27" operator="in"/><feComposite in="SourceGraphic"/></filter><filter id="drop-shadow-28" filterUnits="userSpaceOnUse"><feOffset dx="0" dy="0"/><feGaussianBlur result="blur-28" stdDeviation="4"/><feFlood flood-color="#fee592" flood-opacity="1"/><feComposite in2="blur-28" operator="in"/><feComposite in="SourceGraphic"/></filter><filter id="drop-shadow-29" filterUnits="userSpaceOnUse"><feOffset dx="0" dy="0"/><feGaussianBlur result="blur-29" stdDeviation="4"/><feFlood flood-color="#fee592" flood-opacity="1"/><feComposite in2="blur-29" operator="in"/><feComposite in="SourceGraphic"/></filter><filter id="drop-shadow-30" filterUnits="userSpaceOnUse"><feOffset dx="0" dy="0"/><feGaussianBlur result="blur-30" stdDeviation="4"/><feFlood flood-color="#fee592" flood-opacity="1"/><feComposite in2="blur-30" operator="in"/><feComposite in="SourceGraphic"/></filter><filter id="drop-shadow-31" filterUnits="userSpaceOnUse"><feOffset dx="0" dy="0"/><feGaussianBlur result="blur-31" stdDeviation="4"/><feFlood flood-color="#fee592" flood-opacity="1"/><feComposite in2="blur-31" operator="in"/><feComposite in="SourceGraphic"/></filter><filter id="drop-shadow-32" filterUnits="userSpaceOnUse"><feOffset dx="0" dy="0"/><feGaussianBlur result="blur-32" stdDeviation="4"/><feFlood flood-color="#fee592" flood-opacity="1"/><feComposite in2="blur-32" operator="in"/><feComposite in="SourceGraphic"/></filter><filter id="drop-shadow-33" filterUnits="userSpaceOnUse"><feOffset dx="0" dy="0"/><feGaussianBlur result="blur-33" stdDeviation="4"/><feFlood flood-color="#fee592" flood-opacity="1"/><feComposite in2="blur-33" operator="in"/><feComposite in="SourceGraphic"/></filter><filter id="drop-shadow-34" filterUnits="userSpaceOnUse"><feOffset dx="0" dy="0"/><feGaussianBlur result="blur-34" stdDeviation="4"/><feFlood flood-color="#fee592" flood-opacity="1"/><feComposite in2="blur-34" operator="in"/><feComposite in="SourceGraphic"/></filter><filter id="drop-shadow-35" filterUnits="userSpaceOnUse"><feOffset dx="0" dy="0"/><feGaussianBlur result="blur-35" stdDeviation="4"/><feFlood flood-color="#fee592" flood-opacity="1"/><feComposite in2="blur-35" operator="in"/><feComposite in="SourceGraphic"/></filter><filter id="drop-shadow-36" filterUnits="userSpaceOnUse"><feOffset dx="0" dy="0"/><feGaussianBlur result="blur-36" stdDeviation="4"/><feFlood flood-color="#fee592" flood-opacity="1"/><feComposite in2="blur-36" operator="in"/><feComposite in="SourceGraphic"/></filter><filter id="drop-shadow-37" filterUnits="userSpaceOnUse"><feOffset dx="0" dy="0"/><feGaussianBlur result="blur-37" stdDeviation="4"/><feFlood flood-color="#fee592" flood-opacity="1"/><feComposite in2="blur-37" operator="in"/><feComposite in="SourceGraphic"/></filter><filter id="drop-shadow-38" filterUnits="userSpaceOnUse"><feOffset dx="0" dy="0"/><feGaussianBlur result="blur-38" stdDeviation="4"/><feFlood flood-color="#fee592" flood-opacity="1"/><feComposite in2="blur-38" operator="in"/><feComposite in="SourceGraphic"/></filter><filter id="drop-shadow-39" filterUnits="userSpaceOnUse"><feOffset dx="0" dy="0"/><feGaussianBlur result="blur-39" stdDeviation="4"/><feFlood flood-color="#fee592" flood-opacity="1"/><feComposite in2="blur-39" operator="in"/><feComposite in="SourceGraphic"/></filter><filter id="drop-shadow-40" filterUnits="userSpaceOnUse"><feOffset dx="0" dy="0"/><feGaussianBlur result="blur-40" stdDeviation="4"/><feFlood flood-color="#fee592" flood-opacity="1"/><feComposite in2="blur-40" operator="in"/><feComposite in="SourceGraphic"/></filter><filter id="drop-shadow-41" filterUnits="userSpaceOnUse"><feOffset dx="0" dy="0"/><feGaussianBlur result="blur-41" stdDeviation="4"/><feFlood flood-color="#fee592" flood-opacity="1"/><feComposite in2="blur-41" operator="in"/><feComposite in="SourceGraphic"/></filter><filter id="drop-shadow-42" filterUnits="userSpaceOnUse"><feOffset dx="0" dy="0"/><feGaussianBlur result="blur-42" stdDeviation="4"/><feFlood flood-color="#fee592" flood-opacity="1"/><feComposite in2="blur-42" operator="in"/><feComposite in="SourceGraphic"/></filter><filter id="drop-shadow-43" filterUnits="userSpaceOnUse"><feOffset dx="0" dy="0"/><feGaussianBlur result="blur-43" stdDeviation="4"/><feFlood flood-color="#fee592" flood-opacity="1"/><feComposite in2="blur-43" operator="in"/><feComposite in="SourceGraphic"/></filter><filter id="drop-shadow-44" filterUnits="userSpaceOnUse"><feOffset dx="0" dy="0"/><feGaussianBlur result="blur-44" stdDeviation="4"/><feFlood flood-color="#fee592" flood-opacity="1"/><feComposite in2="blur-44" operator="in"/><feComposite in="SourceGraphic"/></filter><filter id="drop-shadow-45" filterUnits="userSpaceOnUse"><feOffset dx="0" dy="0"/><feGaussianBlur result="blur-45" stdDeviation="4"/><feFlood flood-color="#fee592" flood-opacity="1"/><feComposite in2="blur-45" operator="in"/><feComposite in="SourceGraphic"/></filter><filter id="drop-shadow-46" filterUnits="userSpaceOnUse"><feOffset dx="0" dy="0"/><feGaussianBlur result="blur-46" stdDeviation="4"/><feFlood flood-color="#fee592" flood-opacity="1"/><feComposite in2="blur-46" operator="in"/><feComposite in="SourceGraphic"/></filter><filter id="drop-shadow-47" filterUnits="userSpaceOnUse"><feOffset dx="0" dy="0"/><feGaussianBlur result="blur-47" stdDeviation="4"/><feFlood flood-color="#fee592" flood-opacity="1"/><feComposite in2="blur-47" operator="in"/><feComposite in="SourceGraphic"/></filter><filter id="drop-shadow-48" filterUnits="userSpaceOnUse"><feOffset dx="0" dy="0"/><feGaussianBlur result="blur-48" stdDeviation="4"/><feFlood flood-color="#fee592" flood-opacity="1"/><feComposite in2="blur-48" operator="in"/><feComposite in="SourceGraphic"/></filter><filter id="drop-shadow-49" filterUnits="userSpaceOnUse"><feOffset dx="0" dy="0"/><feGaussianBlur result="blur-49" stdDeviation="4"/><feFlood flood-color="#fee592" flood-opacity="1"/><feComposite in2="blur-49" operator="in"/><feComposite in="SourceGraphic"/></filter><filter id="drop-shadow-50" filterUnits="userSpaceOnUse"><feOffset dx="0" dy="0"/><feGaussianBlur result="blur-50" stdDeviation="4"/><feFlood flood-color="#fee592" flood-opacity="1"/><feComposite in2="blur-50" operator="in"/><feComposite in="SourceGraphic"/></filter><filter id="drop-shadow-51" filterUnits="userSpaceOnUse"><feOffset dx="0" dy="0"/><feGaussianBlur result="blur-51" stdDeviation="4"/><feFlood flood-color="#fee592" flood-opacity="1"/><feComposite in2="blur-51" operator="in"/><feComposite in="SourceGraphic"/></filter><filter id="drop-shadow-52" filterUnits="userSpaceOnUse"><feOffset dx="0" dy="0"/><feGaussianBlur result="blur-52" stdDeviation="4"/><feFlood flood-color="#fee592" flood-opacity="1"/><feComposite in2="blur-52" operator="in"/><feComposite in="SourceGraphic"/></filter><filter id="drop-shadow-53" filterUnits="userSpaceOnUse"><feOffset dx="0" dy="0"/><feGaussianBlur result="blur-53" stdDeviation="4"/><feFlood flood-color="#fee592" flood-opacity="1"/><feComposite in2="blur-53" operator="in"/><feComposite in="SourceGraphic"/></filter><filter id="drop-shadow-54" filterUnits="userSpaceOnUse"><feOffset dx="0" dy="0"/><feGaussianBlur result="blur-54" stdDeviation="4"/><feFlood flood-color="#fee592" flood-opacity="1"/><feComposite in2="blur-54" operator="in"/><feComposite in="SourceGraphic"/></filter><filter id="drop-shadow-55" filterUnits="userSpaceOnUse"><feOffset dx="0" dy="0"/><feGaussianBlur result="blur-55" stdDeviation="4"/><feFlood flood-color="#fee592" flood-opacity="1"/><feComposite in2="blur-55" operator="in"/><feComposite in="SourceGraphic"/></filter><filter id="drop-shadow-56" filterUnits="userSpaceOnUse"><feOffset dx="0" dy="0"/><feGaussianBlur result="blur-56" stdDeviation="4"/><feFlood flood-color="#fee592" flood-opacity="1"/><feComposite in2="blur-56" operator="in"/><feComposite in="SourceGraphic"/></filter><filter id="drop-shadow-57" filterUnits="userSpaceOnUse"><feOffset dx="0" dy="0"/><feGaussianBlur result="blur-57" stdDeviation="4"/><feFlood flood-color="#fee592" flood-opacity="1"/><feComposite in2="blur-57" operator="in"/><feComposite in="SourceGraphic"/></filter><filter id="drop-shadow-58" filterUnits="userSpaceOnUse"><feOffset dx="0" dy="0"/><feGaussianBlur result="blur-58" stdDeviation="4"/><feFlood flood-color="#fee592" flood-opacity="1"/><feComposite in2="blur-58" operator="in"/><feComposite in="SourceGraphic"/></filter><filter id="drop-shadow-59" filterUnits="userSpaceOnUse"><feOffset dx="0" dy="0"/><feGaussianBlur result="blur-59" stdDeviation="4"/><feFlood flood-color="#fee592" flood-opacity="1"/><feComposite in2="blur-59" operator="in"/><feComposite in="SourceGraphic"/></filter><filter id="drop-shadow-60" filterUnits="userSpaceOnUse"><feOffset dx="0" dy="0"/><feGaussianBlur result="blur-60" stdDeviation="4"/><feFlood flood-color="#fee592" flood-opacity="1"/><feComposite in2="blur-60" operator="in"/><feComposite in="SourceGraphic"/></filter><filter id="drop-shadow-61" filterUnits="userSpaceOnUse"><feOffset dx="0" dy="0"/><feGaussianBlur result="blur-61" stdDeviation="4"/><feFlood flood-color="#fee592" flood-opacity="1"/><feComposite in2="blur-61" operator="in"/><feComposite in="SourceGraphic"/></filter><filter id="drop-shadow-62" filterUnits="userSpaceOnUse"><feOffset dx="0" dy="0"/><feGaussianBlur result="blur-62" stdDeviation="4"/><feFlood flood-color="#fee592" flood-opacity="1"/><feComposite in2="blur-62" operator="in"/><feComposite in="SourceGraphic"/></filter><filter id="drop-shadow-63" filterUnits="userSpaceOnUse"><feOffset dx="0" dy="0"/><feGaussianBlur result="blur-63" stdDeviation="4"/><feFlood flood-color="#fee592" flood-opacity="1"/><feComposite in2="blur-63" operator="in"/><feComposite in="SourceGraphic"/></filter><filter id="drop-shadow-64" filterUnits="userSpaceOnUse"><feOffset dx="0" dy="0"/><feGaussianBlur result="blur-64" stdDeviation="4"/><feFlood flood-color="#fee592" flood-opacity="1"/><feComposite in2="blur-64" operator="in"/><feComposite in="SourceGraphic"/></filter><filter id="drop-shadow-65" filterUnits="userSpaceOnUse"><feOffset dx="0" dy="1"/><feGaussianBlur result="blur-65" stdDeviation="2"/><feFlood flood-color="#071d26" flood-opacity=".25"/><feComposite in2="blur-65" operator="in"/><feComposite in="SourceGraphic"/></filter><filter id="drop-shadow-66" filterUnits="userSpaceOnUse"><feOffset dx="0" dy="1"/><feGaussianBlur result="blur-66" stdDeviation="2"/><feFlood flood-color="#071d26" flood-opacity=".25"/><feComposite in2="blur-66" operator="in"/><feComposite in="SourceGraphic"/></filter><filter id="drop-shadow-67" filterUnits="userSpaceOnUse"><feOffset dx="0" dy="1"/><feGaussianBlur result="blur-67" stdDeviation="1"/><feFlood flood-color="#071d26" flood-opacity=".25"/><feComposite in2="blur-67" operator="in"/><feComposite in="SourceGraphic"/></filter><filter id="drop-shadow-68" filterUnits="userSpaceOnUse"><feOffset dx="0" dy="1"/><feGaussianBlur result="blur-68" stdDeviation="2"/><feFlood flood-color="#071d26" flood-opacity=".25"/><feComposite in2="blur-68" operator="in"/><feComposite in="SourceGraphic"/></filter><filter id="drop-shadow-69" filterUnits="userSpaceOnUse"><feOffset dx="0" dy="1"/><feGaussianBlur result="blur-69" stdDeviation="2"/><feFlood flood-color="#071d26" flood-opacity=".25"/><feComposite in2="blur-69" operator="in"/><feComposite in="SourceGraphic"/></filter><filter id="drop-shadow-70" filterUnits="userSpaceOnUse"><feOffset dx="0" dy="0"/><feGaussianBlur result="blur-70" stdDeviation="15"/><feFlood flood-color="#fde492" flood-opacity=".6"/><feComposite in2="blur-70" operator="in"/><feComposite in="SourceGraphic"/></filter><filter id="drop-shadow-71" filterUnits="userSpaceOnUse"><feOffset dx="0" dy="0"/><feGaussianBlur result="blur-71" stdDeviation="15"/><feFlood flood-color="#fde492" flood-opacity=".6"/><feComposite in2="blur-71" operator="in"/><feComposite in="SourceGraphic"/></filter><filter id="drop-shadow-72" filterUnits="userSpaceOnUse"><feOffset dx="0" dy="0"/><feGaussianBlur result="blur-72" stdDeviation="15"/><feFlood flood-color="#fde492" flood-opacity=".6"/><feComposite in2="blur-72" operator="in"/><feComposite in="SourceGraphic"/></filter><filter id="drop-shadow-73" filterUnits="userSpaceOnUse"><feOffset dx="0" dy="0"/><feGaussianBlur result="blur-73" stdDeviation="6"/><feFlood flood-color="#fde492" flood-opacity=".5"/><feComposite in2="blur-73" operator="in"/><feComposite in="SourceGraphic"/></filter><filter id="drop-shadow-74" filterUnits="userSpaceOnUse"><feOffset dx="0" dy="0"/><feGaussianBlur result="blur-74" stdDeviation="8"/><feFlood flood-color="#fde492" flood-opacity=".5"/><feComposite in2="blur-74" operator="in"/><feComposite in="SourceGraphic"/></filter><filter id="drop-shadow-75" filterUnits="userSpaceOnUse"><feOffset dx="0" dy="0"/><feGaussianBlur result="blur-75" stdDeviation="6"/><feFlood flood-color="#fee69d" flood-opacity=".6"/><feComposite in2="blur-75" operator="in"/><feComposite in="SourceGraphic"/></filter><filter id="drop-shadow-76" filterUnits="userSpaceOnUse"><feOffset dx="0" dy="0"/><feGaussianBlur result="blur-76" stdDeviation="6"/><feFlood flood-color="#fee69d" flood-opacity=".6"/><feComposite in2="blur-76" operator="in"/><feComposite in="SourceGraphic"/></filter><filter id="drop-shadow-77" filterUnits="userSpaceOnUse"><feOffset dx="0" dy="0"/><feGaussianBlur result="blur-77" stdDeviation="6"/><feFlood flood-color="#fee69d" flood-opacity=".6"/><feComposite in2="blur-77" operator="in"/><feComposite in="SourceGraphic"/></filter></defs><polygon points="675.31 289.69 638.15 240.59 638.15 109.08 675.31 176.3 675.31 289.69" fill="#1c2f3a" stroke-width="0"/><polygon points="448.49 292.46 442.32 284.19 442.32 268.67 448.49 277.3 448.49 292.46" fill="#fee187" filter="url(#drop-shadow-1)" stroke-width="0"/><g filter="url(#drop-shadow-2)"><polygon points="449.26 228.29 443.13 218.52 443.13 203.05 449.26 213.18 449.26 228.29" fill="#fee187" stroke-width="0"/><polygon points="459.93 245.17 454.3 236.2 454.3 221.38 459.93 230.69 459.93 245.17" fill="#fee187" stroke-width="0"/><polygon points="468.79 259.3 463.56 250.97 463.56 236.7 468.79 245.34 468.79 259.3" fill="#fee187" stroke-width="0"/></g><g filter="url(#drop-shadow-3)"><polygon points="449.26 261.02 443.13 251.96 443.13 236.49 449.26 245.91 449.26 261.02" fill="#fee187" stroke-width="0"/><polygon points="459.93 276.65 454.3 268.34 454.3 253.52 459.93 262.17 459.93 276.65" fill="#fee187" stroke-width="0"/><polygon points="468.79 289.75 463.56 282.03 463.56 267.76 468.79 275.79 468.79 289.75" fill="#fee187" stroke-width="0"/></g><polygon points="608.61 657.36 6.38 619.82 520.83 615.64 796.7 614.19 608.61 657.36" fill="#939598" stroke-width="0"/><polygon points="465.82 129.08 437.82 93.36 437.82 44.8 465.82 83.96 465.82 129.08" fill="#557687" stroke-width="0"/><polygon points="469.91 167.96 443.22 136.83 443.22 88.07 469.91 122.43 469.91 167.96" fill="#557687" stroke-width="0"/><polygon points="473.45 211.33 448.26 184.47 448.26 134.09 473.45 164.22 473.45 211.33" fill="#557687" stroke-width="0"/><line x1="434.07" y1="58.16" x2="434.07" y2="4.34" fill="none" stroke="#314f60" stroke-linecap="round" stroke-linejoin="round" stroke-width="2"/><polygon points="448.26 355.3 388.77 368.72 388.77 161.29 448.26 134.14 448.26 355.3" fill="#718c9a" stroke-width="0"/><polygon points="443.22 137.9 392.89 162.28 392.89 115.12 443.22 88.1 443.22 137.9" fill="#718c9a" stroke-width="0"/><polygon points="437.82 44.78 397.5 69.84 397.5 114.55 437.82 91.62 437.82 44.78" fill="#718c9a" stroke-width="0"/><polygon points="516.95 435.23 489.18 423.64 489.18 166.23 516.95 194.95 516.95 435.23" fill="#314f60" stroke-width="0"/><polygon points="489.23 422 429.59 431.9 429.59 190.46 489.23 166.19 489.23 422" fill="#395f72" stroke-width="0"/><polygon points="524.58 305.83 638.46 275.56 638.46 109.27 524.58 155.18 524.58 305.83" fill="#25404d" stroke-width="0"/><path d="m675.36,195.29l-37.21-64.23s-.02-.04-.02-.06v-4.63c0-.11.24-.01.32.12l37.21,64.93s.02.04.02.06v3.93c0,.11-.24.01-.32-.12Z" fill="#fec215" filter="url(#drop-shadow-4)" stroke-width="0"/><polygon points="716.05 616.93 507.7 614.26 507.7 279.27 716.05 217.29 716.05 616.93" fill="#557687" stroke-width="0"/><g filter="url(#drop-shadow-5)"><polygon points="703.31 270.57 517.11 318.26 517.11 284.54 703.31 231.07 703.31 270.57" fill="#141f26" stroke-width="0"/><path d="m527.09,289.83v.61l-2.41.67v15.07l-.46.12v-15.06l-2.43.68v-.6l5.3-1.48Z" fill="#fffbf2" stroke="#fffbf2" stroke-miterlimit="10"/><path d="m528.82,305.08l-.45.12v-15.71l.45-.13v8.1c.47-1.5,1.29-2.41,2.46-2.73.8-.22,1.47,0,2.02.67.55.67.82,1.58.82,2.75v5.52l-.46.12v-5.52c0-.98-.23-1.77-.7-2.35-.47-.58-1.03-.78-1.68-.6s-1.23.69-1.72,1.54c-.49.85-.74,1.75-.74,2.72v5.5Z" fill="#fffbf2" stroke="#fffbf2" stroke-miterlimit="10"/><path d="m539.08,302.61l-.13.03c-.91.24-1.71-.05-2.38-.88-.68-.83-1.01-1.91-1.01-3.24s.34-2.59,1.01-3.75c.67-1.16,1.5-1.88,2.49-2.15s1.85.07,2.56,1.04l-4.54,7.79c.62.57,1.23.77,1.8.62s1.1-.49,1.55-1,.84-1.13,1.14-1.86v1.08c-.69,1.29-1.52,2.06-2.49,2.32Zm-.15-9.36c-.77.21-1.44.83-2.03,1.86s-.88,2.1-.88,3.23.25,2.04.76,2.75l4.2-7.25c-.6-.6-1.28-.79-2.05-.59Z" fill="#fffbf2" stroke="#fffbf2" stroke-miterlimit="10"/><path d="m548.62,283.81l.47-.13c.64-.18,1.17-.04,1.61.42.43.46.65,1.14.65,2.03,0,.54-.12,1.13-.36,1.76-.24.63-.52,1.07-.85,1.33.76.06,1.39.48,1.89,1.24s.75,1.83.75,3.19-.36,2.65-1.08,3.85c-.72,1.2-1.59,1.93-2.61,2.2l-.47.12v-16.02Zm.47.47v5.04l.12-.03c.44-.12.83-.49,1.17-1.1.34-.61.51-1.26.51-1.94s-.17-1.21-.5-1.6c-.33-.39-.73-.52-1.18-.4l-.12.03Zm0,5.62v9.21l.12-.03c.84-.22,1.57-.88,2.19-1.95.62-1.08.92-2.25.92-3.5s-.31-2.26-.92-3c-.61-.74-1.34-.99-2.2-.76l-.12.03Z" fill="#fffbf2" stroke="#fffbf2" stroke-miterlimit="10"/><path d="m557.61,297.7l-.13.04c-.94.25-1.77-.04-2.46-.88s-1.05-1.93-1.05-3.29.35-2.63,1.04-3.81c.69-1.18,1.55-1.92,2.58-2.2s1.91.07,2.65,1.04l-4.69,7.94c.65.57,1.27.78,1.86.62s1.13-.5,1.61-1.02.87-1.15,1.18-1.9v1.1c-.71,1.31-1.57,2.1-2.57,2.37Zm-.16-9.52c-.79.22-1.49.85-2.1,1.9-.61,1.05-.91,2.14-.91,3.29s.26,2.08.79,2.79l4.34-7.39c-.62-.61-1.32-.8-2.12-.59Z" fill="#fffbf2" stroke="#fffbf2" stroke-miterlimit="10"/><path d="m568.6,284.74v9.78l-.49.13v-2.43c-.28.9-.71,1.67-1.28,2.29-.57.63-1.17,1.03-1.82,1.2-.99.26-1.83-.02-2.54-.83s-1.05-1.92-1.05-3.32.35-2.69,1.05-3.88c.7-1.19,1.55-1.93,2.54-2.2.65-.18,1.27-.1,1.86.23s1,.87,1.24,1.62v-2.45l.49-.13Zm-6.69,6.72c0,1.21.31,2.18.93,2.9s1.35.97,2.2.74,1.58-.87,2.19-1.92.91-2.19.91-3.42-.31-2.2-.92-2.93c-.61-.73-1.34-.98-2.19-.75s-1.58.88-2.2,1.95-.93,2.21-.93,3.42Z" fill="#fffbf2" stroke="#fffbf2" stroke-miterlimit="10"/><path d="m576.14,282.67l.49-.14v9.85l-.49.13v-1.99c-.52,1.63-1.42,2.61-2.68,2.94-.86.23-1.58,0-2.16-.69s-.87-1.63-.87-2.84v-5.7l.49-.13v5.71c0,1,.25,1.81.74,2.42.49.61,1.09.82,1.8.63s1.33-.73,1.87-1.61c.54-.89.81-1.83.81-2.84v-5.73Z" fill="#fffbf2" stroke="#fffbf2" stroke-miterlimit="10"/><path d="m580.98,290.75v.62c-.74.2-1.36.01-1.88-.54-.52-.56-.77-1.38-.77-2.46v-10.26l.5-.14v3.99l2.14-.59v.62l-2.14.59v5.66c0,.89.21,1.57.63,2.05.42.47.93.63,1.53.47Z" fill="#fffbf2" stroke="#fffbf2" stroke-miterlimit="10"/><path d="m588.06,279.41l.5-.14v9.64c0,1.31-.33,2.51-.98,3.6s-1.45,1.75-2.39,1.99c-1.13.29-2.02-.08-2.67-1.13l.03-1.11c.29.63.67,1.09,1.15,1.38s.97.37,1.49.24c.77-.2,1.44-.77,2.01-1.71.57-.94.85-1.96.85-3.06v-1.68c-.51,1.58-1.41,2.54-2.69,2.88-.87.23-1.61,0-2.22-.7-.61-.69-.92-1.64-.92-2.85v-5.76l.5-.14v5.77c0,1.01.26,1.82.79,2.43.53.61,1.15.82,1.87.63s1.35-.73,1.88-1.63c.53-.89.79-1.85.79-2.86v-5.79Z" fill="#fffbf2" stroke="#fffbf2" stroke-miterlimit="10"/><path d="m596.88,285.67c-.73-.87-1.1-2-1.1-3.41s.37-2.73,1.12-3.97c.75-1.24,1.65-2,2.7-2.29s1.96-.02,2.7.81c.75.83,1.12,1.96,1.12,3.39s-.37,2.77-1.1,4.02-1.62,2.02-2.66,2.29l-.14.04c-1.03.27-1.91-.03-2.64-.89Zm6.02-5.28c0-1.26-.33-2.27-.98-3.01-.65-.75-1.43-1-2.33-.75s-1.68.92-2.33,2.03-.98,2.28-.98,3.53.33,2.24.98,2.98,1.44.99,2.34.75,1.68-.91,2.33-1.99.97-2.27.97-3.53Z" fill="#fffbf2" stroke="#fffbf2" stroke-miterlimit="10"/><path d="m607.9,269.88v.63c-.63.17-1.16.62-1.6,1.34-.44.72-.66,1.54-.66,2.45v5.9l2.28-.61v.63l-2.28.61v3.86l-.52.14v-10.39c0-1.11.27-2.09.81-2.95.54-.86,1.2-1.4,1.97-1.61Z" fill="#fffbf2" stroke="#fffbf2" stroke-miterlimit="10"/><path d="m621.59,280.71l-.18.05c-1.14.3-2.21.18-3.19-.38-.98-.55-1.76-1.43-2.32-2.63-.57-1.2-.85-2.56-.85-4.08,0-2.4.63-4.63,1.9-6.71,1.27-2.08,2.79-3.38,4.57-3.87,1.19-.33,2.32-.22,3.39.33v.84c-1.05-.68-2.18-.85-3.39-.51-1.63.46-3.03,1.64-4.19,3.56s-1.73,3.98-1.73,6.21.58,3.98,1.73,5.27,2.55,1.72,4.19,1.29c1.21-.32,2.34-1.11,3.39-2.36v.84c-1.02,1.12-2.12,1.84-3.31,2.15Z" fill="#fffbf2" stroke="#fffbf2" stroke-miterlimit="10"/><path d="m631.38,261.58c-.45-.24-.95-.29-1.5-.13s-1.02.52-1.41,1.09c-.39.57-.58,1.26-.58,2.07v.11c0,.96.39,1.73,1.18,2.3.34.24.72.47,1.14.68.42.21.85.45,1.27.71s.81.55,1.15.88.63.77.85,1.32c.22.55.33,1.2.33,1.93v.23c0,1.46-.37,2.71-1.1,3.76-.73,1.05-1.63,1.72-2.7,2-1.41.37-2.5-.12-3.27-1.49v-1.23c.29.79.72,1.38,1.29,1.77.57.39,1.27.47,2.12.25s1.58-.79,2.2-1.69c.62-.9.93-1.96.93-3.19v-.14c0-.77-.15-1.43-.44-1.98-.29-.56-.66-.98-1.1-1.26s-.92-.58-1.44-.88-1-.58-1.44-.84c-.44-.26-.8-.64-1.1-1.14-.29-.5-.44-1.09-.44-1.78v-.16c0-1.07.25-1.95.76-2.66.51-.71,1.13-1.16,1.87-1.37,1.04-.29,1.86,0,2.47.87v1.17c-.26-.57-.61-.98-1.06-1.22Z" fill="#fffbf2" stroke="#fffbf2" stroke-miterlimit="10"/><path d="m640.05,259.16c-.45-.24-.96-.29-1.52-.13s-1.04.52-1.43,1.1c-.39.58-.59,1.27-.59,2.09v.12c0,.97.4,1.74,1.2,2.32.34.24.73.47,1.16.69.43.21.86.45,1.29.71s.82.55,1.17.88.64.77.86,1.33c.22.56.34,1.21.34,1.95v.23c0,1.47-.37,2.73-1.11,3.79-.74,1.06-1.65,1.73-2.74,2.02-1.43.38-2.53-.12-3.32-1.49v-1.24c.3.8.73,1.39,1.31,1.78.58.39,1.29.47,2.15.25s1.6-.8,2.23-1.7c.63-.91.95-1.98.95-3.21v-.14c0-.77-.15-1.44-.45-2-.3-.56-.67-.98-1.12-1.27s-.93-.58-1.46-.88-1.01-.58-1.46-.85c-.44-.26-.81-.64-1.11-1.15-.3-.5-.44-1.1-.44-1.79v-.16c0-1.07.26-1.97.77-2.68.51-.71,1.15-1.17,1.9-1.38,1.05-.29,1.89,0,2.51.87v1.18c-.26-.57-.62-.98-1.07-1.23Z" fill="#fffbf2" stroke="#fffbf2" stroke-miterlimit="10"/><path d="m650.95,255.19l.56-.16c1.96-.55,3.55-.13,4.77,1.25,1.21,1.39,1.82,3.29,1.82,5.71s-.6,4.64-1.81,6.69c-1.2,2.04-2.8,3.32-4.77,3.84l-.56.15v-17.48Zm.7.5l-.14.04v16.06l.14-.04c1.71-.45,3.11-1.61,4.21-3.48,1.1-1.87,1.65-3.91,1.65-6.12s-.55-3.96-1.65-5.25-2.5-1.69-4.21-1.21Z" fill="#fffbf2" stroke="#fffbf2" stroke-miterlimit="10"/><path d="m664.14,269.45l-.16.04c-1.13.3-2.11,0-2.95-.9s-1.25-2.09-1.25-3.57.42-2.89,1.24-4.2c.83-1.32,1.86-2.14,3.09-2.48s2.29.02,3.17,1.07l-5.62,8.82c.77.61,1.52.82,2.23.63s1.36-.58,1.92-1.16,1.04-1.29,1.41-2.11v1.2c-.85,1.45-1.88,2.34-3.08,2.66Zm-.19-10.41c-.95.26-1.79.97-2.52,2.13s-1.09,2.37-1.09,3.62.31,2.26.94,3.04l5.2-8.21c-.74-.65-1.59-.84-2.53-.58Z" fill="#fffbf2" stroke="#fffbf2" stroke-miterlimit="10"/><path d="m670.94,257.08c-.31.09-.59.3-.83.63-.24.33-.36.7-.36,1.09s.14.72.41.98.6.47.98.65c.38.17.76.37,1.15.58.39.21.71.53.99.94.27.42.41.94.41,1.58,0,.93-.27,1.8-.81,2.6-.54.8-1.19,1.3-1.95,1.5-.48.13-.93.11-1.35-.06-.41-.17-.72-.45-.91-.86v-1.13c.46,1.2,1.19,1.67,2.2,1.4.63-.17,1.15-.56,1.58-1.18.43-.62.64-1.24.64-1.87s-.14-1.11-.41-1.47c-.27-.35-.6-.63-.99-.82-.39-.2-.77-.39-1.15-.58-.38-.19-.7-.46-.98-.8s-.41-.8-.41-1.36.17-1.08.51-1.56c.34-.48.79-.8,1.33-.94s1.01,0,1.39.45v.97c-.39-.65-.88-.9-1.47-.74Z" fill="#fffbf2" stroke="#fffbf2" stroke-miterlimit="10"/><path d="m676.11,252.69c-.35.1-.53-.07-.53-.5s.18-.69.53-.79.53.07.53.5-.18.69-.53.79Zm.29,2.54v10.68l-.58.15v-10.68l.58-.16Z" fill="#fffbf2" stroke="#fffbf2" stroke-miterlimit="10"/><path d="m686.71,252.38l.59-.16v9.79c0,1.86-.4,3.42-1.19,4.7-.79,1.28-1.83,2.08-3.1,2.42-.7.18-1.38.15-2.04-.09s-1.17-.65-1.54-1.22v-1.1c.32.68.81,1.19,1.49,1.51.68.33,1.38.4,2.09.22,1.08-.28,1.97-.99,2.66-2.12.69-1.13,1.04-2.52,1.04-4.17v-1.61c-.33.97-.86,1.81-1.57,2.53-.72.72-1.45,1.18-2.22,1.38-1.2.32-2.23.04-3.09-.84s-1.28-2.09-1.28-3.63.43-2.98,1.28-4.32c.86-1.34,1.89-2.17,3.09-2.5.8-.22,1.55-.16,2.24.16s1.21.9,1.55,1.72v-2.69Zm-7.57,7.46c0,1.35.37,2.41,1.13,3.19s1.65,1.03,2.69.75,1.93-1,2.67-2.18,1.11-2.45,1.11-3.81-.37-2.43-1.11-3.21-1.63-1.03-2.67-.74-1.93,1.02-2.69,2.2-1.13,2.45-1.13,3.8Z" fill="#fffbf2" stroke="#fffbf2" stroke-miterlimit="10"/><path d="m690.32,262.22l-.6.16v-10.82l.6-.16v2.19c.63-1.81,1.72-2.92,3.25-3.35,1.05-.29,1.93-.06,2.65.68.72.74,1.07,1.78,1.07,3.12v6.34l-.6.16v-6.33c0-1.11-.3-2-.91-2.65-.61-.66-1.34-.86-2.21-.63s-1.62.85-2.27,1.85c-.65,1-.98,2.05-.98,3.15v6.3Z" fill="#fffbf2" stroke="#fffbf2" stroke-miterlimit="10"/><polygon points="703.31 269.55 517.11 317.4 517.11 285.26 703.31 231.92 703.31 269.55" fill="none" stroke="#b32524" stroke-linejoin="round" stroke-width="3"/></g><g filter="url(#drop-shadow-6)"><polygon points="533.32 424.68 518.68 427.15 518.68 403.68 533.32 400.91 533.32 424.68" fill="#ffeebd" stroke-width="0"/><polygon points="556.04 420.8 540.79 423.36 540.79 399.35 556.04 396.45 556.04 420.8" fill="#ffeebd" stroke-width="0"/><polygon points="581.17 416.47 565.25 419.15 565.25 394.49 581.17 391.46 581.17 416.47" fill="#ffeebd" stroke-width="0"/><polygon points="608.85 411.78 592.15 414.59 592.15 389.72 608.85 386.55 608.85 411.78" fill="#ffeebd" stroke-width="0"/><polygon points="638.51 406.65 620.97 409.61 620.97 383.83 638.51 380.49 638.51 406.65" fill="#ffeebd" stroke-width="0"/><polygon points="668.99 401.49 650.57 404.6 650.57 378.06 668.99 374.55 668.99 401.49" fill="#ffeebd" stroke-width="0"/><polygon points="701.68 395.8 682.28 399.08 682.28 371.95 701.68 368.26 701.68 395.8" fill="#ffeebd" stroke-width="0"/><polygon points="533.15 460.89 518.48 462.7 518.48 439.22 533.15 437.09 533.15 460.89" fill="#ffeebd" stroke-width="0"/><polygon points="555.91 458.03 540.64 459.91 540.64 435.87 555.91 433.66 555.91 458.03" fill="#ffeebd" stroke-width="0"/><polygon points="581.1 454.83 565.14 456.8 565.14 432.11 581.1 429.79 581.1 454.83" fill="#ffeebd" stroke-width="0"/><polygon points="608.84 451.38 592.11 453.45 592.11 428.54 608.84 426.12 608.84 451.38" fill="#ffeebd" stroke-width="0"/><polygon points="638.56 447.58 620.99 449.75 620.99 423.94 638.56 421.39 638.56 447.58" fill="#ffeebd" stroke-width="0"/><polygon points="669.11 443.79 650.65 446.07 650.65 419.5 669.11 416.82 669.11 443.79" fill="#ffeebd" stroke-width="0"/><polygon points="701.88 439.57 682.44 441.97 682.44 414.82 701.88 412 701.88 439.57" fill="#ffeebd" stroke-width="0"/><polygon points="533.4 350.19 518.78 353.57 518.78 330.12 533.4 326.43 533.4 350.19" fill="#ffeebd" stroke-width="0"/><polygon points="556.1 344.89 540.87 348.41 540.87 324.4 556.1 320.56 556.1 344.89" fill="#ffeebd" stroke-width="0"/><polygon points="581.21 338.99 565.3 342.67 565.3 318.02 581.21 313.99 581.21 338.99" fill="#ffeebd" stroke-width="0"/><polygon points="608.85 332.57 592.18 336.42 592.18 311.56 608.85 307.35 608.85 332.57" fill="#ffeebd" stroke-width="0"/><polygon points="638.48 325.58 620.96 329.63 620.96 303.87 638.48 299.43 638.48 325.58" fill="#ffeebd" stroke-width="0"/><polygon points="668.93 318.52 650.52 322.77 650.52 296.25 668.93 291.59 668.93 318.52" fill="#ffeebd" stroke-width="0"/><polygon points="701.58 310.78 682.2 315.27 682.2 288.16 701.58 283.26 701.58 310.78" fill="#ffeebd" stroke-width="0"/><polygon points="533.32 387.34 518.68 390.25 518.68 366.79 533.32 363.57 533.32 387.34" fill="#ffeebd" stroke-width="0"/><polygon points="556.04 382.78 540.79 385.8 540.79 361.79 556.04 358.43 556.04 382.78" fill="#ffeebd" stroke-width="0"/><polygon points="581.17 377.7 565.25 380.86 565.25 356.19 581.17 352.69 581.17 377.7" fill="#ffeebd" stroke-width="0"/><polygon points="608.85 372.18 592.15 375.49 592.15 350.61 608.85 346.94 608.85 372.18" fill="#ffeebd" stroke-width="0"/><polygon points="638.51 366.16 620.97 369.64 620.97 343.86 638.51 339.99 638.51 366.16" fill="#ffeebd" stroke-width="0"/><polygon points="668.99 360.08 650.57 363.74 650.57 337.2 668.99 333.14 668.99 360.08" fill="#ffeebd" stroke-width="0"/><polygon points="701.68 353.41 682.28 357.27 682.28 330.14 701.68 325.87 701.68 353.41" fill="#ffeebd" stroke-width="0"/></g><path d="m675.66,182.24l-37.11-66.22s-.02-.05-.02-.07v-7.55c0-.18.24-.27.32-.12l37.11,67.36s.02.05.02.07v6.41c0,.17-.23.27-.31.12Z" fill="#395f72" filter="url(#drop-shadow-7)" stroke-width="0"/><polygon points="401.52 608.39 375.67 609.11 375.67 254.38 401.52 270.94 401.52 608.39" fill="#395f72" stroke-width="0"/><polygon points="375.76 435.67 323.15 444.55 323.15 273.33 375.76 254.38 375.76 435.67" fill="#557687" stroke-width="0"/><polygon points="362.45 618.82 224.96 624.23 224.96 100.53 362.45 200.51 362.45 618.82" fill="#314f60" stroke-width="0"/><polygon points="456.33 429.82 435.91 422.93 435.91 328.05 456.33 338.28 456.33 429.82" fill="#1c2f3a" stroke-width="0"/><polygon points="436.03 418.37 388.06 425.84 388.06 338.28 436.03 327.23 436.03 418.37" fill="#25404d" stroke-width="0"/><polygon points="224.94 624.33 78.38 619.36 78.38 191.8 224.94 100.42 224.94 624.33" fill="#557687" stroke-width="0"/><line x1="221.72" y1="627.75" x2="664.57" y2="661.51" fill="none" stroke-width="0"/><line x1="217.82" y1="457.62" x2="633.41" y2="383.59" fill="none" stroke-width="0"/><path d="m225.06,101.28l-147.94,92.06c-.18.11-.33-.06-.33-.38v-6.65l148.26-93.91v8.89Z" fill="#25404d" filter="url(#drop-shadow-8)" stroke-width="0"/><path d="m363.55,201.76l-138.54-100.59v-8.76l138.91,102.63s.07.09.07.14v6.3c0,.32-.2.44-.43.27Z" fill="#1c2f3a" filter="url(#drop-shadow-9)" stroke-width="0"/><path d="m239.11,337.61h0c-1.31.42-2.66-.73-2.66-2.27v-63.4c0-.92.5-1.72,1.26-2.03h0c1.33-.54,2.78.62,2.78,2.22v63.4c0,.97-.56,1.81-1.39,2.07Z" fill="#141f26" stroke-width="0"/><path d="m238.07,274.39l-16.14,6.43c-.81.32-1.69-.27-1.69-1.15h0c0-.5.31-.96.77-1.14l16.14-6.49c.81-.33,1.69.27,1.69,1.14v.05c0,.51-.31.96-.78,1.15Z" fill="#141f26" stroke-width="0"/><path d="m238.07,333.95l-16.14,5.24c-.81.26-1.69-.4-1.69-1.27h0c0-.5.31-.93.77-1.09l16.14-5.3c.81-.27,1.69.4,1.69,1.27v.05c0,.51-.31.94-.78,1.09Z" fill="#141f26" stroke-width="0"/><g filter="url(#drop-shadow-10)"><polygon points="246.36 325.63 231.3 330.63 231.3 280.84 246.36 274.91 246.36 325.63" fill="#b32524" stroke="#141f26" stroke-linejoin="round" stroke-width="2"/><g filter="url(#drop-shadow-11)"><path d="m242.27,290.45c.16-.06.24.02.24.25,0,.19-.11.42-.34.7-.42.51-.77.87-1.06,1.09-.54.4-1.1.72-1.69.94s-1.15.3-1.7.23c-.54-.07-1-.27-1.39-.61-.8-.72-1.2-1.88-1.2-3.49,0-.78.11-1.53.34-2.27.22-.74.54-1.41.93-2.03.84-1.31,1.9-2.21,3.18-2.71.72-.28,1.36-.37,1.9-.26.58.11.88.28.88.51,0,.09-.02.19-.07.27-.05.09-.1.14-.17.17-.12.05-.24.02-.34-.08-.1-.1-.24-.18-.41-.23-.17-.05-.36-.07-.57-.08-.42,0-.8.06-1.14.19s-.62.27-.85.42v9.54c.27-.04.51-.1.72-.18s.42-.17.64-.29c.22-.12.43-.25.64-.41.47-.35.82-.75,1.06-1.19.09-.16.15-.28.2-.35.05-.07.11-.12.17-.14Z" fill="#fec215" stroke-width="0"/><path d="m236.36,308.46c-.13-.05-.25-.11-.35-.19-.1-.07-.15-.17-.15-.3,0-.24.08-.38.23-.44.1-.04.22,0,.34.1.13.1.27.18.42.24.16.06.33.09.51.1.38.03.73-.02,1.05-.13s.57-.23.75-.35c.18-.12.32-.24.44-.38.25-.29.38-.6.38-.92,0-.29-.11-.55-.33-.77-.19-.19-.45-.4-.79-.63l-.98-.64c-.98-.62-1.56-1.31-1.74-2.06-.06-.26-.09-.56-.09-.91s.06-.71.18-1.09.3-.74.54-1.08c.51-.74,1.2-1.27,2.08-1.59.45-.17.85-.23,1.21-.19.36.04.6.1.74.19.13.09.2.18.2.29,0,.23-.07.37-.22.42-.08.03-.18.01-.27-.06-.1-.07-.2-.13-.32-.17-.12-.04-.25-.06-.4-.07-.32-.02-.64.03-.95.14-.57.21-.86.56-.86,1.05,0,.2.05.37.16.51.18.23.54.54,1.08.9.54.37.97.7,1.29,1.01.33.3.57.59.74.87.27.43.41.94.41,1.51s-.08,1.09-.24,1.55c-.16.46-.38.88-.66,1.27-.59.82-1.33,1.38-2.21,1.7s-1.61.35-2.21.11Z" fill="#fec215" stroke-width="0"/><path d="m236.36,323.03c-.13-.05-.25-.12-.35-.19-.1-.08-.15-.18-.15-.3,0-.24.08-.38.23-.44.1-.04.22,0,.34.11.13.11.27.19.42.25.16.06.33.1.51.11.38.03.73,0,1.05-.11s.57-.22.75-.33c.18-.11.32-.24.44-.37.25-.29.38-.59.38-.91,0-.29-.11-.55-.33-.77-.19-.19-.45-.4-.79-.64l-.98-.66c-.98-.64-1.56-1.34-1.74-2.09-.06-.26-.09-.56-.09-.91s.06-.71.18-1.09.3-.74.54-1.07c.51-.73,1.2-1.25,2.08-1.56.45-.16.85-.21,1.21-.17.36.05.6.11.74.2.13.09.2.19.2.3,0,.23-.07.37-.22.42-.08.03-.18,0-.27-.07-.1-.08-.2-.13-.32-.17-.12-.04-.25-.07-.4-.08-.32-.03-.64.02-.95.13-.57.2-.86.54-.86,1.03,0,.2.05.37.16.51.18.24.54.55,1.08.92.54.38.97.72,1.29,1.03.33.31.57.6.74.88.27.44.41.95.41,1.52s-.08,1.09-.24,1.54c-.16.45-.38.87-.66,1.26-.59.81-1.33,1.36-2.21,1.66s-1.61.32-2.21.07Z" fill="#fec215" stroke-width="0"/></g></g><g filter="url(#drop-shadow-12)"><polygon points="260.06 331.75 252.43 328.64 252.43 316.9 260.06 320.15 260.06 331.75" fill="#ffe69e" stroke-width="0"/><polygon points="283.68 341.15 279.2 339.33 279.2 328.07 283.68 329.97 283.68 341.15" fill="#ffe69e" stroke-width="0"/><polygon points="277.81 338.84 273.24 336.98 273.24 325.61 277.81 327.55 277.81 338.84" fill="#ffe69e" stroke-width="0"/><polygon points="308 351.13 299.45 347.63 299.45 336.74 308 340.38 308 351.13" fill="#ffe69e" stroke-width="0"/><polygon points="325.03 358.07 321.13 356.48 321.13 345.97 325.03 347.63 325.03 358.07" fill="#ffe69e" stroke-width="0"/><polygon points="330.5 360.35 326.67 358.79 326.67 348.38 330.5 350.01 330.5 360.35" fill="#ffe69e" stroke-width="0"/><polygon points="346.21 366.88 342.59 365.4 342.59 355.28 346.21 356.82 346.21 366.88" fill="#ffe69e" stroke-width="0"/><polygon points="354.73 370.28 347.82 367.46 347.82 357.43 354.73 360.37 354.73 370.28" fill="#ffe69e" stroke-width="0"/><polygon points="249.04 438.45 241.16 436.56 241.16 424.62 249.04 426.65 249.04 438.45" fill="#ffe69e" stroke-width="0"/><polygon points="273.46 444.05 268.83 442.94 268.83 431.5 273.46 432.69 273.46 444.05" fill="#ffe69e" stroke-width="0"/><polygon points="267.39 442.68 262.68 441.55 262.68 430 267.39 431.21 267.39 442.68" fill="#ffe69e" stroke-width="0"/><polygon points="298.57 450.11 289.75 447.99 289.75 436.92 298.57 439.19 298.57 450.11" fill="#ffe69e" stroke-width="0"/><polygon points="316.13 454.31 312.1 453.35 312.1 442.68 316.13 443.71 316.13 454.31" fill="#ffe69e" stroke-width="0"/><polygon points="321.77 455.71 317.82 454.76 317.82 444.2 321.77 445.21 321.77 455.71" fill="#ffe69e" stroke-width="0"/><polygon points="337.95 459.7 334.22 458.81 334.22 448.53 337.95 449.49 337.95 459.7" fill="#ffe69e" stroke-width="0"/><polygon points="346.71 461.73 339.6 460.02 339.6 449.84 346.71 451.67 346.71 461.73" fill="#ffe69e" stroke-width="0"/><polygon points="242.03 576.53 233.97 576.29 233.97 564.22 242.03 564.6 242.03 576.53" fill="#ffe69e" stroke-width="0"/><polygon points="266.95 577.02 262.23 576.89 262.23 565.32 266.95 565.54 266.95 577.02" fill="#ffe69e" stroke-width="0"/><polygon points="260.76 576.92 252.05 576.66 252.05 564.91 260.76 565.33 260.76 576.92" fill="#ffe69e" stroke-width="0"/><polygon points="241.04 526.82 230.47 525.71 230.47 513.58 241.04 514.87 241.04 526.82" fill="#ffe69e" stroke-width="0"/><polygon points="262.02 528.99 257.22 528.5 257.22 516.84 262.02 517.42 262.02 528.99" fill="#ffe69e" stroke-width="0"/><polygon points="268.73 529.74 264.03 529.26 264.03 517.72 268.73 518.29 268.73 529.74" fill="#ffe69e" stroke-width="0"/><polygon points="287.92 531.86 283.5 531.41 283.5 520.22 287.92 520.76 287.92 531.86" fill="#ffe69e" stroke-width="0"/><polygon points="298.28 532.86 289.88 531.98 289.88 520.91 298.28 521.94 298.28 532.86" fill="#ffe69e" stroke-width="0"/><polygon points="244.04 198.49 238.97 195.46 238.97 183.48 244.04 186.6 244.04 198.49" fill="#ffe69e" stroke-width="0"/><polygon points="256.23 205.81 248.52 201.19 248.52 189.38 256.23 194.14 256.23 205.81" fill="#ffe69e" stroke-width="0"/><polygon points="271.48 214.68 266.82 211.9 266.82 200.42 271.48 203.29 271.48 214.68" fill="#ffe69e" stroke-width="0"/><polygon points="280.13 219.88 275.6 217.17 275.6 205.85 280.13 208.64 280.13 219.88" fill="#ffe69e" stroke-width="0"/><polygon points="304.72 234.66 296.08 229.48 296.08 218.52 304.72 223.85 304.72 234.66" fill="#ffe69e" stroke-width="0"/><polygon points="312.5 239.33 308.42 236.89 308.42 226.16 312.5 228.66 312.5 239.33" fill="#ffe69e" stroke-width="0"/><polygon points="327.46 248.32 323.59 246 323.59 235.54 327.46 237.92 327.46 248.32" fill="#ffe69e" stroke-width="0"/><polygon points="341.7 256.87 338.01 254.67 338.01 244.46 341.7 246.73 341.7 256.87" fill="#ffe69e" stroke-width="0"/><polygon points="351.94 263.02 344.96 258.84 344.96 248.76 351.94 253.07 351.94 263.02" fill="#ffe69e" stroke-width="0"/><polygon points="235.51 143.52 230.83 140.36 230.83 130.36 235.51 133.59 235.51 143.52" fill="#ffe69e" stroke-width="0"/><polygon points="241.2 147.35 236.6 144.25 236.6 134.34 241.2 137.51 241.2 147.35" fill="#ffe69e" stroke-width="0"/><polygon points="263.2 162.13 258.9 159.23 258.9 149.65 263.2 152.61 263.2 162.13" fill="#ffe69e" stroke-width="0"/><polygon points="270 166.73 265.79 163.89 265.79 154.41 270 157.31 270 166.73" fill="#ffe69e" stroke-width="0"/><polygon points="288.92 179.52 284.95 176.84 284.95 167.65 288.92 170.38 288.92 179.52" fill="#ffe69e" stroke-width="0"/><polygon points="297.39 185.12 294.64 183.27 294.64 174.22 297.39 176.11 297.39 185.12" fill="#ffe69e" stroke-width="0"/><polygon points="314.9 197.04 307.41 191.99 307.41 183.12 314.9 188.28 314.9 197.04" fill="#ffe69e" stroke-width="0"/><polygon points="323.07 202.36 315.79 197.45 315.79 188.71 323.07 193.73 323.07 202.36" fill="#ffe69e" stroke-width="0"/><polygon points="338.54 212.99 332.35 208.81 332.35 200.31 338.54 204.58 338.54 212.99" fill="#ffe69e" stroke-width="0"/><polygon points="354.82 224 351.65 221.86 351.65 213.65 354.82 215.83 354.82 224" fill="#ffe69e" stroke-width="0"/><polygon points="235.03 360.95 230.34 359.3 230.34 349.3 235.03 351.01 235.03 360.95" fill="#ffe69e" stroke-width="0"/><polygon points="240.73 362.95 236.12 361.33 236.12 351.41 240.73 353.1 240.73 362.95" fill="#ffe69e" stroke-width="0"/><polygon points="269.57 373.02 265.35 371.54 265.35 362.05 269.57 363.6 269.57 373.02" fill="#ffe69e" stroke-width="0"/><polygon points="288.51 379.7 284.53 378.31 284.53 369.1 288.51 370.56 288.51 379.7" fill="#ffe69e" stroke-width="0"/><polygon points="292.47 380.98 289.68 380 289.68 370.88 292.47 371.9 292.47 380.98" fill="#ffe69e" stroke-width="0"/><polygon points="314.52 388.83 307.03 386.2 307.03 377.32 314.52 380.06 314.52 388.83" fill="#ffe69e" stroke-width="0"/><polygon points="322.71 391.51 315.42 388.95 315.42 380.2 322.71 382.87 322.71 391.51" fill="#ffe69e" stroke-width="0"/><polygon points="338.19 397.14 331.99 394.96 331.99 386.46 338.19 388.73 338.19 397.14" fill="#ffe69e" stroke-width="0"/><polygon points="354.49 402.89 351.32 401.78 351.32 393.56 354.49 394.72 354.49 402.89" fill="#ffe69e" stroke-width="0"/><polygon points="346.14 292.78 342.29 290.7 342.29 282.82 346.14 284.96 346.14 292.78" fill="#ffe69e" stroke-width="0"/><polygon points="338.81 288.83 334.86 286.69 334.86 278.71 338.81 280.91 338.81 288.83" fill="#ffe69e" stroke-width="0"/><polygon points="318.66 277.9 314.43 275.61 314.43 267.35 318.66 269.7 318.66 277.9" fill="#ffe69e" stroke-width="0"/><polygon points="313.37 274.88 309.06 272.55 309.06 264.21 313.37 266.6 313.37 274.88" fill="#ffe69e" stroke-width="0"/><polygon points="297.24 266.31 292.69 263.84 292.69 255.28 297.24 257.8 297.24 266.31" fill="#ffe69e" stroke-width="0"/><polygon points="291.67 263.29 287.04 260.78 287.04 252.14 291.67 254.71 291.67 263.29" fill="#ffe69e" stroke-width="0"/><polygon points="277.2 255.45 272.35 252.82 272.35 243.97 277.2 246.67 277.2 255.45" fill="#ffe69e" stroke-width="0"/><polygon points="237.38 233.88 231.89 230.91 231.89 221.5 237.38 224.55 237.38 233.88" fill="#ffe69e" stroke-width="0"/><polygon points="247.02 239.11 239.58 235.08 239.58 225.77 247.02 229.91 247.02 239.11" fill="#ffe69e" stroke-width="0"/><polygon points="328.62 283.29 321.71 279.55 321.71 271.39 328.62 275.23 328.62 283.29" fill="#ffe69e" stroke-width="0"/><polygon points="353.31 334.08 348.76 331.93 348.76 322.88 353.31 325.11 353.31 334.08" fill="#ffe69e" stroke-width="0"/><polygon points="341.36 328.36 338.75 327.12 338.75 317.91 341.36 319.19 341.36 328.36" fill="#ffe69e" stroke-width="0"/><polygon points="311.62 314.29 308.11 312.63 308.11 303.26 311.62 304.98 311.62 314.29" fill="#ffe69e" stroke-width="0"/><polygon points="294.89 306.39 291.18 304.63 291.18 295 294.89 296.82 294.89 306.39" fill="#ffe69e" stroke-width="0"/><polygon points="279.41 298.82 273.17 295.86 273.17 285.95 279.41 289.01 279.41 298.82" fill="#ffe69e" stroke-width="0"/><polygon points="271.74 295.18 267.75 293.28 267.75 283.29 271.74 285.25 271.74 295.18" fill="#ffe69e" stroke-width="0"/><polygon points="259.84 289.56 255.31 287.42 255.31 277.23 259.84 279.45 259.84 289.56" fill="#ffe69e" stroke-width="0"/><polygon points="325.48 320.78 320.16 318.26 320.16 308.75 325.48 311.36 325.48 320.78" fill="#ffe69e" stroke-width="0"/><polygon points="357.31 423.67 354.36 422.74 354.36 430.64 357.31 431.53 357.31 423.67" fill="#ffe69e" stroke-width="0"/><polygon points="352.08 422.02 349.07 421.07 349.07 429.05 352.08 429.96 352.08 422.02" fill="#ffe69e" stroke-width="0"/><polygon points="341.69 418.93 338.57 417.95 338.57 426.08 341.69 427.02 341.69 418.93" fill="#ffe69e" stroke-width="0"/><polygon points="312.42 409.72 308.96 408.63 308.96 417.19 312.42 418.22 312.42 409.72" fill="#ffe69e" stroke-width="0"/><polygon points="266.4 395.24 257.59 392.47 257.59 401.75 266.4 404.4 266.4 395.24" fill="#ffe69e" stroke-width="0"/><polygon points="255.61 392 251.46 390.69 251.46 400.07 255.61 401.31 255.61 392" fill="#ffe69e" stroke-width="0"/><polygon points="237.47 386.2 233.08 384.82 233.08 394.46 237.47 395.78 237.47 386.2" fill="#ffe69e" stroke-width="0"/><polygon points="283.11 400.71 279.3 399.51 279.3 408.49 283.11 409.63 283.11 400.71" fill="#ffe69e" stroke-width="0"/><polygon points="305.6 407.6 302.06 406.48 302.06 415.13 305.6 416.2 305.6 407.6" fill="#ffe69e" stroke-width="0"/><polygon points="324.95 413.66 321.63 412.62 321.63 420.99 324.95 421.99 324.95 413.66" fill="#ffe69e" stroke-width="0"/><polygon points="331.78 415.81 325.73 413.91 325.73 422.22 331.78 424.04 331.78 415.81" fill="#ffe69e" stroke-width="0"/></g><line x1="275.92" y1="502.67" x2="275.98" y2="502.68" fill="none" stroke="#f15a29" stroke-miterlimit="10"/><polygon points="608.92 630.32 289.53 621.43 289.53 443.6 608.92 387.36 608.92 630.32" fill="#557687" stroke-width="0"/><polyline points="234.39 495.51 516.15 458.52 568.43 478.78 292.22 507.51" fill="#1c2f3a" filter="url(#drop-shadow-13)" stroke-width="0"/><path d="m581.47,542.01c0,9.98-8.58,18.41-18.99,18.81-10.22.4-18.37-7.11-18.37-16.77s8.15-18.06,18.37-18.78c10.41-.73,18.99,6.75,18.99,16.73Z" fill="#ffeebd" filter="url(#drop-shadow-14)" stroke="#25404d" stroke-miterlimit="10" stroke-width="3"/><line x1="562.47" y1="526.29" x2="562.49" y2="559.78" fill="none" stroke="#25404d" stroke-miterlimit="10"/><line x1="545.12" y1="544.05" x2="580.47" y2="542.05" fill="none" stroke="#25404d" stroke-miterlimit="10"/><polygon points="568.43 478.78 516.15 458.52 516.15 404.24 568.43 431.89 568.43 478.78" fill="#25404d" stroke-width="0"/><g filter="url(#drop-shadow-15)"><path d="m235.22,496.18c-.48,0-.95-.17-1.32-.5-.43-.38-.68-.93-.68-1.5v-40.13c0-.97.7-1.81,1.66-1.97l280.7-48.48c.11-.02.23-.03.34-.03.47,0,.92.16,1.29.47.45.38.71.94.71,1.53v51.86c0,1-.75,1.85-1.74,1.98l-280.7,36.75c-.09.01-.17.02-.26.02Z" fill="#fee187" stroke-width="0"/><path d="m515.92,405.57v51.86l-280.7,36.75v-40.13l280.7-48.48m0-4c-.23,0-.45.02-.68.06l-280.7,48.48c-1.92.33-3.32,2-3.32,3.94v40.13c0,1.15.5,2.25,1.36,3.01.73.64,1.67.99,2.64.99.17,0,.35-.01.52-.03l280.7-36.75c1.99-.26,3.48-1.96,3.48-3.97v-51.86c0-1.18-.52-2.3-1.42-3.06-.73-.61-1.64-.94-2.58-.94h0Z" fill="#b32524" stroke-width="0"/><path d="m239.22,490.62c-.24,0-.48-.09-.66-.25-.22-.19-.34-.46-.34-.75v-32.2c0-.49.35-.9.83-.99l272.7-47.1c.06,0,.11-.01.17-.01.23,0,.46.08.64.24.23.19.36.47.36.76v43.6c0,.5-.37.93-.87.99l-272.7,35.7s-.09,0-.13,0Z" fill="#fffbf2" stroke-width="0"/><path d="m511.92,410.32v43.6l-272.7,35.7v-32.2l272.7-47.1m0-2c-.11,0-.23,0-.34.03l-272.7,47.1c-.96.17-1.66,1-1.66,1.97v32.2c0,.58.25,1.12.68,1.5.37.32.84.5,1.32.5.09,0,.17,0,.26-.02l272.7-35.7c1-.13,1.74-.98,1.74-1.98v-43.6c0-.59-.26-1.15-.71-1.53-.36-.31-.82-.47-1.29-.47h0Z" fill="#b32524" stroke-width="0"/><path d="m254.93,479.13c.29-.04.44.17.44.65,0,.39-.21.81-.62,1.26-.77.84-1.42,1.41-1.95,1.71-.99.56-2.02.91-3.1,1.06s-2.11.01-3.11-.4c-.99-.42-1.83-1.07-2.53-1.97-1.45-1.88-2.17-4.48-2.17-7.78,0-1.59.2-3.09.61-4.48.41-1.4.97-2.64,1.7-3.71,1.53-2.28,3.47-3.61,5.82-4,1.32-.22,2.49-.09,3.5.41,1.08.51,1.62,1.01,1.62,1.5,0,.2-.04.37-.13.53-.09.16-.19.25-.31.27-.23.04-.44-.08-.62-.34-.19-.26-.44-.49-.75-.67-.32-.19-.66-.33-1.04-.45-.77-.21-1.46-.27-2.09-.16s-1.14.25-1.55.44v19.66c.49.05.93.05,1.31,0s.77-.14,1.17-.27c.4-.13.79-.3,1.17-.52.86-.49,1.51-1.13,1.94-1.91.16-.29.28-.49.37-.61s.2-.18.32-.2Z" fill="#b32524" stroke-width="0"/><path d="m259.75,481.01c-.25-.17-.47-.36-.66-.56-.18-.2-.28-.43-.28-.69,0-.5.15-.77.44-.81.2-.03.41.1.65.37.24.28.51.51.8.7.3.19.62.35.97.46.72.24,1.39.32,2,.24s1.09-.21,1.42-.37.61-.36.84-.59c.49-.5.73-1.08.73-1.75,0-.62-.21-1.21-.63-1.78-.35-.48-.85-1.05-1.5-1.69l-1.87-1.82c-1.87-1.78-2.97-3.48-3.3-5.13-.12-.57-.17-1.22-.17-1.95s.11-1.46.34-2.2c.23-.74.57-1.41,1.02-2.02.97-1.31,2.28-2.11,3.96-2.39.86-.14,1.63-.09,2.31.16.69.25,1.15.49,1.41.73.25.24.38.48.38.71,0,.48-.14.75-.42.79-.16.03-.34-.06-.52-.26-.18-.2-.39-.37-.61-.5-.22-.14-.48-.25-.77-.34-.62-.19-1.22-.24-1.82-.14-1.09.18-1.63.78-1.63,1.8,0,.43.1.81.3,1.14.35.58,1.04,1.38,2.06,2.4s1.85,1.93,2.47,2.73c.62.79,1.1,1.52,1.42,2.19.52,1.04.78,2.17.78,3.39s-.15,2.26-.45,3.15c-.3.89-.72,1.67-1.26,2.36-1.14,1.44-2.54,2.27-4.21,2.5s-3.06-.05-4.2-.83Z" fill="#b32524" stroke-width="0"/><path d="m274.21,478.98c-.26-.17-.49-.36-.68-.57-.19-.2-.29-.44-.29-.7,0-.51.15-.78.46-.82.2-.03.43.1.67.38.25.28.53.52.83.71.31.19.64.35,1,.47.75.24,1.44.32,2.07.23s1.13-.22,1.47-.38.64-.37.87-.6c.5-.51.75-1.1.75-1.78,0-.63-.22-1.23-.65-1.81-.37-.49-.88-1.06-1.55-1.72l-1.94-1.84c-1.94-1.8-3.07-3.54-3.42-5.22-.12-.58-.18-1.24-.18-1.98s.12-1.48.35-2.24c.24-.76.59-1.44,1.05-2.06,1-1.34,2.37-2.15,4.1-2.44.89-.15,1.69-.1,2.4.15.71.25,1.2.5,1.46.74.26.24.39.49.39.72,0,.49-.15.76-.44.81-.17.03-.35-.06-.54-.26-.19-.2-.4-.37-.64-.51-.23-.14-.5-.25-.8-.34-.64-.19-1.27-.24-1.88-.14-1.13.19-1.69.8-1.69,1.84,0,.43.1.82.31,1.16.36.59,1.07,1.4,2.13,2.44s1.92,1.96,2.56,2.77c.65.81,1.14,1.55,1.48,2.22.54,1.06.81,2.21.81,3.45s-.16,2.3-.47,3.21c-.31.9-.75,1.71-1.31,2.4-1.18,1.47-2.63,2.32-4.37,2.56s-3.17-.04-4.35-.84Z" fill="#b32524" stroke-width="0"/><path d="m307.65,474.07c.42-.06.63.13.63.57,0,.2-.09.39-.27.56-.18.18-.5.3-.95.36l-11.77,1.63,6.22-22.83-3.05.5c-.6.1-1.03.21-1.27.32-.31.14-.53.22-.65.24-.41.07-.62-.12-.62-.55,0-.51.39-.83,1.16-.96l10.75-1.78-6.16,22.98,4.02-.56c.61-.08,1.03-.18,1.28-.28.28-.12.51-.19.68-.21Z" fill="#b32524" stroke-width="0"/><path d="m323.63,471.83c.43-.06.65.13.65.58,0,.2-.09.39-.28.58-.19.18-.51.31-.96.37l-10.57,1.46v-23.45c3.25-.54,6.52-1.08,9.82-1.63l1.03-.22c.63-.1.95.09.95.58,0,.19-.05.38-.16.56-.11.18-.23.28-.36.3-.22.04-.45.04-.7.01-.36-.04-.86,0-1.49.09l-2.77.46v5.09l2.28-.36,1.55-.33c.19-.03.34,0,.47.1.13.1.2.25.2.46,0,.47-.24.74-.71.82l-.54.07c-.28,0-.51.03-.69.06l-2.56.4v14.89l2.77-.39c.62-.09,1.06-.18,1.32-.29.31-.12.56-.2.73-.22Z" fill="#b32524" stroke-width="0"/><path d="m330.14,469.95l.04,1.69c0,.29-.06.53-.18.7-.12.17-.26.27-.43.3s-.31-.03-.42-.16c-.11-.13-.17-.28-.17-.46s.01-.34.03-.49c.02-.15.04-.33.06-.52.04-.33.06-1.15.06-2.46v-21.02l14.15,12.43v-10.23c0-.78-.02-1.33-.05-1.66-.04-.53-.07-.9-.07-1.12,0-.57.19-.89.57-.95.15-.02.29.02.43.13.14.12.21.3.21.57v.6l-.05,2.5v21.55l-14.18-12.48v11.08Z" fill="#b32524" stroke-width="0"/><path d="m376.01,464.72l.03-1.23v-2.81c-1.33,2.98-3.3,5.02-5.88,6.14-.81.35-1.76.6-2.83.75s-2.18.02-3.32-.38c-1.14-.4-2.13-1.08-2.99-2.02-1.87-2.04-2.8-4.94-2.8-8.7s.99-6.8,2.96-9.61c2.07-2.92,4.68-4.65,7.84-5.18,1.61-.27,3.07-.13,4.38.41.8.32,1.37.64,1.7.97.33.33.5.61.5.84s-.06.44-.17.62c-.11.18-.27.29-.48.33s-.43-.07-.67-.3c-.73-.69-1.36-1.11-1.92-1.27s-.99-.26-1.32-.32c-.33-.05-.62-.08-.89-.08-.4,0-.88.04-1.43.13s-1.06.23-1.52.43v22.81c.1,0,.2-.01.31-.02l.28-.04c2.77-.39,5.03-2.03,6.77-4.94.6-1,1.09-2.15,1.48-3.45v-1.71l-.07-1.59c0-.63.2-.97.6-1.03.21-.03.37.03.48.18.11.16.17.36.17.61l-.09,1.49v6.63l.09,2.75c0,.28-.06.52-.19.7-.13.18-.28.29-.45.31-.42.06-.63-.19-.63-.73,0-.14.02-.37.06-.68Z" fill="#b32524" stroke-width="0"/><path d="m387.92,461.16c-1.78.25-2.99.41-3.63.46l-.42,1.3c-.13.36-.24.75-.35,1.14-.22.77-.53,1.19-.92,1.24-.18.03-.33-.03-.45-.15-.12-.13-.17-.27-.17-.42,0-.26.09-.57.27-.92.29-.54.57-1.24.85-2.09-.83.02-1.24-.22-1.24-.72s.24-.79.71-.85c.29-.04.63-.03,1.01.03l7.27-22.97,10.15,25.34-7.75,1.07-1.22-3.05-4.1.58Zm-3.17-1.01c.93-.04,1.76-.11,2.5-.21l4.29-.61-3.66-9.19-3.13,10.02Z" fill="#b32524" stroke-width="0"/><path d="m416.58,451.38l1.27-.08c1.83-.27,3.38-1.27,4.67-2.99,1.29-1.73,1.93-3.74,1.93-6.02,0-3-1.11-5.04-3.31-6.13-1.21-.6-2.5-.85-3.86-.75-.58.03-1.12.09-1.61.17l-1.05.17c-.22.04-.41.07-.57.11v24.87l-7.8,1.08v-26.01c2.37-.39,4.3-.71,5.78-.96s2.46-.4,2.91-.46c.45-.06.86-.11,1.21-.15.36-.04.69-.07,1-.1.46-.03,1.1-.01,1.94.03s1.67.27,2.49.65c.83.39,1.54.92,2.13,1.6,1.29,1.44,1.94,3.3,1.94,5.58s-.6,4.33-1.8,6.23c-1.23,1.94-2.86,3.32-4.88,4.12.97,3.44,2.2,5.4,3.71,5.89.46.15.92.19,1.38.13l1.25-.53c.39-.05.58.16.58.63,0,.66-.65,1.08-1.96,1.26-.94.13-1.81-.06-2.59-.58-1.22-.7-2.25-2.25-3.1-4.63l-.45-1.26c-.07-.2-.14-.32-.19-.36-.06-.04-.16-.05-.29-.03s-.26.05-.36.09l-.37.07c-.41.06-.69,0-.84-.16-.15-.16-.22-.34-.22-.54,0-.53.36-.85,1.08-.96Z" fill="#b32524" stroke-width="0"/><path d="m431.96,431.55l6.7-1.11c3.16-.52,5.49-.65,6.97-.37,1.7.33,3.02.9,3.96,1.71.93.81,1.67,1.69,2.2,2.63,1.09,1.92,1.63,4.22,1.63,6.88,0,4.19-1.3,7.78-3.89,10.74-1.83,2.12-3.98,3.56-6.44,4.34-1.36.43-3.26.81-5.69,1.15l-5.44.75v-26.72Zm8.23,24c.17-.01.33-.03.47-.05l.37-.05c2.95-.41,5.49-1.85,7.6-4.31,2.24-2.61,3.37-5.81,3.37-9.6,0-2.39-.49-4.46-1.48-6.22-1.43-2.55-3.67-3.87-6.73-3.96-.99-.03-2.2.06-3.61.27v23.91Z" fill="#b32524" stroke-width="0"/><path d="m475.58,450.52c.59-.08.89.14.89.66,0,.24-.13.47-.38.68-.26.22-.7.37-1.33.46l-14.55,2.02v-27.49c4.47-.74,8.98-1.49,13.53-2.24l1.43-.3c.87-.14,1.31.07,1.31.65,0,.22-.07.44-.22.66-.15.22-.31.34-.5.37-.3.05-.62.06-.96.04-.5-.04-1.18.02-2.05.16l-3.82.63v5.98l3.15-.5,2.14-.44c.26-.04.47,0,.65.1.18.11.27.29.27.54,0,.55-.33.88-.98.98l-.75.1c-.38.02-.7.05-.96.09l-3.53.55v17.48l3.82-.54c.86-.12,1.47-.24,1.83-.37.43-.15.77-.25,1.01-.28Z" fill="#b32524" stroke-width="0"/><path d="m484.58,448.13l.05,1.98c0,.34-.08.62-.25.83-.17.21-.36.33-.59.36s-.42-.03-.58-.18c-.15-.15-.23-.33-.23-.53s.01-.4.04-.58c.03-.18.06-.39.08-.62.06-.39.09-1.36.09-2.89v-24.72l19.63,14.17v-12.07c0-.92-.02-1.57-.07-1.95-.06-.62-.09-1.06-.09-1.32,0-.67.26-1.06.79-1.14.21-.03.41.01.6.14.19.13.29.35.29.66v.71l-.07,2.95v25.43l-19.68-14.27v13.03Z" fill="#b32524" stroke-width="0"/></g><g filter="url(#drop-shadow-16)"><path d="m591.52,429.55c-.54-.4-1.4-.44-2.6-.12-.51.14-.96.29-1.33.46v9.67c.17-.02.35-.06.54-.11,1.42-.37,2.56-.99,3.4-1.87.79-.82,1.18-1.7,1.18-2.64,0-.82-.27-1.4-.81-1.73-.54-.33-1.26-.38-2.16-.14-.32.08-.54.17-.68.25-.38.21-.65.32-.82.31-.08,0-.13-.05-.15-.15s0-.18.07-.25.16-.14.28-.21c.3-.16.72-.32,1.27-.46s1.04-.21,1.48-.21.83.1,1.16.28c.72.38,1.09,1.12,1.09,2.2,0,1.16-.54,2.23-1.6,3.22-.99.91-2.2,1.54-3.62,1.91-1.59.41-2.87.32-3.84-.24-1.08-.63-1.62-1.79-1.62-3.5s.59-3.28,1.77-4.63c1.12-1.28,2.54-2.15,4.28-2.62,1.05-.28,1.96-.35,2.74-.2.58.12.87.32.87.61,0,.16-.12.27-.35.33-.14.04-.24.03-.32-.01l-.22-.14Z" fill="#fec215" stroke-width="0"/><path d="m584.59,452.14c.94-.57,1.88-.96,2.8-1.18s1.72-.31,2.37-.26,1.2.2,1.65.44c.91.49,1.36,1.26,1.36,2.3s-.49,2.07-1.47,3.01c-1.03.99-2.37,1.67-4.04,2.06-1.17.27-2.3.24-3.4-.07-.39-.12-.67-.3-.84-.53-.05-.06-.07-.12-.07-.18,0-.24.11-.39.32-.44s.39.01.54.18.33.3.55.41.48.18.78.23c.65.1,1.39.06,2.21-.13l.26-.06c.09-.02.17-.04.25-.07v-6.42c-.2.03-.47.09-.8.17s-.73.23-1.2.44-.83.41-1.08.58c-.33.22-.55.35-.66.37s-.2.02-.26-.04-.08-.11-.07-.18l.48-3.5s.02-.08.02-.12v-.13c0-.26.02-.41.07-.46.07-.07.2-.13.37-.17l1.33-.25,1.8-.44c1.5-.37,2.58-.68,3.21-.94.05-.02.12-.04.21-.06s.18,0,.25.04.11.12.11.19c0,.23-.34.44-1.03.61-.18.05-.35.09-.51.13l-5.09,1.24-.44,3.24Z" fill="#fec215" stroke-width="0"/><path d="m582.59,475.55l-.38.08-.12.02c-.15.03-.29.02-.42-.02s-.2-.13-.2-.26.01-.23.04-.31.07-.17.13-.27.13-.21.22-.33l5.96-8.45,3.8-.83v7.95c.76-.16,1.21-.26,1.34-.32.21-.08.37-.14.48-.16s.2-.01.27.03.11.1.11.2c0,.2-.19.35-.57.45-.24.07-.57.15-.99.24l-.65.13v2.09l-4.7.95v-2.08c-1.45.3-2.9.59-4.34.89Zm4.34-1.45v-5.76l-4.49,6.45c-.08.11-.1.18-.06.2s.15.01.35-.03l4.2-.87Z" fill="#fec215" stroke-width="0"/></g><polygon points="428.6 623.95 377 622.57 377 536.1 428.6 532.78 428.6 623.95" fill="#ffeebd" filter="url(#drop-shadow-17)" stroke="#25404d" stroke-miterlimit="10" stroke-width="2.5"/><polygon points="716.05 618.49 608.71 630.37 608.71 387.97 716.05 462.97 716.05 618.49" fill="#25404d" stroke-width="0"/><polygon points="362.52 622.28 317.36 621.02 317.36 539.98 362.52 537.13 362.52 622.28" fill="#ffeebd" filter="url(#drop-shadow-18)" stroke="#25404d" stroke-miterlimit="10" stroke-width="2.5"/><line x1="339.52" y1="537.56" x2="339.52" y2="620.46" fill="#ffeebd" stroke="#25404d" stroke-miterlimit="10"/><polygon points="163.23 620.7 129.26 619.58 129.26 555.69 163.23 553.72 163.23 620.7" fill="#ffe69e" filter="url(#drop-shadow-19)" stroke="#314f60" stroke-miterlimit="10" stroke-width="2"/><line x1="145.95" y1="553.92" x2="145.95" y2="619.21" fill="none" stroke="#314f60" stroke-miterlimit="10"/><line x1="402.27" y1="533.72" x2="402.27" y2="622.49" fill="none" stroke="#25404d" stroke-miterlimit="10"/><polygon points="502.46 626.05 443.18 624.46 443.18 531.96 502.46 528.15 502.46 626.05" fill="#ffeebd" filter="url(#drop-shadow-20)" stroke="#25404d" stroke-miterlimit="10" stroke-width="2.5"/><line x1="471.78" y1="530.59" x2="471.78" y2="625.69" fill="#ffeebd" stroke="#25404d" stroke-miterlimit="10"/><line x1="762.31" y1="622.09" x2="793.11" y2="616.82" fill="none" stroke-width="0"/><line x1="713.2" y1="630.54" x2="786.87" y2="617.59" fill="none" stroke-width="0"/><polygon points="748.43 614.89 716.05 618.47 716.05 217.64 748.43 281.39 748.43 614.89" fill="#25404d" stroke-width="0"/><path d="m638.59,116.69l-114.46,45.43c-.09.03-.18-.03-.18-.12v-7.33c0-.05.03-.1.08-.12l114.46-46.23c.09-.03.18.03.18.12v8.12c0,.05-.03.1-.08.12Z" fill="#718c9a" filter="url(#drop-shadow-21)" stroke-width="0"/><path d="m638.05,131.44l-114.36,44.02c-.09.03-.18,0-.18-.05v-4.4s.03-.06.08-.08l114.36-44.5c.09-.03.18,0,.18.05v4.87s-.03.06-.08.08Z" fill="#fec215" filter="url(#drop-shadow-22)" stroke-width="0"/><polygon points="205.64 323.87 212.05 321.61 212.05 309.91 205.64 312.27 205.64 323.87" fill="#ffe69e" filter="url(#drop-shadow-23)" stroke-width="0"/><polygon points="217.08 140.84 211.5 144.07 211.5 133.59 217.08 130.28 217.08 140.84" fill="#ffe69e" filter="url(#drop-shadow-24)" stroke-width="0"/><polygon points="202.64 149.33 192.59 155.14 192.59 144.93 202.64 138.98 202.64 149.33" fill="#ffe69e" filter="url(#drop-shadow-25)" stroke-width="0"/><polygon points="189.73 156.82 183.59 160.37 183.59 150.22 189.73 146.59 189.73 156.82" fill="#ffe69e" filter="url(#drop-shadow-26)" stroke-width="0"/><polygon points="166.01 170.53 160.15 173.92 160.15 164.22 166.01 160.76 166.01 170.53" fill="#ffe69e" filter="url(#drop-shadow-27)" stroke-width="0"/><polygon points="158.49 174.89 152.85 178.16 152.85 168.45 158.49 165.11 158.49 174.89" fill="#ffe69e" filter="url(#drop-shadow-28)" stroke-width="0"/><polygon points="146.12 182.03 136.71 187.47 136.71 178.21 146.12 172.64 146.12 182.03" fill="#ffe69e" filter="url(#drop-shadow-29)" stroke-width="0"/><polygon points="126.38 193.36 120.52 196.75 120.52 187.4 126.38 183.93 126.38 193.36" fill="#ffe69e" filter="url(#drop-shadow-30)" stroke-width="0"/><polygon points="107.82 204.25 98.34 209.73 98.34 200.52 107.82 194.91 107.82 204.25" fill="#ffe69e" filter="url(#drop-shadow-31)" stroke-width="0"/><polygon points="96.8 210.36 91.48 213.44 91.48 204.22 96.8 201.06 96.8 210.36" fill="#ffe69e" filter="url(#drop-shadow-32)" stroke-width="0"/><polygon points="218.46 190.68 212.05 193.98 212.05 181.48 218.46 178.08 218.46 190.68" fill="#ffe69e" filter="url(#drop-shadow-33)" stroke-width="0"/><polygon points="210.24 194.92 198.23 201.1 198.23 188.66 210.24 182.29 210.24 194.92" fill="#ffe69e" filter="url(#drop-shadow-34)" stroke-width="0"/><polygon points="182.88 209.06 176.32 212.43 176.32 200.4 182.88 196.92 182.88 209.06" fill="#ffe69e" filter="url(#drop-shadow-35)" stroke-width="0"/><polygon points="158.45 221.68 152.35 224.82 152.35 213.17 158.45 209.93 158.45 221.68" fill="#ffe69e" filter="url(#drop-shadow-36)" stroke-width="0"/><polygon points="150.38 225.83 144.52 228.84 144.52 217.33 150.38 214.22 150.38 225.83" fill="#ffe69e" filter="url(#drop-shadow-37)" stroke-width="0"/><polygon points="133.76 234.39 122.61 240.12 122.61 228.8 133.76 222.89 133.76 234.39" fill="#ffe69e" filter="url(#drop-shadow-38)" stroke-width="0"/><polygon points="120.85 241.04 109.96 246.64 109.96 235.52 120.85 229.75 120.85 241.04" fill="#ffe69e" filter="url(#drop-shadow-39)" stroke-width="0"/><polygon points="108.22 247.57 102.23 250.64 102.23 239.7 108.22 236.53 108.22 247.57" fill="#ffe69e" filter="url(#drop-shadow-40)" stroke-width="0"/><polygon points="90.51 256.72 84.21 259.96 84.21 249.41 90.51 246.07 90.51 256.72" fill="#ffe69e" filter="url(#drop-shadow-41)" stroke-width="0"/><g filter="url(#drop-shadow-42)"><polygon points="204.24 235.77 209.36 233.39 209.36 225.17 204.24 227.61 204.24 235.77" fill="#ffe69e" stroke-width="0"/><polygon points="197.68 238.87 202.71 236.53 202.71 228.32 197.68 230.71 197.68 238.87" fill="#ffe69e" stroke-width="0"/><polygon points="177.17 248.43 184.98 244.79 184.98 236.68 177.17 240.4 177.17 248.43" fill="#ffe69e" stroke-width="0"/><polygon points="171.31 251.12 175.59 249.13 175.59 241.17 171.31 243.21 171.31 251.12" fill="#ffe69e" stroke-width="0"/><polygon points="150.29 260.89 159.31 256.69 159.31 248.8 150.29 253.1 150.29 260.89" fill="#ffe69e" stroke-width="0"/><polygon points="134.66 268.24 143.33 264.2 143.33 256.47 134.66 260.6 134.66 268.24" fill="#ffe69e" stroke-width="0"/><polygon points="118.75 275.59 123.17 273.53 123.17 265.98 118.75 268.09 118.75 275.59" fill="#ffe69e" stroke-width="0"/><polygon points="109.71 279.67 116.99 276.28 116.99 269.05 109.71 272.51 109.71 279.67" fill="#ffe69e" stroke-width="0"/></g><g filter="url(#drop-shadow-43)"><polygon points="219.84 275.23 211.22 278.73 211.22 267.42 219.84 263.79 219.84 275.23" fill="#ffe69e" stroke-width="0"/><polygon points="209.44 279.46 203.87 281.73 203.87 270.57 209.44 268.22 209.44 279.46" fill="#ffe69e" stroke-width="0"/><polygon points="174.66 293.73 169.08 296 169.08 285.36 174.66 283.01 174.66 293.73" fill="#ffe69e" stroke-width="0"/><polygon points="165.74 297.38 160.1 299.67 160.1 288.98 165.74 286.61 165.74 297.38" fill="#ffe69e" stroke-width="0"/><polygon points="145.64 305.45 133.36 310.44 133.36 300.15 145.64 294.97 145.64 305.45" fill="#ffe69e" stroke-width="0"/><polygon points="131.22 311.21 125.35 313.6 125.35 303.63 131.22 301.16 131.22 311.21" fill="#ffe69e" stroke-width="0"/><polygon points="108.32 320.65 101.98 323.23 101.98 313.43 108.32 310.77 108.32 320.65" fill="#ffe69e" stroke-width="0"/></g><polygon points="189.87 329.31 202.29 324.94 202.29 313.54 189.87 318.09 189.87 329.31" fill="#ffe69e" filter="url(#drop-shadow-44)" stroke-width="0"/><polygon points="157.22 340.75 164.19 338.3 164.19 327.36 157.22 329.91 157.22 340.75" fill="#ffe69e" filter="url(#drop-shadow-45)" stroke-width="0"/><polygon points="146.89 344.68 154.15 342.13 154.15 330.98 146.89 333.64 146.89 344.68" fill="#ffe69e" filter="url(#drop-shadow-46)" stroke-width="0"/><polygon points="115.22 355.82 120.8 353.86 120.8 343.4 115.22 345.45 115.22 355.82" fill="#ffe69e" filter="url(#drop-shadow-47)" stroke-width="0"/><polygon points="85.73 366.31 98.05 361.99 98.05 351.78 85.73 356.29 85.73 366.31" fill="#ffe69e" filter="url(#drop-shadow-48)" stroke-width="0"/><polygon points="212.29 361.45 205.2 363.58 205.2 353.26 212.29 351.03 212.29 361.45" fill="#ffe69e" filter="url(#drop-shadow-49)" stroke-width="0"/><polygon points="193.45 366.94 181.73 370.46 181.73 360.24 193.45 356.55 193.45 366.94" fill="#ffe69e" filter="url(#drop-shadow-50)" stroke-width="0"/><polygon points="179.31 371.21 172.85 373.15 172.85 363.27 179.31 361.24 179.31 371.21" fill="#ffe69e" filter="url(#drop-shadow-51)" stroke-width="0"/><polygon points="147.95 380.64 141.46 382.6 141.46 373.08 147.95 371.04 147.95 380.64" fill="#ffe69e" filter="url(#drop-shadow-52)" stroke-width="0"/><polygon points="139.73 383.12 133.21 385.08 133.21 375.77 139.73 373.72 139.73 383.12" fill="#ffe69e" filter="url(#drop-shadow-53)" stroke-width="0"/><polygon points="112.57 391.56 106.57 393.36 106.57 384.05 112.57 382.17 112.57 391.56" fill="#ffe69e" filter="url(#drop-shadow-54)" stroke-width="0"/><polygon points="94.41 396.95 83.83 400.13 83.83 391.33 94.41 388.01 94.41 396.95" fill="#ffe69e" filter="url(#drop-shadow-55)" stroke-width="0"/><polygon points="203.82 398.05 197.96 399.55 197.96 389.87 203.82 388.29 203.82 398.05" fill="#ffe69e" filter="url(#drop-shadow-56)" stroke-width="0"/><polygon points="196.01 399.93 183.3 403.19 183.3 393.77 196.01 390.35 196.01 399.93" fill="#ffe69e" filter="url(#drop-shadow-57)" stroke-width="0"/><polygon points="154.54 410.53 149.18 411.91 149.18 403.25 154.54 401.8 154.54 410.53" fill="#ffe69e" filter="url(#drop-shadow-58)" stroke-width="0"/><polygon points="130.29 416.8 124.71 418.23 124.71 409.68 130.29 408.18 130.29 416.8" fill="#ffe69e" filter="url(#drop-shadow-59)" stroke-width="0"/><polygon points="101.45 424.66 89.85 427.63 89.85 418.8 101.45 415.67 101.45 424.66" fill="#ffe69e" filter="url(#drop-shadow-60)" stroke-width="0"/><polygon points="109.5 422.24 103.64 423.74 103.64 415.13 109.5 413.55 109.5 422.24" fill="#ffe69e" filter="url(#drop-shadow-61)" stroke-width="0"/><g filter="url(#drop-shadow-62)"><polygon points="207.31 436.61 216.52 434.71 216.52 422.1 207.31 424.15 207.31 436.61" fill="#ffe69e" stroke-width="0"/><polygon points="193.5 439.75 185.07 441.48 185.07 429.11 193.5 427.24 193.5 439.75" fill="#ffe69e" stroke-width="0"/><polygon points="167.96 444.84 154.57 447.6 154.57 435.88 167.96 432.91 167.96 444.84" fill="#ffe69e" stroke-width="0"/><polygon points="152.05 448.14 143.68 449.86 143.68 438.42 152.05 436.57 152.05 448.14" fill="#ffe69e" stroke-width="0"/><polygon points="128.61 453 122.47 454.27 122.47 443.12 128.61 441.75 128.61 453" fill="#ffe69e" stroke-width="0"/><polygon points="100.65 458.83 93.92 460.21 93.92 449.37 100.65 447.88 100.65 458.83" fill="#ffe69e" stroke-width="0"/></g><g filter="url(#drop-shadow-63)"><polygon points="203.26 527.63 195.04 528.37 195.04 515.6 203.26 514.73 203.26 527.63" fill="#ffe69e" stroke-width="0"/><polygon points="191.83 528.37 175.25 529.86 175.25 517.83 191.83 516.07 191.83 528.37" fill="#ffe69e" stroke-width="0"/><polygon points="160.2 531.78 152.75 532.44 152.75 520.15 160.2 519.36 160.2 531.78" fill="#ffe69e" stroke-width="0"/><polygon points="128.1 534.37 121.12 535 121.12 523.68 128.1 522.94 128.1 534.37" fill="#ffe69e" stroke-width="0"/><polygon points="106.27 536.18 93.59 537.32 93.59 526.76 106.27 525.41 106.27 536.18" fill="#ffe69e" stroke-width="0"/></g><g filter="url(#drop-shadow-64)"><polygon points="208.64 481.95 200.33 483.18 200.33 470.16 208.64 468.79 208.64 481.95" fill="#ffe69e" stroke-width="0"/><polygon points="161.16 489.38 153.72 490.47 153.72 478 161.16 476.78 161.16 489.38" fill="#ffe69e" stroke-width="0"/><polygon points="150.94 490.75 136.98 492.81 136.98 480.93 150.94 478.64 150.94 490.75" fill="#ffe69e" stroke-width="0"/><polygon points="105.75 497.65 98.54 498.71 98.54 487.51 105.75 486.33 105.75 497.65" fill="#ffe69e" stroke-width="0"/><polygon points="94.01 499.4 86.47 500.51 86.47 489.48 94.01 488.25 94.01 499.4" fill="#ffe69e" stroke-width="0"/></g><line x1="448.64" y1="134.38" x2="473.9" y2="164.23" fill="none" filter="url(#drop-shadow-65)" stroke="#395f72" stroke-linecap="round" stroke-miterlimit="10" stroke-width="2"/><line x1="443.26" y1="88.82" x2="470.54" y2="122.8" fill="none" filter="url(#drop-shadow-66)" stroke="#395f72" stroke-linecap="round" stroke-miterlimit="10" stroke-width="2"/><line x1="437.96" y1="45.08" x2="466.11" y2="83.33" fill="none" filter="url(#drop-shadow-67)" stroke="#395f72" stroke-linecap="round" stroke-miterlimit="10" stroke-width="2"/><line x1="388.43" y1="161.17" x2="448.57" y2="134.38" fill="none" filter="url(#drop-shadow-68)" stroke="#395f72" stroke-linecap="round" stroke-miterlimit="10" stroke-width="2"/><line x1="392.47" y1="115.96" x2="443.12" y2="88.75" fill="none" filter="url(#drop-shadow-69)" stroke="#395f72" stroke-linecap="round" stroke-miterlimit="10" stroke-width="2"/><line x1="397.22" y1="71.03" x2="437.82" y2="45.08" fill="none" stroke="#395f72" stroke-linecap="round" stroke-miterlimit="10" stroke-width="2"/><polygon points="6.66 626.38 608.66 667.64 608.66 657.59 6.52 619.82 6.66 626.38" fill="#808285" stroke-width="0"/><polygon points="796.43 618.75 608.89 667.29 608.89 657.36 796.43 614.29 796.43 618.75" fill="#6d6e71" stroke-width="0"/><g filter="url(#drop-shadow-70)"><polygon points="714.05 618.2 683.31 621.09 683.31 543.22 714.05 550.33 714.05 618.2" fill="#ffe69e" stroke="#25404d" stroke-miterlimit="10" stroke-width="1.5"/><line x1="699.94" y1="547.15" x2="699.94" y2="619.39" fill="#ffe69e" stroke="#25404d" stroke-miterlimit="10"/></g><g filter="url(#drop-shadow-71)"><polygon points="676.78 622.54 631.73 626.94 631.73 531.11 676.78 541.56 676.78 622.54" fill="#ffe69e" stroke="#25404d" stroke-miterlimit="10" stroke-width="1.5"/><line x1="656.44" y1="536.95" x2="656.44" y2="623.82" fill="#ffe69e" stroke="#25404d" stroke-miterlimit="10"/></g><g filter="url(#drop-shadow-72)"><polygon points="740.75 615.11 718.33 617.17 718.33 551.25 740.75 556.42 740.75 615.11" fill="#ffe69e" stroke="#25404d" stroke-miterlimit="10" stroke-width="1.5"/><line x1="730.33" y1="554.09" x2="730.33" y2="615.32" fill="#ffe69e" stroke="#25404d" stroke-miterlimit="10"/></g><g filter="url(#drop-shadow-73)"><polygon points="727.38 325.31 721.04 315.79 721.04 290.05 727.38 300.45 727.38 325.31" fill="#ffe69e" stroke-width="0"/><polygon points="736.85 339.54 731.17 331.01 731.17 306.66 736.85 315.98 736.85 339.54" fill="#ffe69e" stroke-width="0"/><polygon points="745.02 351.6 739.88 343.86 739.88 320.72 745.02 329.16 745.02 351.6" fill="#ffe69e" stroke-width="0"/><polygon points="727.38 365.77 721.04 357.66 721.04 331.93 727.38 340.9 727.38 365.77" fill="#ffe69e" stroke-width="0"/><polygon points="736.85 377.88 731.17 370.62 731.17 346.27 736.85 354.32 736.85 377.88" fill="#ffe69e" stroke-width="0"/><polygon points="745.02 388.11 739.88 381.52 739.88 358.38 745.02 365.67 745.02 388.11" fill="#ffe69e" stroke-width="0"/><polygon points="727.38 407.08 721.04 400.42 721.04 374.68 727.38 382.21 727.38 407.08" fill="#ffe69e" stroke-width="0"/><polygon points="736.85 417.03 731.17 411.06 731.17 386.71 736.85 393.47 736.85 417.03" fill="#ffe69e" stroke-width="0"/><polygon points="745.02 425.39 739.88 419.98 739.88 396.83 745.02 402.95 745.02 425.39" fill="#ffe69e" stroke-width="0"/><polygon points="727.38 446.75 721.04 441.48 721.04 415.74 727.38 421.88 727.38 446.75" fill="#ffe69e" stroke-width="0"/><polygon points="736.85 454.62 731.17 449.9 731.17 425.55 736.85 431.06 736.85 454.62" fill="#ffe69e" stroke-width="0"/><polygon points="745.02 461.19 739.88 456.9 739.88 433.76 745.02 438.75 745.02 461.19" fill="#ffe69e" stroke-width="0"/></g><g filter="url(#drop-shadow-74)"><polygon points="639.21 485.55 621.42 478.16 621.42 436.31 639.21 446.29 639.21 485.55" fill="#ffe69e" stroke-width="0"/><polygon points="662.24 495.11 647.45 488.97 647.45 450.92 662.24 459.21 662.24 495.11" fill="#ffe69e" stroke-width="0"/><polygon points="681.88 504.44 668.48 498.95 668.48 461.46 681.88 469.05 681.88 504.44" fill="#ffe69e" stroke-width="0"/><polygon points="698.34 511.19 686.87 506.49 686.87 471.87 698.34 478.37 698.34 511.19" fill="#ffe69e" stroke-width="0"/><polygon points="712.91 517.16 703.01 513.1 703.01 481.02 712.91 486.62 712.91 517.16" fill="#ffe69e" stroke-width="0"/><polygon points="725.04 522.13 716.36 518.58 716.36 488.57 725.04 493.49 725.04 522.13" fill="#ffe69e" stroke-width="0"/><polygon points="735.7 526.5 728.02 523.35 728.02 495.18 735.7 499.52 735.7 526.5" fill="#ffe69e" stroke-width="0"/><polygon points="745.49 530.52 738.68 527.72 738.68 501.21 745.49 505.07 745.49 530.52" fill="#ffe69e" stroke-width="0"/></g><g filter="url(#drop-shadow-75)"><polygon points="543.83 200.84 535.33 203.86 535.33 190.34 543.83 187.22 543.83 200.84" fill="#ffe69e" stroke-width="0"/><polygon points="559.22 195.26 550.48 198.36 550.48 184.66 559.22 181.45 559.22 195.26" fill="#ffe69e" stroke-width="0"/><polygon points="574.55 189.78 565.58 192.97 565.58 179.09 574.55 175.79 574.55 189.78" fill="#ffe69e" stroke-width="0"/><polygon points="590.78 183.88 581.55 187.16 581.55 173.08 590.78 169.69 590.78 183.88" fill="#ffe69e" stroke-width="0"/><polygon points="607.81 178.26 597.92 181.77 597.92 166.91 607.81 163.27 607.81 178.26" fill="#ffe69e" stroke-width="0"/><polygon points="625.78 171.88 615.59 175.5 615.59 160.41 625.78 156.66 625.78 171.88" fill="#ffe69e" stroke-width="0"/></g><g filter="url(#drop-shadow-76)"><polygon points="543.83 232.01 535.33 234.81 535.33 221.3 543.83 218.4 543.83 232.01" fill="#ffe69e" stroke-width="0"/><polygon points="559.22 226.83 550.48 229.71 550.48 216.01 559.22 213.03 559.22 226.83" fill="#ffe69e" stroke-width="0"/><polygon points="574.55 221.76 565.58 224.71 565.58 210.83 574.55 207.76 574.55 221.76" fill="#ffe69e" stroke-width="0"/><polygon points="590.78 216.27 581.55 219.31 581.55 205.24 590.78 202.08 590.78 216.27" fill="#ffe69e" stroke-width="0"/><polygon points="607.81 211.1 597.92 214.35 597.92 199.49 607.81 196.11 607.81 211.1" fill="#ffe69e" stroke-width="0"/><polygon points="625.78 205.18 615.59 208.54 615.59 193.45 625.78 189.97 625.78 205.18" fill="#ffe69e" stroke-width="0"/></g><g filter="url(#drop-shadow-77)"><polygon points="543.83 263.05 535.33 265.59 535.33 252.08 543.83 249.43 543.83 263.05" fill="#ffe69e" stroke-width="0"/><polygon points="559.22 258.32 550.48 260.94 550.48 247.24 559.22 244.52 559.22 258.32" fill="#ffe69e" stroke-width="0"/><polygon points="574.55 253.7 565.58 256.39 565.58 242.51 574.55 239.71 574.55 253.7" fill="#ffe69e" stroke-width="0"/><polygon points="590.78 248.7 581.55 251.47 581.55 237.39 590.78 234.52 590.78 248.7" fill="#ffe69e" stroke-width="0"/><polygon points="607.81 244.04 597.92 247 597.92 232.13 607.81 229.05 607.81 244.04" fill="#ffe69e" stroke-width="0"/><polygon points="625.78 238.66 615.59 241.71 615.59 226.62 625.78 223.44 625.78 238.66" fill="#ffe69e" stroke-width="0"/></g></svg>